<svg width="148" height="48" viewBox="0 0 148 48" fill="none" xmlns="http://www.w3.org/2000/svg"><rect width="148" height="48" rx="8" fill="#000"/><path d="M29.979 24.067a6.238 6.238 0 0 1 2.97-5.234 6.386 6.386 0 0 0-5.03-2.72c-2.118-.223-4.17 1.266-5.249 1.266-1.1 0-2.76-1.245-4.55-1.208a6.7 6.7 0 0 0-5.638 3.44c-2.438 4.22-.62 10.424 1.716 13.836 1.169 1.671 2.534 3.538 4.321 3.471 1.749-.072 2.402-1.114 4.513-1.114 2.09 0 2.703 1.114 4.527 1.072 1.876-.03 3.058-1.678 4.186-3.364a13.821 13.821 0 0 0 1.914-3.9 6.028 6.028 0 0 1-3.68-5.545ZM26.534 13.868a6.143 6.143 0 0 0 1.405-4.4 6.25 6.25 0 0 0-4.043 2.092 5.845 5.845 0 0 0-1.442 4.238 5.167 5.167 0 0 0 4.08-1.93ZM52.084 32.689h-5.967l-1.433 4.231h-2.528l5.652-15.655h2.626l5.652 15.655h-2.57l-1.432-4.231Zm-5.35-1.953h4.73l-2.33-6.867h-.066l-2.333 6.867ZM68.294 31.214c0 3.546-1.898 5.825-4.763 5.825a3.87 3.87 0 0 1-3.591-1.997h-.054v5.654h-2.343v-15.19h2.268v1.898h.043a4.05 4.05 0 0 1 3.634-2.017c2.897 0 4.806 2.29 4.806 5.827Zm-2.408 0c0-2.311-1.194-3.83-3.016-3.83-1.79 0-2.994 1.55-2.994 3.83 0 2.3 1.204 3.84 2.994 3.84 1.822 0 3.016-1.509 3.016-3.84ZM80.853 31.214c0 3.547-1.898 5.826-4.763 5.826a3.869 3.869 0 0 1-3.591-1.997h-.055v5.653h-2.342v-15.19h2.267v1.899h.043a4.049 4.049 0 0 1 3.635-2.018c2.897 0 4.806 2.29 4.806 5.827Zm-2.408 0c0-2.31-1.194-3.83-3.016-3.83-1.79 0-2.994 1.551-2.994 3.83 0 2.3 1.204 3.84 2.994 3.84 1.822 0 3.016-1.508 3.016-3.84ZM89.16 32.558c.174 1.553 1.682 2.572 3.743 2.572 1.974 0 3.395-1.02 3.395-2.42 0-1.214-.857-1.942-2.886-2.44l-2.029-.49c-2.874-.694-4.209-2.038-4.209-4.22 0-2.7 2.354-4.556 5.697-4.556 3.308 0 5.575 1.855 5.652 4.556h-2.365c-.142-1.562-1.433-2.505-3.32-2.505-1.888 0-3.18.954-3.18 2.343 0 1.107.825 1.758 2.843 2.256l1.725.424c3.212.76 4.547 2.05 4.547 4.34 0 2.928-2.333 4.763-6.044 4.763-3.472 0-5.816-1.791-5.967-4.623h2.398ZM103.826 22.805v2.701h2.17v1.855h-2.17v6.293c0 .977.435 1.433 1.389 1.433.257-.005.515-.023.77-.055v1.845c-.429.08-.865.116-1.301.108-2.311 0-3.212-.868-3.212-3.081V27.36h-1.66v-1.855h1.66v-2.701h2.354ZM107.254 31.214c0-3.592 2.115-5.848 5.413-5.848 3.309 0 5.415 2.256 5.415 5.848 0 3.6-2.094 5.847-5.415 5.847-3.319 0-5.413-2.246-5.413-5.847Zm8.44 0c0-2.464-1.128-3.918-3.027-3.918-1.898 0-3.026 1.465-3.026 3.918 0 2.473 1.128 3.916 3.026 3.916 1.899 0 3.027-1.443 3.027-3.916ZM120.012 25.506h2.234v1.943h.054a2.727 2.727 0 0 1 2.746-2.062c.27 0 .539.028.803.087v2.192a3.28 3.28 0 0 0-1.053-.142 2.364 2.364 0 0 0-2.338 1.621 2.345 2.345 0 0 0-.103 1.005v6.77h-2.343V25.506ZM136.651 33.568c-.315 2.072-2.333 3.493-4.914 3.493-3.321 0-5.382-2.224-5.382-5.793 0-3.58 2.072-5.902 5.283-5.902 3.158 0 5.144 2.169 5.144 5.63v.802h-8.062v.142a2.975 2.975 0 0 0 3.071 3.233 2.582 2.582 0 0 0 2.636-1.605h2.224Zm-7.919-3.407h5.706a2.745 2.745 0 0 0-2.8-2.897 2.895 2.895 0 0 0-2.057.843 2.894 2.894 0 0 0-.849 2.054ZM46.44 9.482a3.328 3.328 0 0 1 3.54 3.738c0 2.403-1.3 3.784-3.54 3.784h-2.717V9.482h2.717ZM44.89 15.94h1.418a2.364 2.364 0 0 0 2.481-2.705 2.372 2.372 0 0 0-2.48-2.69H44.89v5.395ZM51.298 14.163a2.689 2.689 0 1 1 5.354 0 2.691 2.691 0 1 1-5.354 0Zm4.202 0c0-1.23-.553-1.95-1.523-1.95-.974 0-1.522.72-1.522 1.95 0 1.24.548 1.954 1.522 1.954.97 0 1.523-.719 1.523-1.954ZM63.77 17.004h-1.163l-1.173-4.181h-.089l-1.168 4.18h-1.151l-1.565-5.676h1.136l1.017 4.332h.084l1.167-4.332h1.075l1.167 4.332h.089l1.011-4.332h1.12l-1.558 5.677ZM66.644 11.327h1.079v.902h.084a1.7 1.7 0 0 1 1.694-1.011 1.845 1.845 0 0 1 1.965 2.11v3.676h-1.12V13.61c0-.912-.397-1.366-1.226-1.366a1.303 1.303 0 0 0-1.355 1.439v3.32h-1.12v-5.676ZM73.25 9.111h1.12v7.893h-1.12V9.11ZM75.93 14.163a2.688 2.688 0 0 1 3.766-2.716 2.689 2.689 0 0 1 1.59 2.716 2.691 2.691 0 1 1-5.355 0Zm4.202 0c0-1.23-.552-1.95-1.523-1.95-.973 0-1.521.72-1.521 1.95 0 1.24.548 1.954 1.522 1.954.97 0 1.522-.719 1.522-1.954ZM82.46 15.398c0-1.021.762-1.61 2.112-1.694l1.538-.089v-.49c0-.6-.396-.938-1.162-.938-.626 0-1.059.23-1.183.631H82.68c.115-.975 1.032-1.6 2.32-1.6 1.423 0 2.225.708 2.225 1.907v3.879h-1.078v-.798h-.089a1.91 1.91 0 0 1-1.705.891 1.715 1.715 0 0 1-1.892-1.699Zm3.65-.485v-.474l-1.386.088c-.782.053-1.137.319-1.137.82 0 .51.444.807 1.053.807a1.337 1.337 0 0 0 1.47-1.24ZM88.7 14.163c0-1.794.921-2.93 2.356-2.93a1.871 1.871 0 0 1 1.74.996h.084V9.11H94v7.893h-1.073v-.897h-.089a1.97 1.97 0 0 1-1.782.99c-1.444 0-2.357-1.136-2.357-2.934Zm1.156 0c0 1.204.568 1.929 1.517 1.929.944 0 1.528-.735 1.528-1.924 0-1.183-.59-1.929-1.528-1.929-.943 0-1.517.73-1.517 1.924ZM98.638 14.163a2.687 2.687 0 0 1 2.677-2.946 2.69 2.69 0 0 1 2.677 2.946 2.696 2.696 0 0 1-.685 2.068 2.69 2.69 0 0 1-4.67-2.068Zm4.201 0c0-1.23-.552-1.95-1.522-1.95-.974 0-1.522.72-1.522 1.95 0 1.24.548 1.954 1.522 1.954.97 0 1.522-.719 1.522-1.954ZM105.492 11.327h1.079v.902h.083a1.699 1.699 0 0 1 1.694-1.011 1.846 1.846 0 0 1 1.965 2.11v3.676h-1.12V13.61c0-.912-.396-1.366-1.225-1.366a1.302 1.302 0 0 0-1.355 1.439v3.32h-1.121v-5.676ZM116.644 9.914v1.439h1.23v.944h-1.23v2.919c0 .594.245.855.803.855.142 0 .285-.01.427-.026v.933a3.684 3.684 0 0 1-.61.057c-1.246 0-1.742-.438-1.742-1.533v-3.205h-.901v-.944h.901v-1.44h1.122ZM119.406 9.111h1.111v3.128h.088a1.747 1.747 0 0 1 1.731-1.017 1.871 1.871 0 0 1 1.955 2.117v3.665h-1.121v-3.389c0-.907-.422-1.366-1.214-1.366a1.329 1.329 0 0 0-1.356.871c-.065.182-.09.376-.073.568v3.316h-1.121V9.11ZM130.825 15.471a2.302 2.302 0 0 1-2.46 1.642 2.58 2.58 0 0 1-2.622-2.93 2.615 2.615 0 0 1 1.528-2.738c.343-.153.714-.23 1.089-.227 1.58 0 2.533 1.079 2.533 2.861v.391h-4.009v.063a1.514 1.514 0 0 0 .396 1.148 1.51 1.51 0 0 0 1.116.478 1.36 1.36 0 0 0 1.351-.688h1.078Zm-3.941-1.83h2.867a1.36 1.36 0 0 0-.84-1.366 1.37 1.37 0 0 0-.557-.104 1.448 1.448 0 0 0-1.363.905 1.46 1.46 0 0 0-.107.566Z" fill="#fff"/></svg>