<svg width="1440" height="745" viewBox="0 0 1440 745" fill="none" xmlns="http://www.w3.org/2000/svg">
<ellipse cx="1153" cy="118.931" rx="338.036" ry="273.356" transform="rotate(3.70651 1153 118.931)" fill="#222524"/>
<ellipse cx="1388.95" cy="398.873" rx="186.383" ry="150.72" transform="rotate(59.8444 1388.95 398.873)" fill="#222524"/>
<path d="M1195.47 396.734C1213.92 395.033 1255.71 388.847 1299.11 376.438" stroke="#65026e" stroke-width="10" stroke-linecap="round"/>
<ellipse cx="274.78" cy="1.01724" rx="671.43" ry="680.638" transform="rotate(-43.9583 274.78 1.01724)" fill="#222524"/>
<path d="M661.149 453.771C684.974 425.639 795.737 377.624 798.179 434.702C762.961 516.553 822.751 562.413 842.432 574.815C844.126 575.883 843.5 578.715 841.502 578.854C748.066 585.339 668.448 537.104 659.989 457.79C659.834 456.334 660.203 454.888 661.149 453.771Z" fill="#222524"/>
<path d="M887.469 309.69C895.015 292.765 910.064 253.296 920.481 209.368" stroke="#65026e" stroke-width="10" stroke-linecap="round"/>
<path d="M840.735 156.911C837.083 158.696 835.343 160.328 833.438 163.752C833.255 164.083 832.751 164.083 832.562 163.752C830.657 160.328 828.917 158.696 825.265 156.911C824.912 156.739 824.912 156.267 825.265 156.089C828.917 154.304 830.657 152.672 832.562 149.248C832.745 148.917 833.249 148.917 833.438 149.248C835.343 152.672 837.083 154.304 840.735 156.089C841.088 156.261 841.088 156.739 840.735 156.911Z" fill="#8D33FF"/>
<path d="M734.503 118.822C727.656 122.393 724.393 125.656 720.822 132.503C720.479 133.166 719.534 133.166 719.178 132.503C715.607 125.656 712.344 122.393 705.497 118.822C704.834 118.479 704.834 117.534 705.497 117.178C712.344 113.607 715.607 110.344 719.178 103.497C719.521 102.834 720.466 102.834 720.822 103.497C724.393 110.344 727.656 113.607 734.503 117.178C735.166 117.521 735.166 118.479 734.503 118.822Z" fill="#8D33FF"/>
<path d="M152.503 599.822C145.656 603.393 142.393 606.656 138.822 613.503C138.479 614.166 137.534 614.166 137.178 613.503C133.607 606.656 130.344 603.393 123.497 599.822C122.834 599.479 122.834 598.534 123.497 598.178C130.344 594.607 133.607 591.344 137.178 584.497C137.521 583.834 138.466 583.834 138.822 584.497C142.393 591.344 145.656 594.607 152.503 598.178C153.166 598.521 153.166 599.479 152.503 599.822Z" fill="#8D33FF"/>
<path d="M75.735 530.966C72.0834 532.989 70.3427 534.839 68.4384 538.718C68.2552 539.094 67.7513 539.094 67.5616 538.718C65.6573 534.839 63.9166 532.989 60.265 530.966C59.9117 530.771 59.9117 530.236 60.265 530.034C63.9166 528.011 65.6573 526.161 67.5616 522.282C67.7448 521.906 68.2487 521.906 68.4384 522.282C70.3427 526.161 72.0834 528.011 75.735 530.034C76.0883 530.229 76.0883 530.771 75.735 530.966Z" fill="#8D33FF"/>
<path d="M1271.5 245.822C1264.66 249.393 1261.39 252.656 1257.82 259.503C1257.48 260.166 1256.53 260.166 1256.18 259.503C1252.61 252.656 1249.34 249.393 1242.5 245.822C1241.83 245.479 1241.83 244.534 1242.5 244.178C1249.34 240.607 1252.61 237.344 1256.18 230.497C1256.52 229.834 1257.47 229.834 1257.82 230.497C1261.39 237.344 1264.66 240.607 1271.5 244.178C1272.17 244.521 1272.17 245.479 1271.5 245.822Z" fill="#8D33FF"/>
<path d="M757.735 53.4384C754.083 55.3427 752.343 57.0834 750.438 60.735C750.255 61.0883 749.751 61.0883 749.562 60.735C747.657 57.0834 745.917 55.3427 742.265 53.4384C741.912 53.2552 741.912 52.7513 742.265 52.5616C745.917 50.6573 747.657 48.9166 749.562 45.265C749.745 44.9117 750.249 44.9117 750.438 45.265C752.343 48.9166 754.083 50.6573 757.735 52.5616C758.088 52.7448 758.088 53.2552 757.735 53.4384Z" fill="#8D33FF"/>
<path d="M1378.73 182.438C1375.08 184.343 1373.34 186.083 1371.44 189.735C1371.26 190.088 1370.75 190.088 1370.56 189.735C1368.66 186.083 1366.92 184.343 1363.27 182.438C1362.91 182.255 1362.91 181.751 1363.27 181.562C1366.92 179.657 1368.66 177.917 1370.56 174.265C1370.74 173.912 1371.25 173.912 1371.44 174.265C1373.34 177.917 1375.08 179.657 1378.73 181.562C1379.09 181.745 1379.09 182.255 1378.73 182.438Z" fill="#8D33FF"/>
<path d="M1234.73 135.438C1231.08 137.343 1229.34 139.083 1227.44 142.735C1227.26 143.088 1226.75 143.088 1226.56 142.735C1224.66 139.083 1222.92 137.343 1219.27 135.438C1218.91 135.255 1218.91 134.751 1219.27 134.562C1222.92 132.657 1224.66 130.917 1226.56 127.265C1226.74 126.912 1227.25 126.912 1227.44 127.265C1229.34 130.917 1231.08 132.657 1234.73 134.562C1235.09 134.745 1235.09 135.255 1234.73 135.438Z" fill="#8D33FF"/>
</svg>
