<svg width="156" height="36" viewBox="0 0 156 36" fill="none" xmlns="http://www.w3.org/2000/svg">
<path d="M1.78659 26.3639L3.71934 26.0558V8.21286L1.5625 7.93275L1.67454 6H15.1758L14.8397 11.4061L12.1506 11.3221L11.9826 7.93275H7.80893V15.9719H9.62964L10.0498 14.1232L11.9265 14.1792V19.7254H10.0498L9.60163 17.8206H7.78092V26.3359H11.9826L12.3747 22.6385L15.2038 22.7225L15.4279 28.3527H1.70255L1.78659 26.3639Z" fill="#958B86"/>
<path d="M16.6993 28.3811L16.7833 26.7285L18.2959 26.4204V15.16L16.5312 14.9919V13.3113L20.957 12.667L21.2931 13.6194V14.2636C22.3575 13.1432 23.646 12.4709 25.2987 12.4709C27.7076 12.4709 29.5003 13.9275 29.5003 16.8126V26.3924L31.0969 26.7005L31.0129 28.3531H25.7468V17.653C25.7468 16.1124 25.1866 15.244 23.7861 15.244C23.3099 15.244 22.9738 15.3281 22.6096 15.4681C22.3855 15.6642 22.1614 15.9443 21.9654 16.1964V26.4484L23.562 26.7565L23.4499 28.4092H16.6993V28.3811Z" fill="#958B86"/>
<path d="M101.305 28.3811L101.361 26.7285L102.874 26.4204V15.16L101.109 14.9919V13.3113L105.535 12.667L105.871 13.6194V14.2636C106.936 13.1432 108.224 12.4709 109.877 12.4709C112.286 12.4709 114.078 13.9275 114.078 16.8126V26.3924L115.675 26.7005L115.591 28.3531H110.353V17.653C110.353 16.1124 109.793 15.244 108.392 15.244C107.916 15.244 107.58 15.3281 107.216 15.4681C106.992 15.6642 106.768 15.9443 106.572 16.1964V26.4484L108.168 26.7565L108.056 28.4092H101.305V28.3811Z" fill="#958B86"/>
<path d="M39.434 28.073C38.8177 28.3251 37.7253 28.6052 36.2967 28.6052C34.42 28.6052 32.6833 27.7649 32.6833 25.0198V15.1599L30.8906 14.8798L30.9747 12.9191L32.9914 12.835L33.8598 9.83787L36.4368 9.72583V12.9471H39.2099L39.0138 14.9078L36.4648 15.188V25.0478C36.4648 25.8601 36.913 26.3923 37.7533 26.3923H39.2659L39.434 28.073Z" fill="#958B86"/>
<path d="M144.274 28.3793L144.33 26.7547L145.759 26.4186V15.1582L144.078 14.9901V13.3095L148.672 12.6652L148.98 13.7576V14.1218C150.185 13.2254 151.809 12.6372 153.77 12.6372L154.442 13.2254L153.966 17.4831L151.445 17.3991L151.193 15.1302C150.605 15.2142 150.044 15.3823 149.568 15.7184V26.4466L151.165 26.7827L151.053 28.4074H144.274V28.3793Z" fill="#958B86"/>
<path d="M78.3165 28.3793L78.4005 26.7547L79.8291 26.4186V15.1582L78.1484 14.9901V13.3095L82.7422 12.6652L83.0503 13.7576V14.1218C84.2548 13.2254 85.8795 12.6372 87.8402 12.6372L88.5125 13.2254L87.9803 17.4831L85.4593 17.3991L85.2072 15.1302C84.619 15.2142 84.0587 15.3823 83.5826 15.7184V26.4466L85.1792 26.7827L85.0671 28.4074H78.3165V28.3793Z" fill="#958B86"/>
<path d="M40.5509 28.3793L40.6349 26.7547L42.0635 26.4186V15.1582L40.3828 14.9901V13.3095L44.9766 12.6652L45.2847 13.7576V14.1218C46.4892 13.2254 48.1138 12.6372 50.0466 12.6372L50.7188 13.2254L50.2427 17.4831L47.7217 17.3991L47.4696 15.1302C46.8813 15.2142 46.3211 15.3823 45.8449 15.7184V26.4466L47.4416 26.7827L47.3295 28.4074H40.5509V28.3793Z" fill="#958B86"/>
<path d="M55.0667 21.5179C55.0667 24.207 56.2432 26.2798 58.5681 26.2798C59.7726 26.2798 60.7249 26.0277 61.8454 25.4955L62.4896 26.9801C61.3412 27.9044 59.6605 28.6047 57.5597 28.6047C53.4701 28.6047 51.1172 25.0753 51.1172 20.5375C51.1172 16.672 52.8259 12.4424 57.5037 12.4424C61.5933 12.4424 63.1339 16.2239 63.1339 20.4255L62.7417 21.4339L55.0667 21.5179ZM55.0107 19.7252L59.7165 19.5011C59.6325 17.6244 59.2404 14.6552 57.3916 14.6552C56.9435 14.6552 56.6353 14.7393 56.0751 15.0194C55.3188 16.3079 55.0107 18.6328 55.0107 19.7252Z" fill="#958B86"/>
<path d="M120.168 21.5179C120.168 24.207 121.345 26.2798 123.67 26.2798C124.874 26.2798 125.827 26.0277 126.947 25.4955L127.591 26.9801C126.443 27.9044 124.762 28.6047 122.661 28.6047C118.572 28.6047 116.219 25.0753 116.219 20.5375C116.219 16.672 117.927 12.4424 122.605 12.4424C126.695 12.4424 128.235 16.2239 128.235 20.4255L127.843 21.4339L120.168 21.5179ZM120.112 19.7252L124.818 19.5011C124.734 17.6244 124.342 14.6552 122.493 14.6552C122.045 14.6552 121.737 14.7393 121.177 15.0194C120.42 16.3079 120.112 18.6328 120.112 19.7252Z" fill="#958B86"/>
<path d="M92.8245 21.5179C92.8245 24.207 94.001 26.2798 96.3259 26.2798C97.5304 26.2798 98.4827 26.0277 99.6032 25.4955L100.247 26.9801C99.099 27.9044 97.4183 28.6047 95.3175 28.6047C91.2279 28.6047 88.875 25.0753 88.875 20.5375C88.875 16.672 90.5837 12.4424 95.2615 12.4424C99.3511 12.4424 100.892 16.2239 100.892 20.4255L100.5 21.4339L92.8245 21.5179ZM92.7685 19.7252L97.4743 19.5011C97.3903 17.6244 96.9982 14.6552 95.1494 14.6552C94.7013 14.6552 94.3931 14.7393 93.8329 15.0194C93.0766 16.3079 92.7405 18.6328 92.7685 19.7252Z" fill="#958B86"/>
<path d="M138.82 28.3798L138.428 27.0353C137.392 28.0157 136.383 28.6039 134.815 28.6039C132.406 28.6039 130.249 27.3994 130.249 24.0661V14.7665L128.484 14.5984V13.1139L133.582 12.5256L133.975 13.8702V23.618C133.975 25.3266 134.675 26.223 136.047 26.223C136.439 26.223 136.944 26.167 137.392 25.9989C137.644 25.7468 137.896 25.4387 138.092 25.1305V14.7665L136.271 14.5984V13.1139L141.425 12.5256L141.818 13.8702V26.4191L143.414 26.7272L143.218 28.3798H138.82Z" fill="#958B86"/>
<path d="M70.779 26.3644C69.9667 26.3644 69.3225 26.2243 68.8183 25.9442V16.0563C69.0424 15.7202 69.2945 15.4121 69.5465 15.132C70.0227 14.9639 70.4429 14.9079 70.9471 14.9079C73.0479 14.9079 73.4121 17.0367 73.4121 20.8462C73.4121 24.5156 72.8518 25.524 72.7118 25.9442C72.1236 26.2243 71.5073 26.3644 70.779 26.3644ZM77.0535 20.174C77.0535 15.4401 75.6529 12.4709 72.1516 12.4709C69.8267 12.4709 68.7342 13.8155 68.2861 14.3757V13.8435L67.8939 12.499L63.3281 13.1432V14.7678L65.0928 14.9919V34.0954L63.5802 34.4035L63.4962 36.0001H70.2468L70.3589 34.4035L68.7622 34.0954V28.045C69.4065 28.4092 70.3028 28.6333 71.2832 28.6333C76.9975 28.6333 77.0535 22.835 77.0535 20.174Z" fill="#958B86"/>
</svg>
