<svg width="200" height="36" viewBox="0 0 200 36" fill="none" xmlns="http://www.w3.org/2000/svg">
<path d="M141.283 18.5721V27.6144H135.445V11.5901H140.939V14.6805H141.054C141.512 13.5359 142.084 12.8491 143 12.2769C143.915 11.7046 144.945 11.3612 146.204 11.3612C147.349 11.3612 148.379 11.5901 149.18 12.0479C149.982 12.5058 150.668 13.307 151.126 14.2227C151.584 15.1383 151.813 16.1685 151.813 17.3131V27.6144H145.861V18.5721C145.861 17.7709 145.632 17.1986 145.289 16.6263C144.831 16.2829 144.373 16.054 143.572 16.054C143.114 16.054 142.656 16.1685 142.313 16.3974C141.969 16.6263 141.741 16.8552 141.512 17.1986C141.283 17.6564 141.283 17.9998 141.283 18.5721ZM170.126 20.9757V19.6022C170.126 18.3432 169.898 17.1986 169.554 16.1685C169.211 15.1383 168.638 14.2227 167.952 13.5359C167.265 12.8491 166.464 12.2769 165.434 11.9335C164.518 11.5901 163.259 11.3612 162.114 11.3612C160.397 11.3612 159.024 11.7046 157.765 12.3913C156.506 13.0781 155.59 14.1082 154.903 15.3672C154.217 16.6263 153.873 18.1143 153.873 19.7167C153.873 21.4336 154.217 22.9216 154.903 24.1806C155.59 25.4397 156.506 26.3553 157.765 27.0421C159.024 27.7288 160.512 28.0722 162.229 28.0722C163.717 28.0722 164.976 27.8433 166.12 27.3855C167.265 26.9276 168.066 26.2409 168.867 25.4397C169.554 24.6384 170.012 23.7228 170.241 22.4637H164.976C164.861 22.8071 164.632 23.036 164.518 23.2649C164.289 23.4938 164.06 23.6083 163.602 23.7228C163.259 23.8372 162.916 23.8372 162.458 23.8372C161.885 23.8372 161.428 23.7228 160.97 23.4938C160.512 23.2649 160.283 23.036 160.054 22.5782C159.825 22.1203 159.711 21.6625 159.711 21.2047V20.9757H170.126ZM160.054 16.6263C160.283 16.2829 160.512 15.9395 160.97 15.8251C161.313 15.5962 161.771 15.4817 162.343 15.4817C162.801 15.4817 163.259 15.5962 163.717 15.8251C164.06 16.054 164.403 16.2829 164.632 16.6263C164.861 16.9697 164.976 17.3131 164.976 17.8854H159.825C159.711 17.3131 159.825 16.8552 160.054 16.6263ZM177.337 11.5901L179.741 16.6263L182.145 11.5901H187.868L183.518 19.6022L188.097 27.6144H182.374L179.741 22.5782L177.108 27.7288H171.271L175.849 19.7167L171.614 11.7046C171.5 11.5901 177.337 11.5901 177.337 11.5901ZM198.97 23.2649C198.856 23.2649 198.627 23.3794 198.512 23.3794C198.283 23.3794 198.054 23.4938 197.94 23.4938C197.711 23.4938 197.482 23.4938 197.368 23.3794C197.253 23.2649 197.024 23.1505 197.024 23.036C196.91 22.9216 196.91 22.6926 196.91 22.4637V15.7106H199.657V11.5901H196.91V7.69849H191.072V11.5901H189.012V15.7106H191.072V22.9216C191.072 24.0661 191.301 24.9818 191.759 25.6686C192.217 26.3553 192.904 27.0421 193.819 27.271C194.735 27.6144 195.88 27.7288 197.139 27.7288C197.826 27.7288 198.398 27.6144 198.856 27.4999C199.314 27.3855 199.771 27.271 200 27.1565L198.97 23.2649Z" fill="#958B86"/>
<g clip-path="url(#clip0_3722_186064)">
<path d="M12.3523 24.0563C11.3015 25.5955 9.55507 26.5057 7.66067 26.5057C5.00407 26.5057 2.62127 24.5447 2.05887 21.8141V21.7475H15.2161C15.2827 21.1851 15.2827 20.6301 15.2827 20.6301V20.5561C15.2827 16.2863 11.9231 12.7861 7.79387 12.7861C3.53147 12.8527 0.171875 16.3529 0.171875 20.6227C0.171875 24.8925 3.53147 28.3927 7.66067 28.3927C10.4579 28.3927 13.0479 26.7795 14.3133 24.1895L14.5205 23.8417H12.4929C12.4189 23.9157 12.3523 23.9897 12.3523 24.0563ZM1.99227 19.8531C2.34007 16.9153 4.78947 14.6731 7.66067 14.6731C10.5319 14.6731 12.9813 16.9153 13.3291 19.8531V19.9197H1.99227V19.8531ZM23.6225 28.3261C22.7789 28.3261 22.0093 28.1855 21.2397 27.9043C20.4701 27.6231 19.8411 27.2013 19.2787 26.6463C18.7163 26.0839 18.3019 25.4549 18.0207 24.6853C17.7395 23.9157 17.5989 23.0721 17.5989 22.1619V13.1339H19.3453V22.0213C19.3453 22.7243 19.4119 23.3533 19.6265 23.9823C19.8337 24.5447 20.1889 25.0331 20.5367 25.4549C20.9585 25.8767 21.3803 26.1579 21.8687 26.3651C22.4311 26.5723 22.9861 26.7129 23.5485 26.7129C24.1109 26.7129 24.6659 26.5723 25.2283 26.3651C25.7907 26.1579 26.2051 25.8027 26.6269 25.4549C27.0487 25.0331 27.3299 24.5447 27.5371 23.9823C27.7443 23.4199 27.8849 22.7243 27.8849 22.0213V13.1339H29.6313V22.1619C29.6313 23.0721 29.4241 23.9083 29.1429 24.6853C28.8617 25.4623 28.3733 26.0839 27.8109 26.6463C27.2485 27.2087 26.6195 27.6231 25.8499 27.9043C25.2283 28.1855 24.4587 28.3261 23.6225 28.3261ZM32.1621 27.9783V19.4387C32.1621 18.8097 32.2287 18.1807 32.3693 17.6183C32.5765 16.7747 32.9317 16.0791 33.3461 15.4501C33.9085 14.6805 34.6781 14.0515 35.6549 13.6297C36.7723 13.1413 38.1043 12.8601 39.6435 12.8601H39.9247V14.6805H39.6435C38.5261 14.6805 37.5419 14.8211 36.7723 15.1023C36.0693 15.3835 35.5143 15.7313 35.0925 16.2197C34.7447 16.6415 34.4635 17.1299 34.2489 17.6923C34.1083 18.1807 34.0417 18.7431 34.0417 19.3721V27.9117H32.1547V27.9783H32.1621ZM67.8597 27.9783V20.1343C67.8597 19.5053 67.7931 18.9429 67.5785 18.4545C67.3713 17.9661 67.1567 17.5443 66.8089 17.1965C66.5277 16.8487 66.1059 16.6341 65.6915 16.4269C65.2771 16.2197 64.7813 16.1457 64.2929 16.1457C63.8045 16.1457 63.3161 16.2123 62.8943 16.4269C62.4725 16.6415 62.1247 16.8487 61.7769 17.1965C61.4291 17.5443 61.1479 17.9661 61.0073 18.4545C60.8001 18.9429 60.6595 19.5053 60.6595 20.1343V27.9043H57.2259V19.9937C57.2259 18.9429 57.4331 18.0327 57.7883 17.1225C58.1361 16.2123 58.6319 15.5093 59.2609 14.8137C59.8899 14.1847 60.6595 13.6963 61.5031 13.3411C62.3319 12.9933 63.2421 12.8527 64.2189 12.7861C65.1957 12.7861 66.1059 12.9933 66.9495 13.2745C67.7931 13.6223 68.5627 14.1181 69.1917 14.7471C69.8207 15.3761 70.3091 16.1457 70.6643 17.0559C71.0121 17.9661 71.1527 18.9429 71.1527 19.9271V27.9043L67.8597 27.9783ZM80.4619 28.3261C76.3327 28.3261 72.9731 24.8259 72.9731 20.6227C72.9731 16.4195 76.3327 12.8527 80.4619 12.8527C84.5911 12.8527 87.9507 16.3529 87.9507 20.6227C87.9507 21.0445 87.8841 21.3923 87.8841 21.8141V21.9547H76.1255L76.1921 22.0953C76.8211 23.9823 78.5009 25.2477 80.4619 25.2477C81.5127 25.2477 82.4895 24.8999 83.3331 24.1969C83.3331 24.1969 83.5403 23.9897 83.6143 23.9897H87.2551L87.1885 24.1969C85.8491 26.7129 83.3331 28.3261 80.4619 28.3261ZM80.4619 15.9385C78.5009 15.9385 76.8211 17.1965 76.1921 19.0909L76.1255 19.2315H84.8057L84.7391 19.0909C84.1693 17.1965 82.4229 15.9385 80.4619 15.9385ZM89.1421 13.2079V13.1339H92.8495C93.2713 16.7007 94.4627 22.3765 95.5061 24.8925C96.5569 22.3691 97.8149 16.7007 98.3033 13.1339H101.382C101.87 16.7007 103.061 22.0953 104.179 24.8925C105.156 22.0953 106.347 16.7007 106.835 13.1339H110.543V13.2005C109.699 18.8023 108.093 24.4707 106.695 27.8969H102.077C101.308 26.0099 100.397 23.2053 99.9091 20.6153C99.4873 23.1387 98.4365 26.2171 97.7409 27.8969H93.1233C91.4509 24.1969 89.6305 17.9661 89.1421 13.2079ZM112.03 27.2753V24.4781H112.171C113.014 24.7593 114.827 25.1071 116.093 25.1071H116.862C118.054 25.1071 118.964 24.7593 118.964 23.4939C118.964 22.5837 118.194 22.2359 117.284 21.9547L114.975 21.3257C113.296 20.9039 111.964 19.7125 111.964 17.1965C111.964 14.2587 114.413 12.9933 117.351 12.9933H118.12C119.031 12.9933 120.851 13.2005 121.687 13.5557V16.3529H121.547C120.777 16.1457 118.957 15.9311 118.113 15.9311H117.41C116.359 15.9311 115.449 16.1383 115.449 17.1891C115.449 18.0327 116.078 18.3805 116.848 18.5211L119.156 19.1501C121.325 19.7125 122.516 21.0371 122.516 23.4199C122.516 26.7129 120.133 27.8969 116.914 27.8969H116.145C114.975 27.9783 113.081 27.6971 112.03 27.2753ZM127.711 21.7475C129.457 21.7475 130.863 23.1461 130.863 24.8999C130.863 26.6537 129.465 28.0523 127.711 28.0523C125.964 28.0523 124.558 26.6537 124.558 24.8999C124.558 23.1461 126.031 21.7475 127.711 21.7475ZM48.0499 12.8527C43.8467 12.8527 40.4871 16.3529 40.4871 20.6227C40.4871 24.8925 43.8467 28.3927 48.0499 28.3927C52.2531 28.3927 55.6127 24.8925 55.6127 20.6227C55.6127 16.3529 52.1791 12.8527 48.0499 12.8527ZM48.0499 26.2985C45.1787 26.2985 42.8033 23.7751 42.8033 20.6967C42.8033 17.6183 45.1861 15.0949 48.0499 15.0949C50.9211 15.0949 53.2965 17.6183 53.2965 20.6967C53.3039 23.7085 50.9951 26.2985 48.0499 26.2985Z" fill="#958B86"/>
<path d="M12.3523 24.0563C11.3015 25.5955 9.55507 26.5057 7.66067 26.5057C5.00407 26.5057 2.62127 24.5447 2.05887 21.8141V21.7475H15.2161C15.2827 21.1851 15.2827 20.6301 15.2827 20.6301V20.5561C15.2827 16.2863 11.9231 12.7861 7.79387 12.7861C3.53147 12.8527 0.171875 16.3529 0.171875 20.6227C0.171875 24.8925 3.53147 28.3927 7.66067 28.3927C10.4579 28.3927 13.0479 26.7795 14.3133 24.1895L14.5205 23.8417H12.4929C12.4189 23.9157 12.3523 23.9897 12.3523 24.0563ZM1.99227 19.8531C2.34007 16.9153 4.78947 14.6731 7.66067 14.6731C10.5319 14.6731 12.9813 16.9153 13.3291 19.8531V19.9197H1.99227V19.8531ZM23.6225 28.3261C22.7789 28.3261 22.0093 28.1855 21.2397 27.9043C20.4701 27.6231 19.8411 27.2013 19.2787 26.6463C18.7163 26.0839 18.3019 25.4549 18.0207 24.6853C17.7395 23.9157 17.5989 23.0721 17.5989 22.1619V13.1339H19.3453V22.0213C19.3453 22.7243 19.4119 23.3533 19.6265 23.9823C19.8337 24.5447 20.1889 25.0331 20.5367 25.4549C20.9585 25.8767 21.3803 26.1579 21.8687 26.3651C22.4311 26.5723 22.9861 26.7129 23.5485 26.7129C24.1109 26.7129 24.6659 26.5723 25.2283 26.3651C25.7907 26.1579 26.2051 25.8027 26.6269 25.4549C27.0487 25.0331 27.3299 24.5447 27.5371 23.9823C27.7443 23.4199 27.8849 22.7243 27.8849 22.0213V13.1339H29.6313V22.1619C29.6313 23.0721 29.4241 23.9083 29.1429 24.6853C28.8617 25.4623 28.3733 26.0839 27.8109 26.6463C27.2485 27.2087 26.6195 27.6231 25.8499 27.9043C25.2283 28.1855 24.4587 28.3261 23.6225 28.3261ZM32.1621 27.9783V19.4387C32.1621 18.8097 32.2287 18.1807 32.3693 17.6183C32.5765 16.7747 32.9317 16.0791 33.3461 15.4501C33.9085 14.6805 34.6781 14.0515 35.6549 13.6297C36.7723 13.1413 38.1043 12.8601 39.6435 12.8601H39.9247V14.6805H39.6435C38.5261 14.6805 37.5419 14.8211 36.7723 15.1023C36.0693 15.3835 35.5143 15.7313 35.0925 16.2197C34.7447 16.6415 34.4635 17.1299 34.2489 17.6923C34.1083 18.1807 34.0417 18.7431 34.0417 19.3721V27.9117H32.1547V27.9783H32.1621ZM67.8597 27.9783V20.1343C67.8597 19.5053 67.7931 18.9429 67.5785 18.4545C67.3713 17.9661 67.1567 17.5443 66.8089 17.1965C66.5277 16.8487 66.1059 16.6341 65.6915 16.4269C65.2771 16.2197 64.7813 16.1457 64.2929 16.1457C63.8045 16.1457 63.3161 16.2123 62.8943 16.4269C62.4725 16.6415 62.1247 16.8487 61.7769 17.1965C61.4291 17.5443 61.1479 17.9661 61.0073 18.4545C60.8001 18.9429 60.6595 19.5053 60.6595 20.1343V27.9043H57.2259V19.9937C57.2259 18.9429 57.4331 18.0327 57.7883 17.1225C58.1361 16.2123 58.6319 15.5093 59.2609 14.8137C59.8899 14.1847 60.6595 13.6963 61.5031 13.3411C62.3319 12.9933 63.2421 12.8527 64.2189 12.7861C65.1957 12.7861 66.1059 12.9933 66.9495 13.2745C67.7931 13.6223 68.5627 14.1181 69.1917 14.7471C69.8207 15.3761 70.3091 16.1457 70.6643 17.0559C71.0121 17.9661 71.1527 18.9429 71.1527 19.9271V27.9043L67.8597 27.9783ZM80.4619 28.3261C76.3327 28.3261 72.9731 24.8259 72.9731 20.6227C72.9731 16.3529 76.3327 12.8527 80.4619 12.8527C84.5911 12.8527 87.9507 16.3529 87.9507 20.6227C87.9507 21.0445 87.8841 21.3923 87.8841 21.8141V21.9547H76.1255L76.1921 22.0953C76.8211 23.9823 78.5009 25.2477 80.4619 25.2477C81.5127 25.2477 82.4895 24.8999 83.3331 24.1969C83.3331 24.1969 83.5403 23.9897 83.6143 23.9897H87.2551L87.1885 24.1969C85.8491 26.7129 83.3331 28.3261 80.4619 28.3261ZM80.4619 15.9385C78.5009 15.9385 76.8211 17.1965 76.1921 19.0909L76.1255 19.2315H84.8057L84.7391 19.0909C84.1693 17.1965 82.4229 15.9385 80.4619 15.9385ZM89.1421 13.2079V13.1339H92.8495C93.2713 16.7007 94.4627 22.3765 95.5061 24.8925C96.5569 22.3691 97.8149 16.7007 98.3033 13.1339H101.382C101.87 16.7007 103.061 22.0953 104.179 24.8925C105.156 22.0953 106.347 16.7007 106.835 13.1339H110.543V13.2005C109.699 18.8023 108.093 24.4707 106.695 27.8969H102.077C101.308 26.0099 100.397 23.2053 99.9091 20.6153C99.4873 23.1387 98.4365 26.2171 97.7409 27.8969H93.1233C91.4509 24.1969 89.6305 17.9661 89.1421 13.2079ZM112.03 27.2753V24.4781H112.171C113.014 24.7593 114.827 25.1071 116.093 25.1071H116.862C118.054 25.1071 118.964 24.7593 118.964 23.4939C118.964 22.5837 118.194 22.2359 117.284 21.9547L114.975 21.3257C113.296 20.9039 111.964 19.7125 111.964 17.1965C111.964 14.2587 114.413 12.9933 117.351 12.9933H118.12C119.031 12.9933 120.851 13.2005 121.687 13.5557V16.3529H121.547C120.777 16.1457 118.957 15.9311 118.113 15.9311H117.41C116.359 15.9311 115.449 16.1383 115.449 17.1891C115.449 18.0327 116.078 18.3805 116.848 18.5211L119.156 19.1501C121.325 19.7125 122.516 21.0371 122.516 23.4199C122.516 26.7129 120.133 27.8969 116.914 27.8969H116.145C114.975 27.9783 113.081 27.6971 112.03 27.2753ZM127.711 21.7475C129.457 21.7475 130.863 23.1461 130.863 24.8999C130.863 26.6537 129.465 28.0523 127.711 28.0523C125.964 28.0523 124.558 26.6537 124.558 24.8999C124.558 23.1461 126.031 21.7475 127.711 21.7475ZM48.0499 12.8527C43.8467 12.8527 40.4871 16.3529 40.4871 20.6227C40.4871 24.8925 43.8467 28.3927 48.0499 28.3927C52.2531 28.3927 55.6127 24.8925 55.6127 20.6227C55.6127 16.3529 52.1791 12.8527 48.0499 12.8527ZM48.0499 26.2985C45.1787 26.2985 42.8033 23.7751 42.8033 20.6967C42.8033 17.6183 45.1861 15.0949 48.0499 15.0949C50.9211 15.0949 53.2965 17.6183 53.2965 20.6967C53.3039 23.7085 50.9951 26.2985 48.0499 26.2985Z" fill="#958B86"/>
</g>
<defs>
<clipPath id="clip0_3722_186064">
<rect width="132.803" height="20.7866" fill="white" transform="translate(0.101562 7.60669)"/>
</clipPath>
</defs>
</svg>
