<svg width="102" height="36" viewBox="0 0 102 36" fill="none" xmlns="http://www.w3.org/2000/svg">
<path d="M57.194 13.8235C57.194 11.0225 57.2423 8.41465 57.3872 6L49.9983 7.4005V8.0766L50.7227 8.17319C51.254 8.22148 51.592 8.41465 51.7852 8.70441C51.9784 9.04246 52.1232 9.52539 52.2198 10.2498C52.3164 11.6503 52.413 14.8376 52.3647 19.8601C52.3647 24.8343 52.3164 27.9733 52.2198 29.1806C54.8759 29.7602 56.9525 30.0016 58.4979 30.0016C61.3955 30.0016 63.6653 29.1806 65.3072 27.4904C66.9492 25.8484 67.8185 23.5304 67.8185 20.6811C67.8185 18.4113 67.1907 16.5279 65.935 15.0308C64.6794 13.5337 63.0858 12.8093 61.2023 12.8093C59.9467 12.8093 58.6428 13.1474 57.194 13.8235ZM57.3389 28.6977C57.2423 27.1523 57.1457 22.5162 57.1457 14.9342C57.5803 14.7893 58.1599 14.6927 58.8843 14.6927C60.0433 14.6927 60.9609 15.2723 61.637 16.4796C62.3131 17.6869 62.6511 19.1357 62.6511 20.9708C62.6511 23.2406 62.2648 25.0757 61.4921 26.6211C60.7194 28.1182 59.7535 28.8909 58.5462 28.8909C58.1599 28.7943 57.7735 28.746 57.3389 28.6977ZM22.2781 6.48293H2.96094V7.44879L3.97509 7.54538C4.74778 7.69026 5.279 7.98001 5.61705 8.41465C5.95511 8.89758 6.14828 9.67027 6.19657 10.7327C6.58291 15.9484 6.58291 20.826 6.19657 25.3172C6.09998 26.3797 5.90681 27.1523 5.61705 27.6353C5.279 28.1182 4.74778 28.408 3.97509 28.5045L2.96094 28.6494V29.6153H15.4205V28.6494L14.1166 28.5528C13.3439 28.4563 12.8127 28.1182 12.4747 27.6836C12.1366 27.2006 11.9434 26.4279 11.8951 25.3655C11.7503 23.4338 11.6537 21.2123 11.6537 18.7494L14.2615 18.7976C15.662 18.8459 16.6279 19.9084 17.1108 22.0333H18.0767V14.1615H17.1108C16.6279 16.2381 15.7103 17.3006 14.2615 17.3489L11.6537 17.3972C11.6537 13.0508 11.7503 9.96003 11.8951 8.0766H15.7103C18.4147 8.0766 20.2498 9.81515 21.3123 13.2922L22.4713 12.9542L22.2781 6.48293ZM20.0084 21.3572C20.0084 23.8684 20.7328 25.945 22.1333 27.587C23.5338 29.2289 25.6104 30.0016 28.2182 30.0016C30.826 30.0016 32.9509 29.1806 34.4963 27.4904C36.0417 25.8484 36.7661 23.7718 36.7661 21.2606C36.7661 18.7494 36.0417 16.6728 34.6412 15.0308C33.2407 13.3888 31.1641 12.6161 28.5562 12.6161C25.9484 12.6161 23.8235 13.4371 22.2781 15.1274C20.7328 16.7693 20.0084 18.8459 20.0084 21.3572ZM30.7777 15.8518C31.3572 17.2523 31.5987 19.0874 31.5987 21.3089C31.5987 26.4279 30.5363 28.9392 28.4597 28.9392C27.3972 28.9392 26.5762 28.2148 25.9967 26.766C25.4172 25.3172 25.1757 23.4821 25.1757 21.3089C25.1757 16.2381 26.2382 13.7269 28.3148 13.7269C29.3772 13.6786 30.1982 14.403 30.7777 15.8518ZM71.5853 27.587C73.179 29.1806 75.2073 30.0016 77.622 30.0016C79.119 30.0016 80.423 29.7119 81.582 29.0841C82.741 28.5045 83.6586 27.7802 84.2864 26.9109L83.8035 26.3314C82.741 27.1523 81.5337 27.5387 80.1332 27.5387C78.2015 27.5387 76.7044 26.9109 75.6902 25.607C74.6278 24.3031 74.1449 22.6611 74.2414 20.5362H84.5762C84.5762 18.2181 83.9966 16.3347 82.7893 14.8376C81.582 13.3888 79.8917 12.6644 77.7185 12.6644C75.0141 12.6644 72.9375 13.5337 71.4405 15.224C69.9434 16.9142 69.219 18.9908 69.219 21.4538C69.219 23.965 69.9917 25.9933 71.5853 27.587ZM75.159 15.4654C75.6902 14.3064 76.3663 13.7269 77.2839 13.7269C78.7327 13.7269 79.4571 15.562 79.4571 19.2806L74.338 19.3772C74.3863 17.9284 74.6278 16.6245 75.159 15.4654ZM97.567 13.5337C96.2631 12.9542 94.6211 12.6161 92.6411 12.6161C90.6128 12.6161 89.0191 13.1474 87.8118 14.1615C86.6045 15.1757 85.9766 16.4313 85.9766 17.9284C85.9766 19.2323 86.363 20.2464 87.0874 20.9708C87.8118 21.6952 88.9708 22.323 90.4679 22.8543C91.8201 23.3372 92.786 23.8201 93.2689 24.2548C93.7518 24.7377 94.0416 25.2689 94.0416 25.9933C94.0416 26.6694 93.8001 27.2972 93.2689 27.7802C92.786 28.3114 92.1099 28.5528 91.2406 28.5528C89.1157 28.5528 87.522 27.0075 86.4113 23.9167L85.5903 24.1582L85.7835 28.9875C87.522 29.6636 89.4538 30.0016 91.5786 30.0016C93.8001 30.0016 95.4904 29.5187 96.746 28.5045C98.0016 27.5387 98.6294 26.1382 98.6294 24.3996C98.6294 23.2406 98.3397 22.2747 97.7119 21.5504C97.084 20.826 96.0699 20.1981 94.6211 19.6186C93.0274 19.0391 91.9167 18.5079 91.3372 18.025C90.7577 17.542 90.4679 16.9625 90.4679 16.2381C90.4679 15.5137 90.6611 14.9342 91.0957 14.4513C91.5303 13.9683 92.0616 13.7752 92.7377 13.7752C94.6694 13.7752 96.0699 15.1757 96.9392 17.9284L97.7602 17.6869L97.567 13.5337ZM51.1091 13.0991C50.433 12.761 49.7086 12.6161 48.8876 12.6161C48.0666 12.6161 47.2456 12.9542 46.3281 13.6303C45.4105 14.3064 44.7344 15.224 44.2032 16.4796L44.2515 12.6161L36.9109 14.0649V14.741L37.6353 14.7893C38.5529 14.8859 39.0841 15.6103 39.1807 16.9142C39.4705 19.9084 39.4705 23.0957 39.1807 26.4762C39.0841 27.7802 38.5529 28.4563 37.6353 28.6011L36.9109 28.6977V29.6153H47.1491V28.6977L45.8451 28.6011C44.9276 28.5045 44.3964 27.7802 44.2998 26.4762C44.01 23.6752 43.9617 20.6811 44.2032 17.5903C44.4929 17.1074 45.1208 16.8176 46.0866 16.7211C47.0525 16.6245 48.1632 16.9142 49.3222 17.5903L51.1091 13.0991Z" fill="#958B86"/>
</svg>
