<svg width="190" height="36" viewBox="0 0 190 36" fill="none" xmlns="http://www.w3.org/2000/svg">
<path d="M2.3869 14.5996V9.78038H4.61418V3H21.3582V9.73111H23.6643V14.5503H26.0197V16.886L28.3751 17.0141V19.4089L26.0295 19.5173V21.8136H23.6446V14.5996H21.4173V9.80995H16.539V7.59253H14.0653V19.3202H11.907V7.60238H9.41366V9.77053H4.6536V14.57H2.36719L2.3869 14.5897V14.5996Z" fill="#958B86"/>
<path d="M63.1346 24.6611H60.4934V19.5463H52.7571V24.6119H50.0469V11.3665H63.1444V24.6611H63.1346ZM52.7866 16.5404H60.3653V14.1555H52.7866V16.5404Z" fill="#958B86"/>
<path d="M113.055 11.3665H126.064V19.4674H123.649V21.8721H126.054V24.6316H123.373V22.1283L120.87 22.0101V19.566H115.725V24.6611H113.055V11.3665ZM123.304 14.1752H115.804V16.5503H123.304V14.1752Z" fill="#958B86"/>
<path d="M144.508 24.631V11.3757H157.684V24.631H144.508ZM154.935 14.1549H147.307V21.8518H154.935V14.1549Z" fill="#958B86"/>
<path d="M160.289 11.3352H173.308V24.6496H160.289V11.3352ZM163.029 14.1538V21.8507H170.548V14.1538H163.029Z" fill="#958B86"/>
<path d="M97.2812 11.3481H110.389V14.0583H100.08V16.6108H105.185V19.4294H100.07V21.9031H110.399V24.633H97.2812V11.3481Z" fill="#958B86"/>
<path d="M128.79 11.3665H141.907V24.6414H139.108V14.2048H131.402V24.6316H128.82C128.761 24.3655 128.632 24.0403 128.632 23.7249C128.623 19.9109 128.623 16.1068 128.632 12.2928C128.632 11.9873 128.731 11.6818 128.79 11.3665Z" fill="#958B86"/>
<path d="M34.3359 11.3481H36.9574V16.532H44.7135V11.358H47.4039V24.6133H44.743V19.5181H36.9673V24.6428H34.3359V11.3481Z" fill="#958B86"/>
<path d="M175.938 11.3665H189.074V24.6217H186.423V14.1752H178.667V24.6414H175.938V11.3665Z" fill="#958B86"/>
<path d="M78.82 21.882V24.6513H65.7422V11.3665H78.7905V14.0766H68.4918V21.882H78.82Z" fill="#958B86"/>
<path d="M4.64062 26.6927H9.41055V28.9002H16.4964L16.6147 26.6335H21.3452V33H4.66034C4.66034 30.891 4.66034 28.782 4.66034 26.673L4.64062 26.6927Z" fill="#958B86"/>
<path d="M89.3077 19.5471H84.114V24.6324H81.4531V11.387H84.0845V16.5018H89.288V14.0282L91.9391 13.8705V11.387H94.6295V14.0676H92.0869V16.8073H89.564V19.2514H92.0179V21.8335L94.6197 21.9517V24.6225H91.9785V22.1587L89.2979 21.9813V19.5372L89.3077 19.5471Z" fill="#958B86"/>
<path d="M2.36525 14.5689V21.7731L4.6418 21.8815C4.6418 23.5175 4.6418 25.1042 4.6418 26.681L4.66151 26.6613C3.93223 26.612 3.20294 26.5627 2.38496 26.5036V21.9111L0 21.8027V14.5788C0.788417 14.5788 1.59654 14.5788 2.39482 14.5788L2.37511 14.5591L2.36525 14.5689Z" fill="#958B86"/>
<path d="M23.5683 26.5328H21.4297V21.9009H23.5683V26.5328Z" fill="#958B86"/>
<path d="M52.7891 16.5417V14.1567H60.3677V16.5417H52.7891Z" fill="#FEF8F5"/>
<path d="M123.297 14.175V16.5502H115.797V14.175H123.297Z" fill="#FEF8F5"/>
<path d="M154.933 14.1567V21.8537H147.305V14.1567H154.933Z" fill="#FEF8F5"/>
<path d="M163.031 14.1567H170.551V21.8537H163.031V14.1567Z" fill="#FEF8F5"/>
</svg>
