<svg width="160" height="48" viewBox="0 0 160 48" fill="none" xmlns="http://www.w3.org/2000/svg"><g clip-path="url(#a)"><rect width="160" height="48" rx="8" fill="#000"/><path d="m24.947 23.309-12.634 13.56.002.008a3.417 3.417 0 0 0 3.297 2.557c.63 0 1.223-.173 1.731-.474l.04-.026 14.222-8.298-6.658-7.327Z" fill="#EB3131"/><path d="m37.729 21.002-.013-.008-6.14-3.6-6.916 6.224 6.941 7.019 6.108-3.565a3.457 3.457 0 0 0 1.798-3.043 3.45 3.45 0 0 0-1.778-3.027Z" fill="#F6B60B"/><path d="M12.312 11.136c-.077.284-.117.58-.117.889v23.958c0 .309.04.605.117.888L25.38 23.66 12.312 11.137Z" fill="#4285F4"/><path d="m25.039 24 6.539-6.61-14.205-8.328a3.384 3.384 0 0 0-1.764-.494c-1.577 0-2.91 1.086-3.296 2.56v.003L25.038 24Z" fill="#34A853"/><path d="M56.634 12.293c0 1.005-.295 1.806-.883 2.403-.67.71-1.543 1.066-2.615 1.066-1.027 0-1.903-.359-2.62-1.081-.719-.72-1.078-1.613-1.078-2.68 0-1.066.36-1.959 1.079-2.679.719-.72 1.592-1.08 2.62-1.08.51 0 .996.1 1.46.3.464.201.836.47 1.114.806l-.625.632c-.471-.57-1.121-.856-1.95-.856-.749 0-1.396.266-1.945.8-.548.535-.82 1.225-.82 2.078 0 .85.272 1.542.82 2.076.549.535 1.196.8 1.945.8.797 0 1.459-.268 1.99-.805.345-.348.543-.835.598-1.457h-2.585v-.865h3.45c.028.185.045.366.045.542ZM62.105 9.285h-3.242v2.283h2.922v.865h-2.924v2.283h3.242v.886h-4.158v-7.2h4.158v.883M65.96 15.602h-.916V9.288h-1.99v-.886h4.893v.886h-1.99l.003 6.314ZM71.492 15.602v-7.2h.916v7.2h-.916ZM76.463 15.602h-.915V9.288h-1.99v-.886h4.893v.886h-1.99l.002 6.314ZM83.17 14.066c.528.54 1.17.81 1.934.81.762 0 1.41-.268 1.935-.81.529-.54.792-1.23.792-2.067 0-.838-.266-1.528-.792-2.067a2.6 2.6 0 0 0-1.935-.81c-.761 0-1.406.268-1.935.81-.525.54-.79 1.23-.79 2.067 0 .838.264 1.528.79 2.067Zm4.547.604c-.7.728-1.57 1.092-2.613 1.092-1.039 0-1.91-.364-2.61-1.091-.699-.728-1.049-1.618-1.049-2.67 0-1.05.35-1.941 1.05-2.669.7-.727 1.57-1.09 2.61-1.09 1.034 0 1.902.365 2.607 1.095.702.73 1.054 1.618 1.054 2.665-.003 1.05-.352 1.941-1.05 2.668ZM90.047 15.6V8.4h1.114L94.62 14h.04l-.04-1.387V8.402h.916v7.2h-.955l-3.62-5.873h-.04l.04 1.387v4.486l-.915-.003ZM127.26 36h2.213V21h-2.213v15Zm19.945-9.597-2.54 6.502h-.077l-2.635-6.505h-2.386l3.954 9.091-2.252 5.057h2.309l6.088-14.145h-2.461Zm-12.56 7.892c-.724 0-1.736-.367-1.736-1.275 0-1.159 1.26-1.603 2.346-1.603.973 0 1.432.214 2.022.502-.169 1.392-1.352 2.376-2.632 2.376Zm.268-8.22c-1.603 0-3.265.714-3.952 2.297l1.967.83c.42-.83 1.204-1.098 2.022-1.098 1.146 0 2.31.695 2.33 1.929v.155c-.402-.23-1.261-.58-2.31-.58-2.118 0-4.274 1.177-4.274 3.377 0 2.007 1.736 3.301 3.684 3.301 1.488 0 2.309-.674 2.825-1.467h.077v1.159h2.138v-5.752c-.002-2.667-1.969-4.152-4.507-4.152Zm-13.684 2.154h-3.148v-5.142h3.148c1.655 0 2.595 1.387 2.595 2.571 0 1.161-.94 2.571-2.595 2.571Zm-.057-7.232h-5.306v15.001h2.215v-5.684h3.091c2.456 0 4.867-1.796 4.867-4.659 0-2.862-2.413-4.658-4.867-4.658ZM92.24 34.3c-1.529 0-2.811-1.295-2.811-3.073 0-1.799 1.28-3.113 2.81-3.113 1.511 0 2.697 1.314 2.697 3.113-.002 1.776-1.188 3.073-2.697 3.073Zm2.542-7.057h-.077c-.496-.6-1.453-1.141-2.656-1.141-2.523 0-4.838 2.242-4.838 5.122 0 2.863 2.315 5.085 4.838 5.085 1.205 0 2.16-.542 2.656-1.159h.077v.735c0 1.952-1.032 2.998-2.696 2.998-1.357 0-2.198-.986-2.543-1.816l-1.93.812c.556 1.352 2.027 3.016 4.473 3.016 2.6 0 4.797-1.546 4.797-5.316v-9.163H94.78v.827h.002Zm3.632 8.758h2.218V21h-2.218v15Zm5.487-4.95c-.057-1.971 1.511-2.977 2.64-2.977.881 0 1.625.444 1.873 1.083l-4.513 1.894Zm6.882-1.7c-.422-1.142-1.702-3.249-4.321-3.249-2.6 0-4.761 2.07-4.761 5.102 0 2.862 2.141 5.105 5.009 5.105 2.314 0 3.651-1.43 4.204-2.263l-1.721-1.159c-.573.85-1.357 1.413-2.486 1.413-1.129 0-1.93-.522-2.446-1.548l6.748-2.822-.226-.58Zm-53.767-1.684v2.165h5.122c-.153 1.217-.553 2.107-1.166 2.727-.746.755-1.912 1.585-3.956 1.585-3.156 0-5.622-2.571-5.622-5.76 0-3.19 2.466-5.761 5.622-5.761 1.702 0 2.944.677 3.862 1.547l1.511-1.527c-1.28-1.237-2.982-2.185-5.373-2.185-4.322 0-7.953 3.557-7.953 7.927 0 4.37 3.631 7.927 7.953 7.927 2.332 0 4.09-.773 5.467-2.223 1.414-1.43 1.856-3.442 1.856-5.065 0-.501-.037-.965-.114-1.352h-7.21v-.005ZM70.164 34.3c-1.531 0-2.848-1.277-2.848-3.093 0-1.837 1.32-3.093 2.848-3.093 1.528 0 2.847 1.256 2.847 3.093 0 1.816-1.317 3.093-2.847 3.093Zm0-8.198c-2.791 0-5.066 2.145-5.066 5.102 0 2.938 2.275 5.105 5.066 5.105 2.79 0 5.065-2.165 5.065-5.105 0-2.957-2.275-5.102-5.065-5.102ZM81.215 34.3c-1.53 0-2.848-1.277-2.848-3.093 0-1.837 1.32-3.093 2.848-3.093 1.528 0 2.848 1.256 2.848 3.093 0 1.816-1.317 3.093-2.848 3.093Zm0-8.198c-2.79 0-5.065 2.145-5.065 5.102 0 2.938 2.274 5.105 5.065 5.105 2.791 0 5.066-2.165 5.066-5.105 0-2.957-2.275-5.102-5.066-5.102Z" fill="#fff"/></g><defs><clipPath id="a"><path fill="#fff" d="M0 0h160v48H0z"/></clipPath></defs></svg>