<svg width="175" height="175" viewBox="0 0 175 175" fill="none" xmlns="http://www.w3.org/2000/svg">
<circle cx="87.5" cy="87.5" r="87.5" fill="#731DE0"/>
<path d="M3.13108 168.264L21.7723 128.168L51.3498 158.978L7.08996 172.787C4.36669 173.637 1.92843 170.851 3.13108 168.264Z" fill="#731DE0"/>
<path d="M86.9956 54.7955L87 54.7911L87.0044 54.7955C98.901 43.0662 118.184 43.0682 130.078 54.8013C141.974 66.5363 141.974 85.5626 130.078 97.2976C129.93 97.4432 129.782 97.587 129.632 97.729L91.8173 135.032C89.1568 137.656 84.8432 137.656 82.1826 135.032L44.368 97.7288C44.2182 97.5869 44.0696 97.4431 43.922 97.2976C32.026 85.5626 32.026 66.5363 43.922 54.8013C55.8161 43.0682 75.099 43.0662 86.9956 54.7955Z" fill="#FF700B"/>
<path d="M75.0808 112.847C64.0776 108.636 58.1528 98.7847 55.5195 93.0273C55.379 92.7232 55.141 92.4633 54.8355 92.2805C54.5299 92.0976 54.1707 92 53.8032 92C53.4357 92 53.0765 92.0976 52.771 92.2805C52.4655 92.4633 52.2274 92.7232 52.0869 93.0273C49.4419 98.7847 43.4936 108.668 32.5727 112.847C32.2402 112.976 31.957 113.189 31.758 113.46C31.5591 113.731 31.4531 114.048 31.4531 114.373C31.4531 114.697 31.5591 115.015 31.758 115.286C31.957 115.557 32.2402 115.77 32.5727 115.899C43.5641 120.109 49.4889 129.971 52.1104 135.718C52.2509 136.022 52.489 136.282 52.7945 136.465C53.1 136.648 53.4592 136.746 53.8267 136.746C54.1942 136.746 54.5535 136.648 54.859 136.465C55.1645 136.282 55.4026 136.022 55.543 135.718C58.1998 129.971 64.1481 120.099 75.1043 115.889C75.4324 115.756 75.7105 115.541 75.9048 115.27C76.0991 114.999 76.2012 114.683 76.1987 114.361C76.1962 114.038 76.0893 113.724 75.8908 113.455C75.6923 113.186 75.4109 112.975 75.0808 112.847Z" fill="#FFE600"/>
<path d="M151.41 51.8414C144.43 49.1707 140.672 42.9211 139.001 39.2689C138.912 39.076 138.761 38.9111 138.567 38.7951C138.373 38.6791 138.145 38.6172 137.912 38.6172C137.679 38.6172 137.451 38.6791 137.258 38.7951C137.064 38.9111 136.913 39.076 136.824 39.2689C135.146 42.9211 131.372 49.1907 124.445 51.8414C124.234 51.9232 124.054 52.0584 123.928 52.2304C123.802 52.4024 123.734 52.6038 123.734 52.8096C123.734 53.0154 123.802 53.2167 123.928 53.3887C124.054 53.5607 124.234 53.696 124.445 53.7777C131.417 56.4485 135.176 62.7047 136.839 66.3503C136.928 66.5432 137.079 66.708 137.272 66.824C137.466 66.94 137.694 67.002 137.927 67.002C138.16 67.002 138.388 66.94 138.582 66.824C138.776 66.708 138.927 66.5432 139.016 66.3503C140.701 62.7047 144.475 56.4418 151.425 53.7711C151.633 53.6871 151.809 53.5508 151.933 53.3787C152.056 53.2067 152.121 53.0063 152.119 52.8019C152.118 52.5975 152.05 52.3979 151.924 52.2274C151.798 52.0569 151.619 51.9228 151.41 51.8414Z" fill="#FFE600"/>
</svg>
