<svg width="429" height="447" viewBox="0 0 429 447" fill="none" xmlns="http://www.w3.org/2000/svg">
<path d="M190.328 0.464252C242.019 -0.942306 260.509 30.0606 261.096 45.7378H250.986C249.931 27.1009 208.643 30.6467 190.328 34.7492V28.5955L198.68 23.7604H190.328V13.2113L198.68 11.0135L190.328 7.49711V0.464252Z" fill="#FF7700"/>
<path d="M305.646 224.391C294.137 224.391 284.327 215.713 283.195 204.015L275.837 127.7C274.61 115.342 283.761 104.305 296.118 103.079C308.476 101.853 319.513 111.003 320.739 123.361L328.097 199.676C329.324 212.034 320.173 223.071 307.816 224.297C307.155 224.391 306.401 224.391 305.646 224.391Z" fill="#E755FF"/>
<path d="M374.029 140.905L363.945 151.668L380.359 184.401L410.252 174.771V140.905L404.781 134.396L374.029 140.905Z" fill="#FFAA7B"/>
<path d="M295.267 182.13C284.136 187.979 279.796 201.657 285.551 212.789C291.399 223.92 305.078 228.259 316.209 222.505L380.213 189.033L359.838 148.375C359.838 148.375 315.426 171.614 295.267 182.13Z" fill="#E755FF"/>
<path d="M384.179 183.191C385.036 184.906 384.362 186.992 382.662 187.88L375.253 191.752L354.594 151.188L362.171 147.201C363.914 146.283 366.072 146.977 366.953 148.74L384.179 183.191Z" fill="#E22EFF"/>
<path d="M73.1965 283.727H16.125V322.12H73.1965V283.727Z" fill="#FFAA7B"/>
<path d="M263.95 339.508L234.867 322.717L205.765 373.121L234.848 389.912L263.95 339.508Z" fill="#FFAA7B"/>
<path d="M76.6923 242.218C75.5603 240.898 73.485 240.803 72.2586 242.03L58.6747 254.199C56.788 255.897 53.675 255.708 51.8827 253.727C50.1847 251.84 50.3734 248.822 52.26 247.124L61.316 239.106L50.562 248.727C48.6754 250.425 45.6567 250.237 43.9587 248.35C42.2607 246.463 42.4494 243.445 44.336 241.747L55.09 232.125L44.336 241.747C42.4494 243.445 39.4307 243.256 37.7327 241.369C36.0347 239.483 36.2234 236.464 38.1101 234.766L48.8641 225.144L39.5251 233.54C37.6384 235.238 34.6197 235.049 32.9217 233.162C31.2238 231.276 31.4124 228.257 33.2991 226.559L50.279 211.277L50.3734 211.183L51.411 210.24L69.6173 195.335L91.2196 222.692L87.3519 226.182C86.6915 229.295 85.9369 232.785 87.6349 235.427L92.3516 242.973C93.7666 245.331 93.3892 248.35 91.4082 250.142C89.1442 252.218 85.5596 252.029 83.4842 249.671L76.6923 242.218Z" fill="#FFB48F"/>
<path d="M262.338 125.341L236.773 123.831L239.132 103.361L240.075 95.5315C240.264 94.3051 241.301 93.3618 242.528 93.5505L263.47 94.7768C264.79 94.8711 265.734 96.0031 265.639 97.3238L263.658 114.304L262.338 125.341Z" fill="#FFAA7B"/>
<path d="M263.659 114.303L263.47 115.247C258.659 114.775 246.679 113.077 239.227 103.266L240.17 95.4367C240.359 94.2104 241.396 93.2671 242.623 93.4557L263.565 94.6821C264.885 94.7764 265.829 95.9084 265.734 97.2291L263.659 114.303Z" fill="#F3915C"/>
<path d="M288.852 66.2893C291.305 52.894 282.155 40.0647 268.665 38.1781L253.572 36.0084C240.743 34.1218 228.762 42.8004 226.404 55.6297L224.989 63.648C223.951 69.2136 227.819 74.4963 233.385 75.3453L276.118 81.8543C281.494 82.6089 286.494 79.1186 287.532 73.7416L288.852 66.2893Z" fill="#FF7700"/>
<path d="M283.287 72.6088L281.494 84.7777C279.513 98.0787 268.288 107.795 255.27 108.078C253.76 108.078 252.251 107.984 250.742 107.795C235.931 105.625 225.555 91.8527 227.724 77.0424L229.517 64.8735C229.8 62.8925 230.271 61.0058 231.026 59.2135C235.365 47.5162 247.44 40.0639 260.364 41.8562C273.382 43.7428 282.909 54.4968 283.664 67.2318C283.664 68.8355 283.57 70.7221 283.287 72.6088Z" fill="#FFAA7B"/>
<path d="M262.899 92.9435C263.08 92.0249 262.482 91.1336 261.563 90.9526L250.158 88.7059C249.24 88.5249 248.348 89.1229 248.167 90.0415C247.547 93.1909 249.597 96.2469 252.747 96.8673L256.073 97.5226C259.222 98.1431 262.278 96.0929 262.899 92.9435Z" fill="#111111"/>
<path fill-rule="evenodd" clip-rule="evenodd" d="M248.516 93.24C249.208 95.0457 250.785 96.4662 252.822 96.8676L256.149 97.5229C258.293 97.9452 260.394 97.1299 261.712 95.5726C260.417 94.3951 258.22 93.3677 255.622 92.8559C252.781 92.2962 250.15 92.4887 248.516 93.24Z" fill="#DF4300"/>
<path d="M282.719 86.6635C287.669 86.6635 291.681 82.6512 291.681 77.7019C291.681 72.7525 287.669 68.7402 282.719 68.7402C277.77 68.7402 273.758 72.7525 273.758 77.7019C273.758 82.6512 277.77 86.6635 282.719 86.6635Z" fill="#FFAA7B"/>
<path d="M228.563 79.1176C233.513 79.1176 237.525 75.1053 237.525 70.156C237.525 65.2066 233.513 61.1943 228.563 61.1943C223.614 61.1943 219.602 65.2066 219.602 70.156C219.602 75.1053 223.614 79.1176 228.563 79.1176Z" fill="#FFAA7B"/>
<path d="M260.837 72.1376C260.742 70.5339 258.573 70.0623 258.007 71.5716L253.29 82.6086C252.913 83.4576 253.479 84.4952 254.422 84.6839L259.422 85.6272C260.365 85.8159 261.214 85.0612 261.214 84.1179L260.837 72.1376Z" fill="#DF522C"/>
<path d="M269.5 75.6293C268.085 75.3463 266.765 76.2896 266.576 77.7046L266.199 79.5913C265.916 81.0063 266.859 82.3269 268.274 82.5156C269.689 82.7986 271.01 81.8553 271.198 80.4403L271.576 78.5536C271.764 77.233 270.915 75.9123 269.5 75.6293Z" fill="#111111"/>
<path d="M247.336 71.5717C245.921 71.2887 244.6 72.232 244.412 73.647L244.035 75.5337C243.752 76.9487 244.695 78.2694 246.11 78.458C247.525 78.741 248.845 77.7977 249.034 76.3827L249.412 74.496C249.6 73.081 248.751 71.7604 247.336 71.5717Z" fill="#111111"/>
<path d="M276.212 78.2699C275.552 78.2699 275.08 77.7983 274.986 77.138C274.797 75.8173 273.57 72.327 269.892 71.478C269.231 71.2893 268.76 70.629 268.948 69.9686C269.137 69.3083 269.797 68.8367 270.458 69.0253C275.457 70.1573 277.25 74.591 277.533 76.8549C277.627 77.5153 277.155 78.1756 276.495 78.2699C276.306 78.2699 276.212 78.2699 276.212 78.2699Z" fill="#7A310D"/>
<path d="M239.796 71.8559C239.607 71.8559 239.418 71.8558 239.229 71.6672C238.663 71.3842 238.38 70.6295 238.758 69.9692C239.795 67.9882 243.097 64.4979 248.097 65.2525C248.757 65.3469 249.229 66.0072 249.134 66.6675C249.04 67.3279 248.38 67.7995 247.719 67.7052C243.946 67.1392 241.493 69.9692 240.927 71.1012C240.644 71.5728 240.173 71.8559 239.796 71.8559Z" fill="#7A310D"/>
<path d="M236.873 89.9672C240.207 89.9672 242.91 87.2642 242.91 83.9299C242.91 80.5956 240.207 77.8926 236.873 77.8926C233.539 77.8926 230.836 80.5956 230.836 83.9299C230.836 87.2642 233.539 89.9672 236.873 89.9672Z" fill="#FA8A4D"/>
<path d="M272.905 97.0424C276.239 97.0424 278.942 94.3394 278.942 91.0051C278.942 87.6708 276.239 84.9678 272.905 84.9678C269.57 84.9678 266.867 87.6708 266.867 91.0051C266.867 94.3394 269.57 97.0424 272.905 97.0424Z" fill="#FA8A4D"/>
<path d="M283.662 67.1395L230.836 59.1212C235.27 47.3295 247.344 39.8772 260.362 41.6696C273.38 43.5562 282.908 54.4045 283.662 67.1395Z" fill="#FF7700"/>
<path d="M241.773 61.8549L251.112 54.6855L248.66 63.4585L241.773 61.8549Z" fill="#FFAA7B"/>
<path d="M260.641 64.5891L261.395 59.9668L265.074 65.4381L260.641 64.5891Z" fill="#FFAA7B"/>
<path d="M272.344 65.8173L272.25 61.5723L276.872 67.2322L272.344 65.8173Z" fill="#FFAA7B"/>
<path d="M295.08 129.964L253.29 214.392L232.254 256.841C230.462 260.049 226.122 262.69 222.538 262.69L176.786 237.032C173.296 237.032 146.694 229.296 148.486 225.995L143.109 217.505L201.124 124.775C206.218 116.757 215.085 111.852 224.613 111.852H284.043C293.193 112.04 299.231 121.757 295.08 129.964Z" fill="#E755FF"/>
<path d="M136.312 155.999L217.816 154.207C218.476 154.207 219.042 154.679 219.042 155.245L219.986 199.581C220.08 202.506 217.156 205.147 213.665 205.147L142.633 206.751C139.048 206.845 136.124 204.487 136.029 201.468L135.086 157.131C135.086 156.565 135.652 155.999 136.312 155.999Z" fill="#FFA800"/>
<path d="M282.238 304.29C280.257 304.29 278.181 304.102 276.106 303.63L152.152 277.405C136.304 274.009 126.117 258.444 129.513 242.502C132.909 226.654 148.473 216.466 164.416 219.862L288.275 246.087C304.123 249.483 314.311 265.048 310.915 280.99C307.991 294.857 295.822 304.29 282.238 304.29Z" fill="#78AAF9"/>
<path d="M135.079 331.74C127.438 331.74 119.797 328.721 114.043 322.873C102.723 311.27 103.006 292.592 114.609 281.272L169.888 227.596C181.491 216.276 200.169 216.559 211.489 228.162C222.809 239.765 222.526 258.443 210.923 269.763L155.643 323.439C149.795 329.004 142.437 331.74 135.079 331.74Z" fill="#78AAF9"/>
<path d="M134.984 272.973H58.0156V331.742H134.984C151.21 331.742 164.416 318.536 164.416 302.31C164.416 286.085 151.304 272.973 134.984 272.973Z" fill="#78AAF9"/>
<path d="M297.705 249.955C283.933 241.371 265.821 245.616 257.236 259.388L200.195 350.785H269.436L307.139 290.424C315.723 276.651 311.478 258.539 297.705 249.955Z" fill="#78AAF9"/>
<path d="M141.882 181.468C134.524 181.468 127.355 177.883 123.015 171.28C116.129 160.903 119.054 146.942 129.43 140.055L187.445 101.85C197.822 94.9641 211.783 97.8885 218.669 108.265C225.556 118.642 222.631 132.603 212.255 139.489L154.24 177.694C150.466 180.241 146.127 181.468 141.882 181.468Z" fill="#E755FF"/>
<path d="M153.107 179.395C162.823 171.471 164.238 157.132 156.314 147.416C148.39 137.7 133.957 136.285 124.335 144.209L68.4062 189.856L96.7061 225.514C96.7061 225.514 144.462 186.482 153.107 179.395Z" fill="#E755FF"/>
<path d="M65.8031 196.527C64.6186 195.026 64.8511 192.853 66.3264 191.637L72.8222 186.279L101.311 221.749L94.6513 227.276C93.1306 228.538 90.8688 228.3 89.6448 226.748L65.8031 196.527Z" fill="#E22EFF"/>
<path d="M251.683 217.692L232.156 256.935C230.363 260.142 226.024 262.784 222.439 262.784L145.558 262.029C140.464 262.029 121.031 258.067 132.257 233.918L143.011 217.692H251.683Z" fill="#78AAF9"/>
<path d="M220.359 87.3262C216.868 86.8545 214.51 83.6472 214.982 80.1569L217.623 61.0073C218.095 57.517 221.302 55.1586 224.793 55.6303C228.283 56.102 230.641 59.3093 230.169 62.7996L227.528 81.9492C226.962 85.4395 223.755 87.7979 220.359 87.3262Z" fill="#FFC200"/>
<path d="M286.291 95.7207C282.801 95.249 280.348 92.136 280.726 88.6457L283.084 69.4018C283.556 65.9115 286.669 63.4588 290.159 63.8361C293.649 64.3078 296.102 67.4208 295.725 70.9111L293.366 90.155C292.895 93.6454 289.782 96.098 286.291 95.7207Z" fill="#FFC200"/>
<path d="M292.436 66.3819L287.059 65.816C288.285 52.9867 279.701 41.0064 268.287 39.5914L252.533 37.6104C246.59 36.8557 240.647 38.5537 235.931 42.4213C230.931 46.3833 227.912 52.1377 227.252 58.6466L221.875 58.175C222.63 50.251 226.403 43.176 232.535 38.2707C238.478 33.5541 245.741 31.3844 253.194 32.3277L268.947 34.3087C276.116 35.1577 282.437 39.1197 286.87 45.44C291.21 51.383 293.191 59.024 292.436 66.3819Z" fill="#FFC200"/>
<path d="M203.945 344.949H273.185L267.116 354.753C266.315 356.048 264.901 356.835 263.378 356.835H204.436C200.981 356.835 198.877 353.032 200.712 350.105L203.945 344.949Z" fill="#5791E5"/>
<path d="M64.5168 272.972H56.083C53.6554 272.972 51.6875 274.94 51.6875 277.367V327.346C51.6875 329.773 53.6554 331.741 56.083 331.741H64.5168V272.972Z" fill="#5791E5"/>
<path d="M149.884 272.31L194.221 286.366L185.825 294.101L149.318 273.631C148.469 273.159 149.035 272.027 149.884 272.31Z" fill="#5791E5"/>
<path d="M242.336 236.372L204.508 227.505C203.093 227.127 203.376 225.146 204.791 225.146H247.902L242.336 236.372Z" fill="#5791E5"/>
<path d="M252.709 215.525L247.992 225.147H138L144.792 214.864L252.709 215.525Z" fill="#9FC6FF"/>
<path d="M259.702 367.968H208.762L190.367 399.192H290.926C290.926 382.023 276.965 367.968 259.702 367.968Z" fill="#FFC200"/>
<path d="M290.919 399.285H190.266V400.7C190.266 404.756 193.567 408.058 197.624 408.058H283.467C287.523 408.058 290.825 404.756 290.825 400.7V399.285H290.919Z" fill="white"/>
<path d="M252.795 366.202L248.789 372.765" stroke="white" stroke-width="3.51639" stroke-linecap="round"/>
<path d="M258.569 366.677L254.562 373.24" stroke="white" stroke-width="3.51639" stroke-linecap="round"/>
<path d="M264.326 366.717L260.32 373.28" stroke="white" stroke-width="3.51639" stroke-linecap="round"/>
<path d="M39.9898 340.327V283.821H8.76562V371.645C26.0286 371.551 39.9898 357.59 39.9898 340.327Z" fill="#FFC200"/>
<path d="M8.77302 371.551V283.727H7.35802C3.3017 283.727 0 287.028 0 291.085V364.193C0 368.249 3.3017 371.551 7.35802 371.551H8.77302Z" fill="white"/>
<path d="M354.034 423.151H124.616C120.56 423.151 117.164 419.849 117.164 415.699V415.321C117.164 411.265 120.466 407.869 124.616 407.869H354.034C358.091 407.869 361.487 411.171 361.487 415.321V415.699C361.392 419.849 358.091 423.151 354.034 423.151Z" fill="#35005F"/>
<path fill-rule="evenodd" clip-rule="evenodd" d="M0 419.327C0 431.988 9.9164 442.334 22.4062 443.02V443.055H23.5593C23.6157 443.056 23.6721 443.056 23.7286 443.056C23.7572 443.056 23.7858 443.056 23.8143 443.056C23.8422 443.056 23.87 443.055 23.8979 443.055H57.201C57.2484 443.056 57.2958 443.056 57.3433 443.056C57.3908 443.056 57.4382 443.056 57.4856 443.055H124.841C127.96 443.055 128.496 438.594 125.466 437.856L75.1368 425.588C75.1388 425.479 75.1398 425.369 75.1398 425.259C75.1398 415.431 67.172 407.463 57.3433 407.463C53.0873 407.463 49.1803 408.957 46.118 411.449C42.8694 402.217 34.0718 395.599 23.7286 395.599C10.6236 395.599 0 406.222 0 419.327Z" fill="#B250FF"/>
<path d="M168.759 446.168C175.115 446.168 180.267 441.015 180.267 434.659C180.267 428.303 175.115 423.15 168.759 423.15C162.403 423.15 157.25 428.303 157.25 434.659C157.25 441.015 162.403 446.168 168.759 446.168Z" fill="#35005F"/>
<path d="M168.764 441.922C172.775 441.922 176.027 438.67 176.027 434.658C176.027 430.647 172.775 427.395 168.764 427.395C164.752 427.395 161.5 430.647 161.5 434.658C161.5 438.67 164.752 441.922 168.764 441.922Z" fill="#5A00A0"/>
<path d="M307.907 446.168C314.263 446.168 319.416 441.015 319.416 434.659C319.416 428.303 314.263 423.15 307.907 423.15C301.551 423.15 296.398 428.303 296.398 434.659C296.398 441.015 301.551 446.168 307.907 446.168Z" fill="#35005F"/>
<path d="M307.896 441.922C311.908 441.922 315.16 438.67 315.16 434.658C315.16 430.647 311.908 427.395 307.896 427.395C303.885 427.395 300.633 430.647 300.633 434.658C300.633 438.67 303.885 441.922 307.896 441.922Z" fill="#5A00A0"/>
<path d="M209.893 169.867C208.101 169.867 206.308 169.113 205.082 167.509C203.007 164.868 203.384 161 206.12 158.925L272.153 106.664C274.794 104.589 278.662 104.966 280.737 107.702C282.812 110.343 282.435 114.211 279.699 116.286L213.666 168.547C212.534 169.396 211.214 169.867 209.893 169.867Z" fill="#FFA800"/>
<path d="M188.571 184.488L206.494 184.017C209.135 183.922 211.305 185.998 211.399 188.639L211.494 191.28C211.588 193.922 209.513 196.091 206.871 196.186L188.948 196.657C186.307 196.752 184.137 194.676 184.043 192.035L183.948 189.394C183.854 186.752 185.929 184.583 188.571 184.488Z" fill="#FF8A00"/>
<rect x="376.758" y="119.347" width="33.8652" height="62.4155" rx="3.51639" transform="rotate(-13.606 376.758 119.347)" fill="#67A5FE"/>
<rect x="380.523" y="121.946" width="28.0496" height="55.9835" rx="3.51639" transform="rotate(-13.606 380.523 121.946)" fill="#3286FF"/>
<path d="M384.477 133.997L381.93 150.411C381.553 153.053 379.006 154.939 376.364 154.468H376.176C373.534 154.09 371.648 151.543 372.119 148.902L374.666 132.488C375.044 129.847 377.591 127.96 380.232 128.432H380.421C383.062 128.809 384.854 131.262 384.477 133.997Z" fill="#FFAA7B"/>
<path d="M421.563 147.699L405.149 150.435C402.508 150.906 399.961 149.114 399.489 146.378V146.19C399.018 143.548 400.81 141.001 403.546 140.53L419.96 137.794C422.601 137.322 425.148 139.115 425.62 141.85V142.039C425.997 144.68 424.205 147.227 421.563 147.699Z" fill="#FFAA7B"/>
<path d="M419.313 137.887L402.899 140.623C400.258 141.095 397.711 139.302 397.239 136.567V136.378C396.768 133.737 398.56 131.19 401.296 130.718L417.71 127.982C420.351 127.511 422.898 129.303 423.37 132.039V132.227C423.747 134.963 421.955 137.51 419.313 137.887Z" fill="#FFAA7B"/>
<path d="M423.18 157.508L406.766 160.243C404.125 160.715 401.578 158.923 401.107 156.187V155.998C400.635 153.357 402.427 150.81 405.163 150.338L421.577 147.603C424.218 147.131 426.765 148.923 427.237 151.659V151.848C427.708 154.489 425.822 157.036 423.18 157.508Z" fill="#FFAA7B"/>
<path d="M424.868 167.319L408.454 170.055C405.813 170.526 403.266 168.734 402.794 165.998V165.81C402.322 163.168 404.115 160.621 406.85 160.15L423.264 157.414C425.906 156.942 428.453 158.735 428.924 161.47V161.659C429.302 164.395 427.509 166.942 424.868 167.319Z" fill="#FFAA7B"/>
</svg>
