<svg width="540" height="312" viewBox="0 0 540 312" fill="none" xmlns="http://www.w3.org/2000/svg">
<g clip-path="url(#clip0_10342_5278)">
<g opacity="0.5">
<mask id="path-1-outside-1_10342_5278" maskUnits="userSpaceOnUse" x="90.7932" y="35.5752" width="361" height="281" fill="black">
<rect fill="white" x="90.7932" y="35.5752" width="361" height="281"/>
<path fill-rule="evenodd" clip-rule="evenodd" d="M427.849 179.979V179.108C427.849 157.49 412.035 139.851 392.176 138.503C393.248 134.76 393.801 130.888 393.82 126.995C393.82 104.457 376.805 86.2425 355.763 86.2425C349.9 86.2398 344.126 87.6734 338.946 90.4181C335.148 72.2033 319.958 58.5752 301.809 58.5752C295.487 58.6352 289.282 60.2929 283.773 63.3942C278.263 66.4954 273.627 70.9395 270.295 76.3132C266.913 71.3655 262.383 67.31 257.092 64.4931C251.802 61.6762 245.909 60.1816 239.915 60.1369C221.832 60.1369 206.494 73.7651 202.763 91.9634C197.583 89.2333 191.817 87.8057 185.962 87.8042C164.903 87.8042 147.888 106.035 147.888 128.557C147.905 131.877 148.285 135.184 149.023 138.421C129.295 139.966 113.793 157.573 113.793 179.042C113.793 200.483 129.214 218.02 148.835 219.654C154.261 230.874 165.39 241.005 186.215 241.005H213.561C213.023 256.257 223.522 286.827 269.848 286.827C274.634 286.827 279.239 286.81 283.654 286.793H283.654C312.612 286.683 333.435 286.604 344.206 291.691C346.549 292.803 349.187 293.133 351.731 292.631C353.425 292.313 355.028 291.626 356.426 290.619C357.825 289.612 358.985 288.311 359.825 286.806C360.664 285.301 361.163 283.63 361.285 281.911C361.408 280.192 361.151 278.467 360.533 276.859L348.624 255.365C352.786 260.079 356.434 262.085 362.325 264.285C397.542 277.437 428.09 245.007 428.09 211.157L428.107 192.378C428.107 191.184 428.022 190.004 427.858 188.838L427.849 179.979Z"/>
</mask>
<path fill-rule="evenodd" clip-rule="evenodd" d="M427.849 179.979V179.108C427.849 157.49 412.035 139.851 392.176 138.503C393.248 134.76 393.801 130.888 393.82 126.995C393.82 104.457 376.805 86.2425 355.763 86.2425C349.9 86.2398 344.126 87.6734 338.946 90.4181C335.148 72.2033 319.958 58.5752 301.809 58.5752C295.487 58.6352 289.282 60.2929 283.773 63.3942C278.263 66.4954 273.627 70.9395 270.295 76.3132C266.913 71.3655 262.383 67.31 257.092 64.4931C251.802 61.6762 245.909 60.1816 239.915 60.1369C221.832 60.1369 206.494 73.7651 202.763 91.9634C197.583 89.2333 191.817 87.8057 185.962 87.8042C164.903 87.8042 147.888 106.035 147.888 128.557C147.905 131.877 148.285 135.184 149.023 138.421C129.295 139.966 113.793 157.573 113.793 179.042C113.793 200.483 129.214 218.02 148.835 219.654C154.261 230.874 165.39 241.005 186.215 241.005H213.561C213.023 256.257 223.522 286.827 269.848 286.827C274.634 286.827 279.239 286.81 283.654 286.793H283.654C312.612 286.683 333.435 286.604 344.206 291.691C346.549 292.803 349.187 293.133 351.731 292.631C353.425 292.313 355.028 291.626 356.426 290.619C357.825 289.612 358.985 288.311 359.825 286.806C360.664 285.301 361.163 283.63 361.285 281.911C361.408 280.192 361.151 278.467 360.533 276.859L348.624 255.365C352.786 260.079 356.434 262.085 362.325 264.285C397.542 277.437 428.09 245.007 428.09 211.157L428.107 192.378C428.107 191.184 428.022 190.004 427.858 188.838L427.849 179.979Z" fill="#E853A6"/>
<path d="M427.849 179.979H405.008V179.99V180.002L427.849 179.979ZM392.176 138.503L370.219 132.212L362.435 159.377L390.629 161.291L392.176 138.503ZM393.82 126.995L416.66 127.104L416.661 127.05V126.995H393.82ZM355.763 86.2425L355.752 109.083H355.763V86.2425ZM338.946 90.4181L316.586 95.0798L322.787 124.827L349.639 110.601L338.946 90.4181ZM301.809 58.5752V35.7345H301.701L301.592 35.7355L301.809 58.5752ZM283.773 63.3942L272.569 43.4898L283.773 63.3942ZM270.295 76.3132L251.44 89.2041L271.231 118.152L289.708 88.3483L270.295 76.3132ZM257.092 64.4931L267.827 44.3323L267.827 44.3323L257.092 64.4931ZM239.915 60.1369L240.086 37.2968L240 37.2962H239.915V60.1369ZM202.763 91.9634L192.112 112.169L219.026 126.355L225.138 96.5516L202.763 91.9634ZM185.962 87.8042L185.968 64.9635H185.962V87.8042ZM147.888 128.557H125.048V128.614L125.048 128.671L147.888 128.557ZM149.023 138.421L150.806 161.192L177.166 159.127L171.293 133.347L149.023 138.421ZM148.835 219.654L169.398 209.711L163.723 197.974L150.731 196.892L148.835 219.654ZM213.561 241.005L236.388 241.81L237.221 218.164H213.561V241.005ZM283.654 286.793V263.952H283.611L283.567 263.953L283.654 286.793ZM283.654 286.793V309.634H283.698L283.741 309.634L283.654 286.793ZM344.206 291.691L354.002 271.057L353.981 271.047L353.96 271.037L344.206 291.691ZM351.731 292.631L347.508 270.184L347.412 270.203L347.315 270.221L351.731 292.631ZM356.426 290.619L343.083 272.081L343.083 272.081L356.426 290.619ZM359.825 286.806L339.879 275.675L339.879 275.676L359.825 286.806ZM360.533 276.859L381.854 268.667L381.283 267.181L380.512 265.789L360.533 276.859ZM348.624 255.365L365.747 240.248L328.645 266.434L348.624 255.365ZM362.325 264.285L354.334 285.683L354.334 285.683L362.325 264.285ZM428.09 211.157L405.25 211.136V211.147V211.157H428.09ZM428.107 192.378L450.948 192.398V192.388V192.378H428.107ZM427.858 188.838L405.017 188.861L405.019 190.452L405.241 192.028L427.858 188.838ZM405.008 179.108V179.979H450.69V179.108H405.008ZM390.629 161.291C397.37 161.749 405.008 168.337 405.008 179.108H450.69C450.69 146.644 426.699 117.953 393.723 115.715L390.629 161.291ZM370.979 126.887C370.971 128.688 370.715 130.48 370.219 132.212L414.133 144.794C415.782 139.041 416.632 133.089 416.66 127.104L370.979 126.887ZM355.763 109.083C362.745 109.083 370.979 115.576 370.979 126.995H416.661C416.661 93.3383 390.865 63.4018 355.763 63.4018V109.083ZM349.639 110.601C351.522 109.603 353.621 109.082 355.752 109.083L355.774 63.4018C346.179 63.3973 336.73 65.7434 328.253 70.2349L349.639 110.601ZM301.809 81.4159C307.88 81.4159 314.728 86.1702 316.586 95.0798L361.305 85.7564C355.568 58.2365 332.037 35.7345 301.809 35.7345V81.4159ZM294.976 83.2986C297.13 82.0863 299.555 81.4384 302.026 81.4149L301.592 35.7355C291.419 35.8321 281.435 38.4995 272.569 43.4898L294.976 83.2986ZM289.708 88.3483C291.01 86.2479 292.822 84.5108 294.976 83.2986L272.569 43.4898C263.703 48.48 256.243 55.6311 250.882 64.278L289.708 88.3483ZM246.357 84.6539C248.394 85.7383 250.138 87.2994 251.44 89.2041L289.15 63.4223C283.687 55.4315 276.371 48.8817 267.827 44.3323L246.357 84.6539ZM239.745 82.977C242.052 82.9942 244.321 83.5696 246.357 84.6539L267.827 44.3323C259.283 39.7828 249.765 37.369 240.086 37.2968L239.745 82.977ZM225.138 96.5516C226.927 87.8255 233.813 82.9777 239.915 82.9777V37.2962C209.851 37.2962 186.061 59.7046 180.387 87.3751L225.138 96.5516ZM185.956 110.645C188.101 110.646 190.214 111.169 192.112 112.169L213.413 71.7577C204.952 67.2979 195.532 64.966 185.968 64.9635L185.956 110.645ZM170.729 128.557C170.729 117.155 178.963 110.645 185.962 110.645V64.9635C150.843 64.9635 125.048 94.916 125.048 128.557H170.729ZM171.293 133.347C170.926 131.738 170.737 130.094 170.729 128.443L125.048 128.671C125.073 133.66 125.644 138.631 126.753 143.495L171.293 133.347ZM136.634 179.042C136.634 168.248 144.17 161.712 150.806 161.192L147.239 115.65C114.421 118.221 90.9525 146.897 90.9525 179.042H136.634ZM150.731 196.892C144.13 196.343 136.634 189.827 136.634 179.042H90.9525C90.9525 211.139 114.298 239.698 146.94 242.416L150.731 196.892ZM186.215 218.164C179.651 218.164 176.099 216.62 174.185 215.378C172.185 214.08 170.611 212.219 169.398 209.711L128.272 229.598C132.485 238.31 139.188 247.124 149.316 253.697C159.529 260.325 171.955 263.846 186.215 263.846V218.164ZM213.561 218.164H186.215V263.846H213.561V218.164ZM269.848 263.987C252.12 263.987 244.631 258.382 241.326 254.602C237.355 250.06 236.292 244.534 236.388 241.81L190.734 240.201C190.293 252.728 194.21 270.114 206.935 284.669C220.326 299.987 241.25 309.668 269.848 309.668V263.987ZM283.567 263.953C279.147 263.969 274.584 263.987 269.848 263.987V309.668C274.684 309.668 279.331 309.65 283.741 309.634L283.567 263.953ZM283.654 263.952H283.654V309.634H283.654V263.952ZM353.96 271.037C344.296 266.473 332.547 265.111 322.101 264.492C311.052 263.838 297.795 263.898 283.568 263.953L283.741 309.634C298.472 309.578 310.105 309.544 319.4 310.094C329.298 310.68 333.346 311.821 334.452 312.344L353.96 271.037ZM347.315 270.221C349.577 269.776 351.921 270.069 354.002 271.057L334.41 312.324C341.177 315.537 348.797 316.489 356.147 315.041L347.315 270.221ZM343.083 272.081C344.401 271.132 345.912 270.485 347.508 270.184L355.954 315.078C360.938 314.141 365.654 312.119 369.769 309.157L343.083 272.081ZM339.879 275.676C340.671 274.257 341.764 273.03 343.083 272.081L369.769 309.157C373.885 306.195 377.299 302.364 379.77 297.936L339.879 275.676ZM338.502 280.289C338.618 278.669 339.088 277.094 339.879 275.675L379.77 297.936C382.241 293.508 383.708 288.591 384.069 283.533L338.502 280.289ZM339.212 285.051C338.629 283.535 338.387 281.909 338.502 280.289L384.069 283.533C384.429 278.475 383.673 273.4 381.854 268.667L339.212 285.051ZM328.645 266.434L340.554 287.929L380.512 265.789L368.603 244.295L328.645 266.434ZM370.316 242.888C367.965 242.01 367.245 241.597 366.998 241.441C366.933 241.4 366.606 241.222 365.747 240.248L331.501 270.481C338.917 278.881 346.214 282.65 354.334 285.683L370.316 242.888ZM405.25 211.157C405.25 221.548 400.41 231.906 393.245 238.271C386.654 244.126 378.959 246.116 370.316 242.888L354.334 285.683C380.908 295.607 406.096 287.958 423.583 272.423C440.496 257.399 450.931 234.616 450.931 211.157H405.25ZM405.267 192.357L405.25 211.136L450.931 211.177L450.948 192.398L405.267 192.357ZM405.241 192.028C405.259 192.158 405.267 192.273 405.267 192.378H450.948C450.948 190.096 450.785 187.849 450.475 185.648L405.241 192.028ZM405.008 180.002L405.017 188.861L450.699 188.816L450.69 179.957L405.008 180.002Z" fill="#B463FF" fill-opacity="0.01" mask="url(#path-1-outside-1_10342_5278)"/>
</g>
<path d="M427.849 179.979V179.108C427.849 157.49 412.035 139.851 392.176 138.503C393.248 134.76 393.802 130.888 393.82 126.995C393.82 104.457 376.805 86.2425 355.763 86.2425C349.9 86.2398 344.126 87.6734 338.946 90.4181C335.148 72.2033 319.958 58.5752 301.809 58.5752C295.487 58.6352 289.283 60.2929 283.773 63.3942C278.263 66.4954 273.627 70.9395 270.295 76.3132C266.913 71.3655 262.383 67.31 257.093 64.4931C251.802 61.6762 245.909 60.1816 239.916 60.1369C221.832 60.1369 206.495 73.7651 202.763 91.9634C197.583 89.2333 191.817 87.8057 185.962 87.8042C164.903 87.8042 147.889 106.035 147.889 128.557C147.905 131.877 148.285 135.184 149.023 138.421C129.296 139.966 113.793 157.573 113.793 179.042C113.793 201.564 130.808 219.779 151.834 219.779H389.776C396.352 219.779 410.95 219.253 410.95 219.253L427.882 214.765V213.63L427.849 179.979Z" fill="#ED80BD"/>
<path d="M428.107 192.378C428.107 171.314 401.603 154.249 380.422 154.249C371.16 154.237 362.208 157.585 355.227 163.672C352.091 158.811 347.898 154.719 342.962 151.703C338.025 148.686 332.472 146.822 326.715 146.249C320.959 145.676 315.147 146.409 309.713 148.393C304.279 150.377 299.362 153.561 295.329 157.709C291.923 148.933 285.787 141.484 277.827 136.459C269.866 131.434 260.502 129.099 251.115 129.799C241.727 130.499 232.813 134.197 225.686 140.347C218.558 146.496 213.596 154.773 211.529 163.957C203.178 158.416 193.125 156.034 183.175 157.238C150.287 160.598 145.097 183.996 144.408 198.408C143.719 212.82 151.479 241.005 186.216 241.005H213.561C213.024 256.257 223.522 286.827 269.848 286.827C306.029 286.827 331.793 285.828 344.206 291.691C346.549 292.803 349.187 293.133 351.731 292.631C353.425 292.313 355.028 291.626 356.426 290.619C357.825 289.612 358.985 288.31 359.825 286.806C360.664 285.301 361.163 283.63 361.286 281.911C361.408 280.192 361.151 278.467 360.533 276.859L348.624 255.365C352.786 260.079 356.434 262.085 362.325 264.285C397.543 277.437 428.09 245.007 428.09 211.157L428.107 192.378Z" fill="#E853A6"/>
<circle cx="248.691" cy="164.553" r="47.1133" fill="#E853A6"/>
<path d="M86.0659 208.372C82.2653 206.917 80.2188 203.514 79.3092 201.526C79.2607 201.421 79.1785 201.331 79.0729 201.268C78.9674 201.205 78.8433 201.171 78.7164 201.171C78.5895 201.171 78.4654 201.205 78.3599 201.268C78.2543 201.331 78.1721 201.421 78.1236 201.526C77.21 203.514 75.1554 206.928 71.3832 208.372C71.2683 208.416 71.1705 208.49 71.1018 208.583C71.0331 208.677 70.9965 208.787 70.9965 208.899C70.9965 209.011 71.0331 209.12 71.1018 209.214C71.1705 209.308 71.2683 209.381 71.3832 209.426C75.1797 210.88 77.2262 214.287 78.1317 216.272C78.1802 216.377 78.2624 216.466 78.368 216.53C78.4735 216.593 78.5976 216.626 78.7245 216.626C78.8515 216.626 78.9755 216.593 79.0811 216.53C79.1866 216.466 79.2688 216.377 79.3174 216.272C80.235 214.287 82.2896 210.876 86.074 209.422C86.1873 209.377 86.2834 209.302 86.3505 209.209C86.4176 209.115 86.4529 209.006 86.452 208.895C86.4512 208.783 86.4142 208.675 86.3457 208.582C86.2771 208.489 86.1799 208.416 86.0659 208.372Z" fill="#FFC200"/>
<path d="M99.1365 104.812C95.3359 103.358 93.2895 99.9548 92.3799 97.9662C92.3314 97.8611 92.2492 97.7714 92.1436 97.7082C92.0381 97.645 91.914 97.6113 91.7871 97.6113C91.6601 97.6113 91.5361 97.645 91.4305 97.7082C91.325 97.7714 91.2428 97.8611 91.1942 97.9662C90.2806 99.9548 88.226 103.369 84.4539 104.812C84.339 104.856 84.2412 104.93 84.1725 105.024C84.1037 105.117 84.0671 105.227 84.0671 105.339C84.0671 105.451 84.1037 105.561 84.1725 105.654C84.2412 105.748 84.339 105.822 84.4539 105.866C88.2504 107.32 90.2969 110.727 91.2024 112.712C91.2509 112.817 91.3331 112.907 91.4386 112.97C91.5442 113.033 91.6683 113.067 91.7952 113.067C91.9221 113.067 92.0462 113.033 92.1517 112.97C92.2573 112.907 92.3395 112.817 92.388 112.712C93.3057 110.727 95.3603 107.317 99.1447 105.863C99.258 105.817 99.3541 105.743 99.4212 105.649C99.4883 105.555 99.5236 105.446 99.5227 105.335C99.5218 105.224 99.4849 105.115 99.4163 105.022C99.3478 104.929 99.2506 104.856 99.1365 104.812Z" fill="#FFC200"/>
<path d="M377.534 25.437C373.733 23.9827 371.686 20.5798 370.777 18.5912C370.728 18.4861 370.646 18.3964 370.541 18.3332C370.435 18.27 370.311 18.2363 370.184 18.2363C370.057 18.2363 369.933 18.27 369.828 18.3332C369.722 18.3964 369.64 18.4861 369.591 18.5912C368.678 20.5798 366.623 23.9936 362.851 25.437C362.736 25.4815 362.638 25.5551 362.569 25.6488C362.501 25.7424 362.464 25.8521 362.464 25.9641C362.464 26.0762 362.501 26.1858 362.569 26.2795C362.638 26.3731 362.736 26.4468 362.851 26.4913C366.647 27.9455 368.694 31.352 369.599 33.3371C369.648 33.4421 369.73 33.5319 369.836 33.595C369.941 33.6582 370.065 33.6919 370.192 33.6919C370.319 33.6919 370.443 33.6582 370.549 33.595C370.654 33.5319 370.736 33.4421 370.785 33.3371C371.703 31.352 373.757 27.9419 377.542 26.4877C377.655 26.4419 377.751 26.3677 377.818 26.274C377.885 26.1803 377.921 26.0712 377.92 25.9599C377.919 25.8486 377.882 25.74 377.813 25.6471C377.745 25.5543 377.648 25.4813 377.534 25.437Z" fill="#FFC200"/>
<path d="M202.753 33.327C196.882 31.0807 193.721 25.8241 192.316 22.7522C192.241 22.59 192.114 22.4513 191.951 22.3538C191.788 22.2562 191.596 22.2041 191.4 22.2041C191.204 22.2041 191.012 22.2562 190.849 22.3538C190.686 22.4513 190.559 22.59 190.484 22.7522C189.073 25.8241 185.899 31.0975 180.072 33.327C179.895 33.3958 179.744 33.5095 179.637 33.6542C179.531 33.7989 179.475 33.9682 179.475 34.1414C179.475 34.3145 179.531 34.4838 179.637 34.6285C179.744 34.7732 179.895 34.8869 180.072 34.9556C185.937 37.202 189.098 42.4641 190.497 45.5304C190.572 45.6927 190.699 45.8313 190.862 45.9289C191.025 46.0265 191.216 46.0786 191.412 46.0786C191.608 46.0786 191.8 46.0265 191.963 45.9289C192.126 45.8313 192.253 45.6927 192.328 45.5304C193.746 42.4641 196.919 37.1964 202.765 34.95C202.94 34.8794 203.089 34.7648 203.192 34.6201C203.296 34.4753 203.351 34.3068 203.349 34.1349C203.348 33.963 203.291 33.7951 203.185 33.6517C203.079 33.5083 202.929 33.3955 202.753 33.327Z" fill="#FFC200"/>
<path d="M351.883 82.1645L420.097 39.8595C421.537 38.9667 423.129 40.7568 422.075 42.0828L394.961 76.1827L417.941 91.6182C420.693 93.4663 420.593 97.5466 417.755 99.2584L348.042 141.304C346.628 142.157 345.068 140.449 346.044 139.118L374.244 100.679L352.302 90.0951C349.083 88.5423 348.845 84.0481 351.883 82.1645Z" fill="#7A00DA"/>
<path d="M129.17 106.924L124.069 56.5473C123.899 54.8644 126.201 54.2167 126.933 55.7416L139.527 81.9729L152.494 67.4661C155.198 64.4403 160.211 66.2236 160.397 70.2777L162.97 126.385C163.049 128.101 160.657 128.596 160.049 126.989L149.211 98.3459L136.742 109.803C133.995 112.327 129.545 110.635 129.17 106.924Z" fill="#7A00DA"/>
<path d="M115.943 168.504L76.8696 149.068C75.3643 148.319 76.0248 146.041 77.6971 146.213L107.792 149.319L106.386 142.555C105.609 138.812 109.531 135.848 112.92 137.618L150.693 157.351C152.183 158.13 151.478 160.394 149.809 160.189L121.156 156.665L122.418 163.641C123.082 167.308 119.28 170.164 115.943 168.504Z" fill="#7A00DA"/>
<path d="M394.932 165.484L435.784 150.133C437.358 149.542 438.575 151.578 437.309 152.684L414.528 172.592L420.435 176.173C423.704 178.155 423.201 183.045 419.596 184.319L379.413 198.515C377.828 199.075 376.652 197.016 377.939 195.935L400.044 177.367L394.078 173.537C390.942 171.523 391.444 166.795 394.932 165.484Z" fill="#7A00DA"/>
<path d="M297.071 63.7098L323.333 28.8562C324.345 27.5135 326.463 28.5799 325.987 30.1924L317.424 59.2093L324.33 59.0664C328.153 58.9873 330.348 63.3863 327.988 66.3934L301.672 99.9143C300.634 101.237 298.537 100.129 299.044 98.5262L307.755 71.0031L300.666 70.9665C296.939 70.9473 294.828 66.6866 297.071 63.7098Z" fill="#7A00DA"/>
<path d="M499.775 138.959C493.904 136.712 490.742 131.456 489.337 128.384C489.262 128.222 489.135 128.083 488.972 127.986C488.809 127.888 488.618 127.836 488.422 127.836C488.226 127.836 488.034 127.888 487.871 127.986C487.708 128.083 487.581 128.222 487.506 128.384C486.095 131.456 482.921 136.729 477.094 138.959C476.917 139.028 476.765 139.141 476.659 139.286C476.553 139.431 476.497 139.6 476.497 139.773C476.497 139.946 476.553 140.116 476.659 140.26C476.765 140.405 476.917 140.519 477.094 140.587C482.959 142.834 486.12 148.096 487.518 151.162C487.593 151.325 487.72 151.463 487.883 151.561C488.046 151.658 488.238 151.71 488.434 151.71C488.63 151.71 488.822 151.658 488.985 151.561C489.148 151.463 489.275 151.325 489.35 151.162C490.768 148.096 493.941 142.828 499.787 140.582C499.962 140.511 500.111 140.397 500.214 140.252C500.318 140.107 500.372 139.939 500.371 139.767C500.37 139.595 500.313 139.427 500.207 139.284C500.101 139.14 499.951 139.027 499.775 138.959Z" fill="#FFC200"/>
<path d="M460.021 115.931C456.466 114.477 454.552 111.074 453.701 109.085C453.656 108.98 453.579 108.891 453.48 108.827C453.381 108.764 453.265 108.73 453.147 108.73C453.028 108.73 452.912 108.764 452.813 108.827C452.714 108.891 452.638 108.98 452.592 109.085C451.738 111.074 449.816 114.488 446.288 115.931C446.18 115.976 446.089 116.049 446.025 116.143C445.96 116.237 445.926 116.346 445.926 116.458C445.926 116.57 445.96 116.68 446.025 116.774C446.089 116.867 446.18 116.941 446.288 116.985C449.839 118.44 451.753 121.846 452.6 123.831C452.645 123.936 452.722 124.026 452.821 124.089C452.919 124.152 453.035 124.186 453.154 124.186C453.273 124.186 453.389 124.152 453.488 124.089C453.586 124.026 453.663 123.936 453.709 123.831C454.567 121.846 456.489 118.436 460.028 116.982C460.134 116.936 460.224 116.862 460.287 116.768C460.35 116.674 460.383 116.565 460.382 116.454C460.381 116.343 460.346 116.234 460.282 116.141C460.218 116.048 460.127 115.975 460.021 115.931Z" fill="#FFC200"/>
<path d="M65.3112 184.191C58.8842 181.732 55.4235 175.978 53.8854 172.615C53.8033 172.437 53.6643 172.285 53.4858 172.178C53.3073 172.072 53.0975 172.015 52.8829 172.015C52.6682 172.015 52.4584 172.072 52.2799 172.178C52.1015 172.285 51.9624 172.437 51.8803 172.615C50.3354 175.978 46.8609 181.751 40.482 184.191C40.2877 184.267 40.1223 184.391 40.0061 184.55C39.8899 184.708 39.828 184.893 39.828 185.083C39.828 185.272 39.8899 185.458 40.0061 185.616C40.1223 185.774 40.2877 185.899 40.482 185.974C46.9021 188.433 50.3629 194.194 51.8941 197.551C51.9761 197.728 52.1152 197.88 52.2936 197.987C52.4721 198.094 52.6819 198.151 52.8966 198.151C53.1112 198.151 53.3211 198.094 53.4995 197.987C53.678 197.88 53.817 197.728 53.8991 197.551C55.4509 194.194 58.9254 188.427 65.325 185.968C65.5166 185.891 65.6791 185.765 65.7926 185.607C65.906 185.448 65.9657 185.264 65.9642 185.076C65.9628 184.887 65.9003 184.704 65.7844 184.547C65.6684 184.39 65.5041 184.266 65.3112 184.191Z" fill="#FFC200"/>
</g>
<defs>
<clipPath id="clip0_10342_5278">
<rect width="540" height="312" fill="white" transform="translate(0 0.0078125)"/>
</clipPath>
</defs>
</svg>
