<svg width="559" height="112" viewBox="0 0 559 112" fill="none" xmlns="http://www.w3.org/2000/svg">
<path d="M69.5043 40.7084V52.3837H43.5405L40.6556 57.0539V40.7084H69.5043Z" fill="#0066FF"/>
<path d="M40.6556 59.3889H69.5043V71.0643H43.5405L40.6556 75.7344V59.3889Z" fill="#0066FF"/>
<path fill-rule="evenodd" clip-rule="evenodd" d="M0 56.1318C0 33.7137 0 22.5047 5.31756 14.4527C7.61959 10.9669 10.5777 7.97396 14.0229 5.64483C21.9812 0.264648 33.0598 0.264648 55.217 0.264648C77.3741 0.264648 88.4527 0.264648 96.411 5.64483C99.8563 7.97396 102.814 10.9669 105.116 14.4527C110.434 22.5047 110.434 33.7137 110.434 56.1318C110.434 78.5499 110.434 89.7589 105.116 97.8109C102.814 101.297 99.8563 104.29 96.411 106.619C88.4527 111.999 77.3741 111.999 55.217 111.999C33.0598 111.999 21.9812 111.999 14.0229 106.619C10.5777 104.29 7.61959 101.297 5.31756 97.8109C0 89.7589 0 78.5499 0 56.1318ZM40.6556 25.5304V38.3733L43.5405 33.7031H69.5043V25.5304C69.5043 23.657 69.9606 22.6115 72.9662 22.6115H74.1201C77.1257 22.6115 77.582 23.657 77.582 25.5304V86.2423C77.582 88.1157 77.1257 89.1611 74.1201 89.1611H72.9662C69.9606 89.1611 69.5043 88.1157 69.5043 86.2423V78.0695H40.6556V86.2423C40.6556 88.1157 40.1993 89.1611 37.1938 89.1611H36.0398C33.0343 89.1611 32.578 88.1157 32.578 86.2423V25.5304C32.578 23.657 33.0343 22.6115 36.0398 22.6115H37.1938C40.1993 22.6115 40.6556 23.657 40.6556 25.5304Z" fill="#0066FF"/>
<path d="M178.601 22.2126V48.3398H157.403V22.2126H141.987V90.4552H157.403V63.3531H178.601V90.4552H194.018V56.3339V22.2126H178.601Z" fill="#0066FF"/>
<path fill-rule="evenodd" clip-rule="evenodd" d="M218.025 71.9322H252.231C252.617 70.0799 252.809 68.1301 252.809 66.0828C252.809 51.3619 242.403 40.3456 228.335 40.3456C213.111 40.3456 202.705 51.5569 202.705 66.0828C202.705 80.6087 212.919 91.82 229.395 91.82C238.549 91.82 245.679 88.4079 250.401 81.7786L238.838 75.0518C236.911 77.1966 233.539 78.7564 229.588 78.7564C224.288 78.7564 219.856 77.0016 218.025 71.9322ZM217.736 61.0134C219.085 56.0414 222.747 53.3117 228.239 53.3117C232.575 53.3117 236.911 55.359 238.453 61.0134H217.736Z" fill="#0066FF"/>
<path fill-rule="evenodd" clip-rule="evenodd" d="M295.513 46.2925V41.7105H309.967V90.4552H295.513V85.8732C292.334 89.5777 287.612 91.82 281.157 91.82C268.534 91.82 258.128 80.6087 258.128 66.0828C258.128 51.5569 268.534 40.3456 281.157 40.3456C287.612 40.3456 292.334 42.5879 295.513 46.2925ZM272.581 66.0828C272.581 73.3945 277.399 77.9765 284.047 77.9765C290.696 77.9765 295.513 73.3945 295.513 66.0828C295.513 58.7711 290.696 54.1891 284.047 54.1891C277.399 54.1891 272.581 58.7711 272.581 66.0828Z" fill="#0066FF"/>
<path fill-rule="evenodd" clip-rule="evenodd" d="M355.547 22.2126V46.2925C352.367 42.5879 347.646 40.3456 341.19 40.3456C328.568 40.3456 318.161 51.5569 318.161 66.0828C318.161 80.6087 328.568 91.82 341.19 91.82C347.646 91.82 352.367 89.5777 355.547 85.8732V90.4552H370V22.2126H355.547ZM344.081 77.9765C337.432 77.9765 332.615 73.3945 332.615 66.0828C332.615 58.7711 337.432 54.1891 344.081 54.1891C350.729 54.1891 355.547 58.7711 355.547 66.0828C355.547 73.3945 350.729 77.9765 344.081 77.9765Z" fill="#0066FF"/>
<path d="M426.661 67.8376L433.599 41.7105H449.016L433.599 90.4552H420.109L412.401 64.4255L404.692 90.4552H391.203L375.786 41.7105H391.203L398.14 67.8376L405.656 41.7105H419.146L426.661 67.8376Z" fill="#0066FF"/>
<path fill-rule="evenodd" clip-rule="evenodd" d="M487.846 41.7105V46.2925C484.667 42.5879 479.945 40.3456 473.49 40.3456C460.867 40.3456 450.461 51.5569 450.461 66.0828C450.461 80.6087 460.867 91.82 473.49 91.82C479.945 91.82 484.667 89.5777 487.846 85.8732V90.4552H502.3V41.7105H487.846ZM476.38 77.9765C469.732 77.9765 464.914 73.3945 464.914 66.0828C464.914 58.7711 469.732 54.1891 476.38 54.1891C483.029 54.1891 487.846 58.7711 487.846 66.0828C487.846 73.3945 483.029 77.9765 476.38 77.9765Z" fill="#0066FF"/>
<path d="M534.198 71.5422L543.255 41.7105H558.672L542.195 88.9928C536.799 104.494 528.224 110.635 514.734 109.953V96.3045C521.479 96.3045 524.658 94.1597 526.778 88.2129L507.604 41.7105H523.502L534.198 71.5422Z" fill="#0066FF"/>
</svg>
