<svg width="32" height="32" viewBox="0 0 32 32" fill="none" xmlns="http://www.w3.org/2000/svg">
<path d="M20.0962 23.6513L9.38281 12.9082L14.7395 7.54189C17.6898 4.59671 22.513 4.59671 25.4528 7.54189C28.4032 10.4975 28.4032 15.3293 25.4528 18.2745L20.0962 23.6513Z" fill="#8D33FF"/>
<path d="M22.6135 13.5479L11.8897 24.2805L6.53305 18.9142C3.59315 15.9585 3.59315 11.1268 6.53305 8.18159C9.48341 5.22593 14.3065 5.22593 17.2464 8.18159L22.6135 13.5479Z" fill="#FF8833"/>
<path d="M18.408 28.1165C17.6756 28.8502 16.462 28.8502 15.7297 28.1165L7.79927 20.1719C7.06691 19.4382 7.06691 18.2224 7.79927 17.4887C8.53163 16.7551 9.74525 16.7551 10.4776 17.4887L18.408 25.4334C19.1404 26.167 19.1404 27.3828 18.408 28.1165Z" fill="#FF8833"/>
<path d="M21.0877 25.4334C20.3553 26.1671 19.1417 26.1671 18.4094 25.4334L10.479 17.4888C9.7466 16.7551 9.7466 15.5393 10.479 14.8056C11.2113 14.072 12.4249 14.072 13.1573 14.8056L21.0877 22.7503C21.8201 23.4944 21.8201 24.6997 21.0877 25.4334Z" fill="#FF8833"/>
<path d="M23.7674 22.7496C23.035 23.4833 21.8214 23.4833 21.089 22.7496L13.1586 14.8154C12.4263 14.0818 12.4263 12.866 13.1586 12.1323C13.891 11.3986 15.1046 11.3986 15.837 12.1323L23.7674 20.0769C24.4997 20.8001 24.4997 22.0159 23.7674 22.7496Z" fill="#FF8833"/>
<path d="M26.5408 20.1837C25.8085 20.9174 24.5948 20.9174 23.8625 20.1837L15.9321 12.2495C15.1997 11.5158 15.1997 10.3 15.9321 9.56637C16.6644 8.83269 17.8781 8.83269 18.6104 9.56637L26.5408 17.511C27.2732 18.2342 27.2732 19.45 26.5408 20.1837Z" fill="#FF8833"/>
<path d="M5.14302 19.8468C4.41066 19.1131 4.41066 17.8973 5.14302 17.1637L6.56589 15.7382C7.29824 15.0046 8.51187 15.0046 9.24423 15.7382C9.97658 16.4719 9.97658 17.6877 9.24423 18.4214L7.82136 19.8468C7.089 20.591 5.87538 20.591 5.14302 19.8468Z" fill="#8D33FF"/>
<path d="M11.5336 13.4425C10.8013 12.7089 10.8013 11.4931 11.5336 10.7594L15.049 7.23776C15.7813 6.50408 16.9949 6.50408 17.7273 7.23776C18.4597 7.97143 18.4597 9.18723 17.7273 9.92091L14.212 13.4425C13.4796 14.1762 12.2765 14.1762 11.5336 13.4425Z" fill="#8D33FF"/>
<path d="M7.82271 22.5297C7.09035 21.796 7.09035 20.5802 7.82271 19.8465L9.24557 18.4106C9.97793 17.6769 11.1916 17.6769 11.9239 18.4106C12.6563 19.1443 12.6563 20.3601 11.9239 21.0938L10.501 22.5297C9.75822 23.2633 8.55506 23.2633 7.82271 22.5297Z" fill="#8D33FF"/>
<path d="M10.5024 25.213C9.77004 24.4794 9.77004 23.2636 10.5024 22.5299L11.9253 21.1045C12.6576 20.3708 13.8712 20.3708 14.6036 21.1045C15.336 21.8381 15.336 23.0539 14.6036 23.7876L13.1807 25.213C12.4484 25.9572 11.2348 25.9572 10.5024 25.213Z" fill="#8D33FF"/>
<path d="M13.1743 27.8964C12.4419 27.1627 12.4419 25.9469 13.1743 25.2132L14.5971 23.7773C15.3295 23.0436 16.5431 23.0436 17.2755 23.7773C18.0078 24.511 18.0078 25.7268 17.2755 26.4605L15.8526 27.8859C15.1098 28.63 13.9066 28.63 13.1743 27.8964Z" fill="#8D33FF"/>
<path d="M15.5625 11.1163C15.5625 11.1163 18.9418 14.051 21.4841 10.6446C24.0265 7.2383 18.1885 7.59465 18.1885 7.59465L15.5625 11.1163Z" fill="#8D33FF"/>
</svg>
