<svg width="64" height="36" viewBox="0 0 64 36" fill="none" xmlns="http://www.w3.org/2000/svg">
<path d="M14.3001 3L2.04688 15.2532V32.9182H49.9373L62.1551 20.7004V3H14.3001Z" fill="#958B86"/>
<path d="M53.4766 33.0001H62.2086V24.2681L53.4766 33.0001Z" fill="#958B86"/>
<path d="M25.4889 23.5485C25.0871 23.5722 24.7326 23.265 24.6972 22.8632C24.6972 22.8278 24.6972 22.7923 24.6972 22.7569V16.7189C24.6972 16.3762 24.8154 16.0453 25.0281 15.7736L25.3589 15.36L25.3825 15.3246C25.5243 15.1828 25.6425 15.0646 25.8315 15.0646C25.9143 15.0646 26.316 15.0882 26.316 15.6909V22.7569C26.316 23.2413 25.997 23.5485 25.4889 23.5485ZM15.1616 23.5485C14.7599 23.5722 14.4054 23.265 14.37 22.8632C14.37 22.8278 14.37 22.7923 14.37 22.7569V12.8432C14.3345 12.4415 14.6417 12.087 15.0553 12.0515C15.0908 12.0515 15.1262 12.0515 15.1616 12.0515C15.6107 12.0515 16.036 12.2524 16.3314 12.6069L20.4434 17.5932L24.5081 12.5123C24.7326 12.2169 25.0871 12.0515 25.4534 12.0515H25.867C26.1151 12.0397 26.316 12.2406 26.3278 12.4887C26.3278 12.5005 26.3278 12.5005 26.3278 12.5123C26.3278 12.6305 26.2806 12.7487 26.2097 12.8314L21.2705 18.9994C21.0106 19.3184 20.7388 19.472 20.4434 19.472C20.148 19.472 19.8999 19.3184 19.6281 19.0112L15.9888 14.6274V22.7687C15.9888 23.2413 15.6697 23.5485 15.1616 23.5485Z" fill="#FEF8F5"/>
<path d="M28.5387 23.4424C27.6643 23.4424 27.1562 22.9343 27.1562 22.0599V12.737C27.1562 12.2644 27.4871 11.9454 27.9834 11.9454C28.3851 11.9217 28.7396 12.229 28.775 12.6307C28.775 12.6661 28.775 12.7016 28.775 12.737V21.8827H36.3019V12.737C36.3019 12.2644 36.6327 11.9454 37.129 11.9454C37.5307 11.9217 37.8852 12.229 37.9207 12.6307C37.9207 12.6661 37.9207 12.7016 37.9207 12.737V22.0599C37.9207 22.9343 37.4126 23.4424 36.5146 23.4424H28.5387Z" fill="#FEF8F5"/>
<path d="M40.3434 23.0418C39.469 23.0418 38.9609 22.5337 38.9609 21.6593V13.0336C38.9609 12.1592 39.469 11.6511 40.3434 11.6511H48.6974C49.5718 11.6511 50.0798 12.1592 50.0798 13.0336V21.6593C50.0798 22.5337 49.5718 23.0418 48.6974 23.0418H40.3434ZM48.4729 21.4939V13.2108H40.5797V21.4939H48.4729Z" fill="#FEF8F5"/>
</svg>
