<svg width="500" height="492" viewBox="0 0 500 492" fill="none" xmlns="http://www.w3.org/2000/svg">
<g clip-path="url(#clip0_14355_14531)">
<g clip-path="url(#clip1_14355_14531)">
<rect x="340.517" y="118.284" width="246.375" height="242.526" rx="121.263" transform="rotate(-22.5 340.517 118.284)" fill="#000D08"/>
<path d="M560.768 193.425L556.938 186.168L558.29 194.452L553.119 196.555L548.558 187.437L548.786 198.311L455.713 236.168L437.271 160.388L541.526 131.532L570.607 189.427L560.768 193.425ZM479.565 217.599L479.309 226.548L483.629 224.759L479.565 217.599ZM490.187 222.12L485.301 214.682L486.021 223.807L490.89 221.829L490.187 222.12Z" fill="#FF4C00"/>
<path d="M653.278 368.839L613.852 253.67C613.852 253.67 600.009 193.635 515.798 218.977C442.157 241.138 441.516 275.582 450.431 305.913C458.199 332.433 487.015 421.797 487.015 421.797L653.278 368.839Z" fill="white"/>
<path d="M443.662 184.243C429.354 157.845 439.621 124.666 466.663 110.105C493.671 95.5577 527.189 105.155 541.53 131.539C555.839 157.937 545.572 191.116 518.53 205.677C491.522 220.224 457.97 210.641 443.662 184.243Z" fill="#FB9F78"/>
<path d="M495.644 170.128C496.02 179.086 490.593 187.011 482.222 188.586C474.199 190.056 465.775 184.778 462.535 176.388L495.644 170.128Z" fill="white"/>
<path d="M471.211 164.843L480.827 164.568L474.439 147.441L471.211 164.843Z" fill="#FF3D00"/>
<path d="M501.703 158.424C499.506 154.352 501.084 149.258 505.259 147.026C509.435 144.794 514.556 146.265 516.786 150.323C518.983 154.395 517.405 159.49 513.23 161.721C509.054 163.953 503.899 162.496 501.703 158.424Z" fill="#EF7846"/>
<path d="M440.989 170.875C438.792 166.803 440.37 161.709 444.546 159.477C448.722 157.245 453.842 158.716 456.073 162.774C458.269 166.846 456.692 171.941 452.516 174.172C448.34 176.404 443.186 174.947 440.989 170.875Z" fill="#EF7846"/>
<path d="M491.778 152.842C489.133 153.937 486.115 152.715 485.037 150.111C483.958 147.508 485.228 144.509 487.873 143.414C490.518 142.318 493.536 143.541 494.614 146.144C495.692 148.748 494.423 151.746 491.778 152.842Z" fill="#020203"/>
<path d="M462.941 157.288C460.296 158.383 457.278 157.161 456.2 154.557C455.122 151.954 456.391 148.955 459.036 147.86C461.681 146.764 464.699 147.987 465.777 150.59C466.856 153.194 465.586 156.192 462.941 157.288Z" fill="#020203"/>
<mask id="mask0_14355_14531" style="mask-type:alpha" maskUnits="userSpaceOnUse" x="437" y="103" width="111" height="110">
<path d="M443.662 184.243C429.354 157.845 439.621 124.666 466.663 110.105C493.671 95.5577 527.189 105.155 541.53 131.539C555.839 157.937 545.572 191.116 518.53 205.677C491.522 220.224 457.97 210.641 443.662 184.243Z" fill="#F0A484"/>
</mask>
<g mask="url(#mask0_14355_14531)">
<path d="M544.051 133.933C500.883 148.299 470.976 113.417 470.976 113.417C470.976 113.417 451.096 159.19 433.925 161.59L426.384 140.731L436.865 97.4611L477.562 89.0617L510.618 88.925L535.438 103.477L550.245 129.089L544.051 133.933Z" fill="#FF4C00"/>
</g>
<path d="M474.436 268.774L527.379 246.844C540.204 282.353 570.538 344.788 595.383 341.023C612.237 338.522 616.054 321.879 613.729 309.827C615.454 307.645 660.87 260.062 660.87 260.062C660.87 260.062 725.304 370.627 606.398 401.998C533.476 421.159 491.031 319.636 474.436 268.774Z" fill="#FB9F78"/>
<path d="M516.459 297.95L487.492 309.949C483.675 311.53 479.291 309.754 477.734 305.996C476.177 302.239 478.022 297.883 481.839 296.302L510.806 284.303C514.623 282.722 519.008 284.498 520.564 288.256C522.141 291.967 520.276 296.369 516.459 297.95Z" fill="#FB9F78"/>
<path d="M510.795 284.278L481.829 296.276C478.011 297.858 473.627 296.082 472.07 292.324C470.514 288.566 472.358 284.211 476.176 282.629L505.142 270.631C508.96 269.05 513.344 270.825 514.901 274.583C516.477 278.294 514.613 282.697 510.795 284.278Z" fill="#FB9F78"/>
<path d="M505.127 270.592L476.16 282.59C472.343 284.172 467.958 282.396 466.402 278.638C464.845 274.88 466.69 270.525 470.507 268.943L499.474 256.945C503.291 255.364 507.675 257.139 509.232 260.897C510.822 264.641 508.944 269.011 505.127 270.592Z" fill="#FB9F78"/>
<path d="M501.6 252.706L473.982 238.502C470.336 236.614 468.949 232.129 470.866 228.516C472.816 224.889 477.366 223.467 480.999 225.323L514.396 236.051C518.043 237.939 513.636 245.866 511.733 249.512C509.817 253.126 505.246 254.594 501.6 252.706Z" fill="#FB9F78"/>
<path d="M499.461 256.913L443.637 280.035C439.82 281.617 435.436 279.841 433.879 276.083C432.323 272.325 434.167 267.97 437.985 266.388L493.808 243.266C497.625 241.684 502.009 243.46 503.566 247.218C505.142 250.929 503.278 255.331 499.461 256.913Z" fill="#FB9F78"/>
<path d="M543.853 286.613L495.464 306.656L472.798 251.936L508.563 237.122C515.528 234.237 523.495 237.463 526.335 244.32L543.853 286.613Z" fill="#FB9F78"/>
</g>
<g clip-path="url(#clip2_14355_14531)">
<rect x="181.847" y="307.467" width="211.843" height="208.533" rx="104.266" fill="#FFC200"/>
<path d="M76.9315 460.587L93.3292 423.949L214.215 476.203L164.869 498.575L76.9315 460.587Z" fill="#E07C5C"/>
<path d="M360.647 455.482L268.057 491.144C264.32 492.57 260.126 490.768 258.676 487.089L226.186 405.256C216.271 380.33 228.932 352.026 254.177 342.266L268.21 336.861C293.531 327.101 322.284 339.564 332.199 364.414L364.69 446.248C366.215 449.851 364.385 454.056 360.647 455.482Z" fill="#141414"/>
<path d="M303.37 446.48L302.455 446.855C278.583 456.015 251.355 444.303 242.05 420.804L237.855 410.293C228.551 386.794 240.448 359.991 264.32 350.832L265.236 350.457C289.108 341.297 316.336 353.009 325.64 376.508L329.835 387.019C339.14 410.518 327.242 437.32 303.37 446.48Z" fill="#E07C5C"/>
<path d="M283.006 394.519L285.522 413.814L294.446 410.36L283.006 394.519Z" fill="#B20D1A"/>
<path d="M279.346 422.667C281.787 428.448 289.337 430.925 296.43 428.222C303.447 425.52 307.337 418.613 305.125 412.757L279.346 422.667Z" fill="white"/>
<path d="M249.297 416.065C249.297 411.09 245.2 407.056 240.145 407.056C235.09 407.056 230.993 411.09 230.993 416.065C230.993 421.041 235.09 425.075 240.145 425.075C245.2 425.075 249.297 421.041 249.297 416.065Z" fill="#E07C5C"/>
<path d="M337.613 383.635C337.613 378.659 333.515 374.626 328.461 374.626C323.406 374.626 319.308 378.659 319.308 383.635C319.308 388.611 323.406 392.644 328.461 392.644C333.515 392.644 337.613 388.611 337.613 383.635Z" fill="#E07C5C"/>
<path d="M266.684 404.28C266.684 403.99 266.445 403.754 266.15 403.754C265.855 403.754 265.616 403.99 265.616 404.28C265.616 404.57 265.855 404.805 266.15 404.805C266.445 404.805 266.684 404.57 266.684 404.28Z" fill="white"/>
<path d="M308.708 389.944C308.708 387.041 306.318 384.688 303.369 384.688C300.421 384.688 298.03 387.041 298.03 389.944C298.03 392.846 300.421 395.199 303.369 395.199C306.318 395.199 308.708 392.846 308.708 389.944Z" fill="black"/>
<path d="M270.955 404.804C270.955 401.901 268.564 399.548 265.616 399.548C262.667 399.548 260.277 401.901 260.277 404.804C260.277 407.706 262.667 410.059 265.616 410.059C268.564 410.059 270.955 407.706 270.955 404.804Z" fill="black"/>
<path d="M177.434 450.749L429.517 450.749L429.517 492.191L367.739 499.474L366.748 509.984L270.115 524.689L177.434 509.984L177.434 450.749Z" fill="#F6E4B4"/>
<path d="M345.241 515.624L345.241 450.833L336.317 450.833L336.317 515.624L345.241 515.624Z" fill="#FF2C3C"/>
<path d="M252.56 515.624L252.56 450.833L243.636 450.833L243.636 515.624L252.56 515.624Z" fill="#FF2C3C"/>
<path d="M264.697 350.004C264.697 350.004 258.596 397.453 236.707 407.663C236.707 407.663 222.216 392.122 233.275 370.575C244.41 349.103 264.697 350.004 264.697 350.004Z" fill="#141414"/>
<path d="M261.04 347.893C261.04 347.893 300.165 382.053 325.181 375.071C325.181 375.071 325.715 352.398 301.233 342.638C276.751 332.878 261.04 347.893 261.04 347.893Z" fill="#141414"/>
</g>
<g clip-path="url(#clip3_14355_14531)">
<rect x="431" y="347" width="114.331" height="112.721" rx="56.3603" fill="#BF40FF"/>
<path d="M428.68 539.613L445.444 466.164C445.444 466.164 452.173 429.84 482.451 428.615C501.834 427.775 502.025 428.804 512.004 429.059L518.685 409.401L556.457 419.359L536.094 471.99L520.541 545.59L428.68 539.613Z" fill="black"/>
<path d="M490.761 423.867C504.911 422.916 515.605 410.908 514.647 397.046C513.689 383.185 501.441 372.718 487.29 373.669C473.14 374.62 462.446 386.629 463.405 400.49C464.363 414.352 476.611 424.818 490.761 423.867Z" fill="#FFC1A8"/>
<mask id="mask1_14355_14531" style="mask-type:alpha" maskUnits="userSpaceOnUse" x="463" y="373" width="52" height="51">
<path d="M490.766 423.634C504.904 422.695 515.579 410.716 514.61 396.877C513.642 383.038 501.396 372.58 487.258 373.518C473.121 374.457 462.445 386.437 463.414 400.276C464.383 414.114 476.629 424.572 490.766 423.634Z" fill="#F4A483"/>
</mask>
<g mask="url(#mask1_14355_14531)">
<path d="M509.439 390.388L510.726 402.905L523.753 403.493L525.388 390.653L519.528 375.942L498.729 369.563L478.547 368.133L471.887 376.184L464.646 389.262L487.193 374.916L504.057 388.116L504.133 406.226C504.207 407.271 504.929 408.012 506.004 408.072C506.946 408.142 507.832 407.427 508.034 406.495L511.685 391.352L508.836 387.54L505.099 385.816" fill="black"/>
<path d="M471.28 381.326C471.28 381.326 482.472 391.888 498.427 382.694L486.624 372.96L475.856 377.872L471.28 381.326Z" fill="black"/>
</g>
<path d="M497.041 368.552C494.663 368.468 492.623 369.458 491.429 371.244C491.429 371.244 493.307 371.727 492.043 370.594C489.367 368.093 482.982 363.406 477.114 364.288C472.942 364.934 469.56 367.475 468.64 371.314C467.834 374.901 469.274 378.58 471.959 381.202C474.644 383.823 483.222 385.927 487.926 385.367C490.541 385.069 486.054 383.056 485.936 381.359C485.877 380.51 485.286 379.575 484.457 379.022C484.711 378.883 484.956 378.623 485.079 378.493L485.21 378.484C485.964 377.946 486.578 377.295 487.043 376.411C487.183 376.524 487.454 376.627 487.585 376.619C488.807 377.146 489.996 377.188 491.193 377.351C492.22 378.865 494.009 379.963 495.993 380.074C499.436 380.329 502.424 377.814 502.739 374.747C503.046 371.559 500.484 368.808 497.041 368.552Z" fill="black"/>
<path d="M472.293 404.927C472.748 409.062 475.868 412.449 479.625 412.765C483.55 413.069 486.916 410.192 487.825 406.155L472.293 404.927Z" fill="white"/>
<path d="M481.85 394.202L481.257 402.651L477.165 400.931L481.85 394.202Z" fill="#DD512C"/>
<path d="M470.2 397.009C470.376 395.685 471.513 394.691 472.865 394.863C474.208 394.905 475.233 396.148 475.057 397.472C475.075 397.733 475.227 397.985 475.503 398.098C475.77 398.08 476.027 397.932 476.142 397.662C476.309 396.208 475.551 394.946 474.296 394.243C473.041 393.54 471.458 393.908 470.445 394.762C469.815 395.329 469.46 396.008 469.381 396.801C469.4 397.062 469.551 397.314 469.827 397.427C469.827 397.427 470.085 397.279 470.2 397.009Z" fill="black"/>
<path d="M487.76 398.966C487.936 397.643 489.073 396.648 490.425 396.821C491.768 396.862 492.793 398.106 492.618 399.429C492.636 399.69 492.787 399.943 493.063 400.055C493.33 400.038 493.588 399.889 493.703 399.619C493.87 398.165 493.111 396.904 491.856 396.201C490.601 395.497 489.018 395.865 488.006 396.72C487.375 397.286 487.021 397.966 486.942 398.758C486.96 399.019 487.112 399.272 487.388 399.384C487.388 399.384 487.645 399.236 487.76 398.966Z" fill="black"/>
<path d="M493.939 406.264C495.355 406.169 496.425 404.968 496.329 403.581C496.233 402.194 495.007 401.147 493.592 401.242C492.176 401.337 491.106 402.539 491.202 403.926C491.298 405.313 492.523 406.36 493.939 406.264Z" fill="#EE7745"/>
<path d="M468.185 403.279C469.6 403.183 470.67 401.982 470.574 400.595C470.478 399.208 469.253 398.161 467.837 398.256C466.422 398.352 465.352 399.553 465.448 400.94C465.544 402.327 466.769 403.374 468.185 403.279Z" fill="#EE7745"/>
<path d="M417.361 472.44C417.361 472.44 409.987 503.08 392.433 498.043C379.725 494.44 381.086 460.92 382.787 442.624C384.322 442.521 384.314 442.404 385.842 442.185C387.723 441.941 389.801 441.097 390.751 439.391C391.285 438.534 391.33 437.476 391.376 436.417C391.311 435.483 391.239 434.432 391.056 433.506C390.43 431.32 388.35 430.404 386.301 429.955C385.096 429.684 385.214 429.676 384.017 429.522C384.728 426.073 385.328 422.748 386.039 419.299C386.664 416.324 387.179 413.475 387.804 410.5C388.327 407.767 388.732 405.042 388.066 402.272C387.566 400.194 386.358 398.164 384.065 397.614C382.017 397.165 380.68 398.428 379.857 400.243C378.829 402.541 378.432 405.383 378.011 407.874C377.451 411.782 377.421 413.075 376.898 415.808C376.813 416.283 376.249 418.432 376.171 419.023C376.131 418.44 376.214 416.206 376.292 415.614C376.318 412.562 376.605 409.845 376.395 406.81C376.233 404.475 376.292 401.89 375.194 399.735C373.132 395.651 367.108 396.056 365.871 400.479C365.096 402.995 365.542 406.014 365.491 408.715C365.457 411.65 365.431 414.702 365.396 417.636C365.412 417.87 365.429 418.103 365.335 418.462C365.074 418.127 364.814 417.793 364.435 417.466C363.67 416.697 362.795 416.052 361.614 416.131C360.433 416.211 359.292 416.874 358.64 417.739C357.988 418.603 357.69 419.445 357.408 420.519C357.408 420.519 357.4 420.402 357.282 420.41C356.769 419.858 356.382 419.415 355.65 419.112C355.65 419.112 355.531 419.12 355.523 419.004C355.279 418.903 354.917 418.81 354.672 418.709L354.554 418.717C354.2 418.741 353.956 418.64 353.601 418.664C353.247 418.687 352.893 418.711 352.546 418.852L352.428 418.86C352.2 418.992 351.854 419.133 351.626 419.266C351.626 419.266 351.508 419.274 351.516 419.39C351.288 419.523 351.068 419.772 350.839 419.905C350.729 420.03 350.729 420.03 350.619 420.154C350.619 420.154 350.619 420.154 350.509 420.279C349.401 421.409 349.176 423.301 348.926 424.843C348.693 426.618 348.814 428.369 348.825 430.245L348.866 435.99C348.861 437.632 348.526 439.649 349.112 441.252C349.579 442.862 350.935 443.592 352.376 443.847C349.318 469.975 346.957 526.788 384.483 532.359C433.406 539.745 441.78 485.812 441.78 485.812L417.361 472.44Z" fill="#FFC1A8"/>
<path d="M500.503 428.364C500.503 428.364 481.049 426.615 457.711 431.592C435.92 436.231 415.25 478.056 415.25 478.056C415.25 478.056 419.991 494.194 443.855 496.821" fill="black"/>
</g>
<g clip-path="url(#clip4_14355_14531)">
<rect x="214" y="147" width="136.328" height="134.602" rx="67.3011" fill="#EA4600"/>
<path d="M338.573 347.224V282.357C338.573 259.662 317.082 240.899 290.859 240.899H281.789C255.566 240.899 234.075 259.484 234.075 282.357V347.403H338.573V347.224Z" fill="#CBE0FF"/>
<path d="M323.404 304.133L361.28 291.183L344.502 246.801C342.044 239.762 334.193 236.012 327.064 238.438L315.097 242.534C307.968 244.96 304.169 252.712 306.627 259.751L323.404 304.133Z" fill="#CBE0FF"/>
<path d="M212.446 292.432L255.986 304.136L263.009 268.348C266.05 257.892 259.887 246.862 249.296 243.86L244.806 242.577C234.215 239.575 223.044 245.659 220.004 256.116L212.446 292.432Z" fill="#CBE0FF"/>
<path d="M279.785 237.569C297.556 237.569 311.963 223.913 311.963 207.067C311.963 190.221 297.556 176.565 279.785 176.565C262.013 176.565 247.606 190.221 247.606 207.067C247.606 223.913 262.013 237.569 279.785 237.569Z" fill="#D99986"/>
<mask id="mask2_14355_14531" style="mask-type:alpha" maskUnits="userSpaceOnUse" x="247" y="176" width="65" height="62">
<path d="M279.785 237.569C297.557 237.569 311.963 223.912 311.963 207.066C311.963 190.22 297.557 176.564 279.785 176.564C262.013 176.564 247.606 190.22 247.606 207.066C247.606 223.912 262.013 237.569 279.785 237.569Z" fill="#C18674"/>
</mask>
<g mask="url(#mask2_14355_14531)">
<path d="M243.19 213.463H323.321L304.182 240.775H270.111L249.289 232.003L243.19 213.463Z" fill="#121212"/>
<path d="M306.285 191.319H294.507V216.04H306.285V191.319Z" fill="#121212"/>
<path d="M294.507 191.326L270.724 179.962L250.895 191.326L254.126 179.962L261.697 169.994H286.304L312.173 175.775L320.586 192.721L319.745 216.445L303.971 216.844L301.026 193.519" fill="#121212"/>
</g>
<path d="M257.491 185.942C257.491 185.942 270.741 196.308 287.566 185.344L273.685 175.774L262.118 181.755L257.491 185.942Z" fill="#121212"/>
<path d="M270.11 190.128C278.59 190.128 285.464 183.612 285.464 175.575C285.464 167.537 278.59 161.021 270.11 161.021C261.631 161.021 254.757 167.537 254.757 175.575C254.757 183.612 261.631 190.128 270.11 190.128Z" fill="#121212"/>
<path d="M286.094 185.739C290.392 185.739 293.876 182.437 293.876 178.363C293.876 174.289 290.392 170.987 286.094 170.987C281.797 170.987 278.313 174.289 278.313 178.363C278.313 182.437 281.797 185.739 286.094 185.739Z" fill="#121212"/>
<path d="M304.182 194.115C303.971 194.115 303.551 194.115 303.341 194.115V213.653C303.551 213.653 303.971 213.653 304.182 213.653C309.86 213.653 314.487 209.267 314.487 203.884C314.487 198.501 309.86 194.115 304.182 194.115Z" fill="#D99986"/>
<path d="M263.38 216.837C264.011 220.226 267.166 222.818 270.952 222.818C274.738 222.818 277.892 220.226 278.523 216.837H263.38Z" fill="white"/>
<path d="M269.889 200.168L271.705 210.263H266.337L269.889 200.168Z" fill="#7B301E"/>
<path d="M262.066 204.847C263.525 204.847 264.707 203.679 264.707 202.239C264.707 200.798 263.525 199.631 262.066 199.631C260.607 199.631 259.424 200.798 259.424 202.239C259.424 203.679 260.607 204.847 262.066 204.847Z" fill="#121212"/>
<path d="M277.434 204.847C278.892 204.847 280.075 203.679 280.075 202.239C280.075 200.798 278.892 199.631 277.434 199.631C275.975 199.631 274.792 200.798 274.792 202.239C274.792 203.679 275.975 204.847 277.434 204.847Z" fill="#121212"/>
</g>
<g clip-path="url(#clip5_14355_14531)">
<rect x="38" y="19" width="175.522" height="169.886" rx="84.943" fill="#CBE0FF"/>
<path d="M266.34 267.871C219.66 234.948 199.906 168.635 199.906 168.635L188.689 164.954L160.888 181.701C160.888 181.701 182.124 259.019 249.199 296.51" fill="#FFC5AC"/>
<path d="M89.5627 84.3423C89.5627 84.3423 72.3051 89.1389 69.5066 80.5615C66.9996 72.6612 77.8439 60.4722 89.5627 51.669C89.5627 51.669 109.619 36.0941 128.859 36.7149C128.859 36.7149 146 38.9721 132.707 56.522" fill="#FF2B59"/>
<path d="M91.3037 51.723C91.3037 51.723 87.3391 50.3686 85.6483 49.635C83.9576 48.9014 85.6483 46.6442 85.6483 46.6442C85.6483 46.6442 87.6889 43.7663 89.0882 45.3463C90.4875 46.9264 93.286 50.4251 93.286 50.4251" fill="#FF2B59"/>
<path fill-rule="evenodd" clip-rule="evenodd" d="M135.356 56.3356H122.223C109.343 56.3356 98.1539 63.7575 93.0252 74.4054L92.9985 74.4037L92.9318 74.6013C92.3199 75.895 91.7973 77.2356 91.3716 78.6157C91.1124 79.4656 90.888 80.3282 90.7009 81.2034L36.6921 241.042H156.278L167.12 94.7895C168.88 93.8398 170.076 92.0189 170.076 89.9406C170.076 71.4509 154.46 56.3356 135.356 56.3356Z" fill="#151115"/>
<path d="M170.991 102.325C173.14 82.0791 157.81 63.913 136.748 61.8329C115.687 59.7066 96.8707 74.4521 94.6739 94.6984C92.5248 114.945 107.855 133.111 128.916 135.191C149.977 137.271 168.794 122.572 170.991 102.325Z" fill="#FFC5AC"/>
<path d="M183.403 250.847H68.307V179.153C68.307 158.675 85.5953 141.942 106.752 141.942H144.91C166.067 141.942 183.355 158.675 183.355 179.153V250.847H183.403Z" fill="#BF40FF"/>
<path d="M91.3805 109.49C97.6579 109.49 102.747 104.564 102.747 98.4883C102.747 92.4124 97.6579 87.4869 91.3805 87.4869C85.103 87.4869 80.0141 92.4124 80.0141 98.4883C80.0141 104.564 85.103 109.49 91.3805 109.49Z" fill="#FFC5AC"/>
<path d="M160.371 190.957L207.392 175.197L198.12 149.263C195.069 140.697 185.321 136.132 176.471 139.085L161.614 144.07C152.763 147.023 148.047 156.457 151.098 165.023L160.371 190.957Z" fill="#BF40FF"/>
<mask id="mask3_14355_14531" style="mask-type:alpha" maskUnits="userSpaceOnUse" x="94" y="61" width="78" height="75">
<path d="M170.991 102.325C173.14 82.0791 157.81 63.913 136.748 61.8329C115.687 59.7066 96.8707 74.4521 94.6739 94.6984C92.5248 114.945 107.855 133.111 128.916 135.191C149.977 137.271 168.794 122.572 170.991 102.325Z" fill="#EFA383"/>
</mask>
<g mask="url(#mask3_14355_14531)">
<path d="M162.539 66.598L145.441 54.1637L115.449 52.5459L94.4837 81.0662L95.9164 88.4621C129.729 86.1971 136.463 67.0603 136.463 67.0603C136.463 67.0603 148.116 87.9074 170.084 89.664L174.717 82.9152L162.539 66.598Z" fill="#151115"/>
</g>
<path d="M121.185 99.0494C123.269 99.0494 124.958 97.4145 124.958 95.3977C124.958 93.3809 123.269 91.746 121.185 91.746C119.101 91.746 117.412 93.3809 117.412 95.3977C117.412 97.4145 119.101 99.0494 121.185 99.0494Z" fill="black"/>
<path d="M117.787 106.714C118.216 103.432 115.781 100.474 112.39 100.104C108.999 99.6883 105.895 102.046 105.513 105.281C105.083 108.563 107.519 111.522 110.909 111.892C114.3 112.261 117.357 109.95 117.787 106.714Z" fill="#FF7700"/>
<path d="M150.355 98.943C152.439 98.943 154.128 97.3081 154.128 95.2913C154.128 93.2745 152.439 91.6396 150.355 91.6396C148.271 91.6396 146.582 93.2745 146.582 95.2913C146.582 97.3081 148.271 98.943 150.355 98.943Z" fill="black"/>
<path d="M153.322 106.719C153.036 103.437 155.567 100.571 158.957 100.293C162.348 100.016 165.357 102.42 165.644 105.702C165.93 108.984 163.399 111.85 160.008 112.127C156.617 112.404 153.609 110.001 153.322 106.719Z" fill="#FF7700"/>
<path d="M135.786 93.6824L130.628 108.243L140.418 108.428L135.786 93.6824Z" fill="#FF7700"/>
<path d="M124.995 113.005C125.711 118.506 130.153 121.094 135.502 121.187C140.659 121.233 145.053 118.783 146.199 113.329L124.995 113.005Z" fill="white"/>
<path d="M145.08 346.527C66.1612 289.069 85.3764 189.094 85.3764 189.094L70.9707 178.369L43.4105 177.368C43.4105 177.368 34.8493 236.124 62.5427 303.441C77.5013 339.731 112.838 367.477 130.016 376.601C130.619 375.497 144.163 348.566 145.08 346.527Z" fill="#FFC5AC"/>
<path d="M39.9281 176.441L93.3182 191.328L99.2218 171.434C102.996 158.708 95.3456 145.285 82.1972 141.632L76.623 140.07C63.4746 136.416 49.6063 143.821 45.8317 156.548L39.9281 176.441Z" fill="#BF40FF"/>
<path d="M150.405 166.785L151.012 165.823L156.45 165.884L156.476 163.5L150.442 163.433L150.405 166.785Z" fill="white"/>
<path d="M150.362 170.659L150.969 169.697L156.407 169.757L156.433 167.374L150.399 167.306L150.362 170.659Z" fill="white"/>
<path d="M164.057 158.518C163.547 157.469 162.736 156.715 161.699 156.107C160.662 155.574 159.697 155.265 156.941 155.235L150.162 155.159C147.331 155.128 146.285 155.414 145.311 155.925C144.262 156.435 143.434 157.245 142.901 158.282C142.368 159.319 142.059 160.284 142.028 163.041L141.953 169.82C141.922 172.576 142.208 173.622 142.719 174.597C143.23 175.571 144.04 176.4 145.076 177.007C146.113 177.54 147.078 177.849 149.835 177.88L156.613 177.955C159.37 177.986 160.416 177.699 161.39 177.189C162.439 176.679 163.193 175.868 163.8 174.831C164.333 173.794 164.642 172.829 164.673 170.073L164.748 163.294C164.854 160.538 164.567 159.492 164.057 158.518ZM158.011 172.904C158.007 173.277 157.93 173.499 157.259 173.492L157.036 173.489C156.44 173.483 156.293 173.258 156.297 172.885L156.317 171.172L150.283 171.105L150.264 172.818C150.259 173.191 150.182 173.413 149.512 173.406L149.363 173.404C148.767 173.397 148.621 173.172 148.625 172.8L148.764 160.285C148.768 159.912 148.845 159.689 149.516 159.697L149.739 159.699C150.335 159.706 150.482 159.931 150.477 160.304L150.448 162.985L151.054 162.024L156.492 162.084L156.511 160.371C156.515 159.998 156.592 159.776 157.263 159.783L157.486 159.786C158.082 159.792 158.229 160.017 158.225 160.39L158.085 172.905L158.011 172.904Z" fill="white"/>
</g>
<g clip-path="url(#clip6_14355_14531)">
<rect y="226.349" width="165.905" height="162.64" rx="81.3198" fill="#0066FF"/>
<path d="M44.1675 381.31L51.8164 439.969C54.0018 453.201 52.8098 454.584 44.0681 460.608L35.1278 464.163C21.5187 468.212 9.99561 460.311 7.8102 447.079L0.260597 388.322L44.1675 381.31Z" fill="#D48F89"/>
<path d="M155.084 393.108L133.393 381.829C131.011 380.591 128.072 381.51 126.828 383.882C125.585 386.254 126.507 389.182 128.889 390.42L150.58 401.699C152.962 402.937 155.901 402.018 157.145 399.646C158.389 397.274 157.466 394.346 155.084 393.108Z" fill="#F6AE91"/>
<path d="M134.794 326.194C134.794 326.194 155.302 311.053 186.369 312.814C217.436 314.575 238.765 345.555 234.377 379.926C230.043 413.864 197.332 433.057 158.833 434.002C120.335 434.948 120.175 434.024 120.175 434.024L121.998 393.56C121.998 393.56 195.427 399.114 192.277 370.451C192.277 370.451 190.228 349.063 157.807 364.467L134.794 326.194Z" fill="#F6AE91"/>
<path d="M14.515 402.8L36.2057 391.521C38.5878 390.283 39.5105 387.355 38.2668 384.983C37.023 382.611 34.0837 381.692 31.7016 382.93L10.011 394.209C7.62888 395.447 6.70607 398.375 7.94981 400.747C9.19356 403.119 12.1329 404.038 14.515 402.8Z" fill="#F6AE91"/>
<path d="M31.5198 327.391C31.5198 327.391 11.0118 312.253 -20.0556 314.012C-51.1229 315.77 -72.4518 346.753 -68.0633 381.126C-63.7298 415.064 -31.0182 434.254 7.48011 435.202C45.9785 436.15 46.1383 435.224 46.1383 435.224L44.3152 394.757C44.3152 394.757 -29.114 400.313 -25.9641 371.648C-25.9641 371.648 -23.9142 350.26 8.50621 365.664L31.5198 327.391Z" fill="#F6AE91"/>
<path d="M51.1604 347.007L44.2615 364.859C42.602 369.153 39.2976 372.615 35.0753 374.483C30.853 376.35 26.0587 376.471 21.7469 374.819L-3.49246 365.145L15.9188 314.917L41.1603 324.591C45.4707 326.244 48.9456 329.534 50.8208 333.737C52.6961 337.941 52.8182 342.714 51.1604 347.007Z" fill="#FFC200"/>
<path d="M153.822 314.874L173.278 364.926L148.125 374.623C143.828 376.279 139.046 376.168 134.832 374.314C130.618 372.459 127.316 369.014 125.653 364.735L118.74 346.95C117.076 342.671 117.188 337.909 119.05 333.712C120.913 329.515 124.372 326.227 128.669 324.571L153.822 314.874Z" fill="#FFC200"/>
<path d="M55.1786 338.157H110.333C113.677 338.157 116.988 338.812 120.077 340.086C123.166 341.36 125.972 343.228 128.337 345.582C130.701 347.937 132.576 350.732 133.855 353.808C135.134 356.885 135.791 360.182 135.791 363.512V446.539H29.7262L29.7262 363.512C29.7252 360.182 30.3829 356.886 31.6616 353.81C32.9402 350.733 34.8149 347.938 37.1785 345.584C39.542 343.229 42.3482 341.362 45.4367 340.087C48.5252 338.813 51.8355 338.157 55.1786 338.157Z" fill="#FFC200"/>
<path d="M71.5764 256.613H95.5636C102.75 256.613 109.642 259.456 114.724 264.517C119.805 269.578 122.66 276.441 122.66 283.598V300.21C122.66 300.966 122.358 301.691 121.821 302.226C121.284 302.761 120.556 303.061 119.797 303.061H47.3386C46.5792 303.061 45.8508 302.761 45.3138 302.226C44.7768 301.691 44.4751 300.966 44.4751 300.21V283.598C44.4751 280.054 45.1761 276.545 46.5381 273.27C47.9002 269.996 49.8965 267.021 52.4132 264.515C54.9298 262.009 57.9175 260.022 61.2055 258.666C64.4936 257.31 68.0176 256.613 71.5764 256.613Z" fill="#4D2F0A"/>
<path d="M120.569 301.785C122.664 281.573 107.807 263.486 87.3805 261.385C66.9537 259.284 48.7008 273.966 46.6032 294.18C44.5057 314.395 59.3652 332.48 79.7897 334.58C100.214 336.681 118.472 321.997 120.569 301.785Z" fill="#F6AE91"/>
<path d="M70.1163 296.036C72.0339 296.036 73.5884 294.488 73.5884 292.579C73.5884 290.669 72.0339 289.121 70.1163 289.121C68.1987 289.121 66.6442 290.669 66.6442 292.579C66.6442 294.488 68.1987 296.036 70.1163 296.036Z" fill="black"/>
<path d="M97.0493 296.036C98.9669 296.036 100.521 294.488 100.521 292.579C100.521 290.669 98.9669 289.121 97.0493 289.121C95.1317 289.121 93.5772 290.669 93.5772 292.579C93.5772 294.488 95.1317 296.036 97.0493 296.036Z" fill="black"/>
<path d="M83.587 291.001L79.0721 304.917H88.1019L83.587 291.001Z" fill="#FC6423"/>
<path d="M119.692 286.839C108.524 291.4 106.568 274.161 106.568 274.161C106.568 274.161 98.5734 277.588 82.0768 277.45C65.5802 277.312 59.8841 274.161 59.8841 274.161C59.8841 274.161 61.0128 292.222 46.7594 286.839L46.0435 284.347L48.752 275.532L51.8542 270.047L71.1833 261.666L89.0544 260.715L98.7738 261.01L110.063 267.314L118.272 274.993L119.692 286.839Z" fill="#4D2F0A"/>
<path d="M46.2609 307.962C52.1177 307.962 56.8656 303.233 56.8656 297.401C56.8656 291.568 52.1177 286.84 46.2609 286.84C40.404 286.84 35.6561 291.568 35.6561 297.401C35.6561 303.233 40.404 307.962 46.2609 307.962Z" fill="#F6AE91"/>
<path d="M120.908 307.962C126.765 307.962 131.513 303.233 131.513 297.401C131.513 291.568 126.765 286.84 120.908 286.84C115.052 286.84 110.304 291.568 110.304 297.401C110.304 303.233 115.052 307.962 120.908 307.962Z" fill="#F6AE91"/>
<path d="M67.1647 302.643C67.3153 301.145 66.8621 299.649 65.9049 298.483C64.9477 297.318 63.5648 296.579 62.0604 296.429C60.557 296.27 59.0517 296.712 57.8756 297.658C56.6996 298.604 55.9491 299.977 55.7892 301.474C55.7143 302.216 55.7869 302.965 56.0029 303.678C56.2188 304.392 56.5738 305.056 57.0476 305.633C57.5214 306.21 58.1047 306.688 58.7642 307.04C59.4237 307.393 60.1464 307.612 60.8911 307.686C62.3946 307.846 63.9001 307.404 65.0767 306.459C66.2532 305.513 67.0043 304.14 67.1647 302.643Z" fill="#FC6423"/>
<path d="M100.008 302.643C99.8579 301.145 100.311 299.649 101.268 298.483C102.226 297.318 103.608 296.579 105.113 296.429C106.616 296.27 108.121 296.713 109.297 297.659C110.473 298.605 111.223 299.977 111.384 301.474C111.534 302.972 111.08 304.468 110.123 305.632C109.166 306.797 107.784 307.536 106.28 307.686C105.535 307.765 104.783 307.697 104.065 307.487C103.347 307.276 102.677 306.927 102.095 306.459C101.513 305.99 101.029 305.412 100.671 304.758C100.313 304.103 100.088 303.385 100.008 302.643Z" fill="#FC6423"/>
<path d="M107.103 274.772C107.103 274.772 126.37 269.068 121.919 261.72C118.564 256.171 101.734 265.876 101.734 265.876" fill="#4D2F0A"/>
<path d="M110.37 262.127C110.37 262.127 120.912 258.405 115.171 252.362C111.861 248.878 108.89 253.312 89.542 257.077" fill="#4D2F0A"/>
<path d="M93.4969 311.988C93.3061 311.401 92.9657 310.874 92.509 310.457C91.5998 309.625 90.4042 309.007 89.1347 309.064C87.8809 309.121 86.6867 309.614 85.7605 310.457C84.6699 311.434 84.1426 311.46 83.2191 311.436C82.2068 311.358 81.2514 310.939 80.5106 310.248C80.1335 309.898 79.6839 309.634 79.1934 309.476C78.6287 309.178 77.9942 309.036 77.3559 309.064C76.7167 309.035 76.0814 309.177 75.5161 309.476C74.9268 309.664 74.3972 310.003 73.9793 310.457C73.144 311.363 72.526 312.553 72.5833 313.817C72.6374 314.24 72.6938 314.662 72.7527 315.082C72.9722 315.875 73.3949 316.598 73.9793 317.18C74.6648 317.75 75.3897 318.271 76.1484 318.739C76.5831 319.002 77.0324 319.24 77.4943 319.452C78.3886 319.88 79.3159 320.236 80.2672 320.517C82.2608 321.05 84.3554 321.086 86.3666 320.624C87.2971 320.381 88.1999 320.043 89.0608 319.616C89.4865 319.42 89.8965 319.192 90.2873 318.934C90.9376 318.498 91.56 318.021 92.151 317.508C92.2751 317.404 92.3896 317.294 92.509 317.18C93.3876 316.277 93.8876 315.075 93.9073 313.817C93.9358 313.182 93.7941 312.551 93.4969 311.988Z" fill="white"/>
<path d="M102.743 362.862L103.35 361.9L108.788 361.961L108.814 359.577L102.781 359.51L102.743 362.862Z" fill="white"/>
<path d="M102.7 366.736L103.307 365.774L108.745 365.835L108.771 363.451L102.737 363.383L102.7 366.736Z" fill="white"/>
<path d="M116.395 354.595C115.885 353.546 115.074 352.792 114.038 352.184C113.001 351.651 112.035 351.343 109.279 351.312L102.5 351.236C99.6697 351.205 98.6235 351.491 97.6493 352.002C96.6006 352.512 95.7721 353.322 95.239 354.359C94.706 355.396 94.3972 356.362 94.3665 359.118L94.291 365.897C94.2604 368.653 94.5467 369.7 95.0574 370.674C95.5681 371.648 96.3783 372.477 97.4146 373.084C98.4517 373.617 99.4168 373.926 102.173 373.957L108.952 374.032C111.708 374.063 112.754 373.777 113.728 373.266C114.777 372.756 115.531 371.945 116.139 370.909C116.672 369.871 116.981 368.906 117.011 366.15L117.087 359.371C117.192 356.615 116.906 355.569 116.395 354.595ZM110.349 368.981C110.345 369.354 110.268 369.577 109.598 369.569L109.374 369.567C108.778 369.56 108.632 369.335 108.636 368.962L108.655 367.249L102.621 367.182L102.602 368.895C102.598 369.268 102.521 369.49 101.85 369.483L101.701 369.481C101.105 369.475 100.959 369.249 100.963 368.877L101.102 356.362C101.107 355.989 101.183 355.767 101.854 355.774L102.077 355.777C102.673 355.783 102.82 356.008 102.816 356.381L102.786 359.063L103.393 358.101L108.83 358.161L108.85 356.448C108.854 356.076 108.931 355.853 109.601 355.86L109.825 355.863C110.421 355.869 110.567 356.095 110.563 356.467L110.424 368.982L110.349 368.981Z" fill="white"/>
</g>
<g clip-path="url(#clip7_14355_14531)">
<rect x="279" y="-6" width="94.2599" height="92.7062" rx="46.3531" fill="#7A55FC"/>
<path d="M356.144 118.989H297.355V75.7212C297.355 66.9512 304.647 59.7797 313.564 59.7797H339.95C348.867 59.7797 356.159 66.9512 356.159 75.7212V118.989H356.144Z" fill="#020203"/>
<path d="M304.991 86.036L279.45 78.2689L282.298 66.8535C284.065 59.7757 290.766 55.5727 297.178 57.5229L299.387 58.1953C305.798 60.1455 309.606 67.5428 307.839 74.6207L304.991 86.036Z" fill="#020203"/>
<path d="M347.552 87.3245L373.775 79.0131L370.951 67.1894C369.198 59.8692 362.552 55.5222 356.193 57.5392L353.111 58.5129C346.752 60.5299 342.975 68.1805 344.728 75.5008L347.552 87.3245Z" fill="#020203"/>
<path d="M356.053 108.802C348.791 108.802 368.126 115.394 368.126 115.394L364.653 123.363C364.653 123.363 341.494 119.544 365.587 117.602C379.67 114.381 371.81 79.592 371.81 79.592L356.14 84.52L356.053 98.4595" fill="#FFBEA3"/>
<path d="M297.52 109.702C304.781 109.702 292.89 106.287 292.89 106.287L284.787 142.715C284.787 142.715 311.861 119.467 287.768 117.525C272.572 117.525 281.742 78.9492 281.742 78.9492L297.427 83.7742L297.217 98.64" fill="#FFBEA3"/>
<path d="M349.506 37.094C350.813 24.5888 341.501 13.3984 328.71 12.0986C315.919 10.7987 304.465 19.8825 303.159 32.3877C301.853 44.8929 311.149 56.0833 323.955 57.3832C336.746 58.6979 348.185 49.5992 349.506 37.094Z" fill="#FFBEA3"/>
<path d="M317.894 33.7193C319.094 33.7193 320.066 32.7627 320.066 31.5828C320.066 30.4028 319.094 29.4463 317.894 29.4463C316.694 29.4463 315.722 30.4028 315.722 31.5828C315.722 32.7627 316.694 33.7193 317.894 33.7193Z" fill="#020203"/>
<path d="M334.771 33.3768C335.971 33.3768 336.943 32.4203 336.943 31.2403C336.943 30.0604 335.971 29.1039 334.771 29.1039C333.571 29.1039 332.599 30.0604 332.599 31.2403C332.599 32.4203 333.571 33.3768 334.771 33.3768Z" fill="#020203"/>
<path d="M302.441 39.7401C305.755 39.7401 308.441 37.0979 308.441 33.8386C308.441 30.5793 305.755 27.9371 302.441 27.9371C299.127 27.9371 296.44 30.5793 296.44 33.8386C296.44 37.0979 299.127 39.7401 302.441 39.7401Z" fill="#FFBEA3"/>
<path d="M350.597 39.7401C347.283 39.7401 344.597 37.0979 344.597 33.8386C344.597 30.5793 347.283 27.9371 350.597 27.9371C353.911 27.9371 356.597 30.5793 356.597 33.8386C356.597 37.0979 353.911 39.7401 350.597 39.7401Z" fill="#FFBEA3"/>
<mask id="mask4_14355_14531" style="mask-type:alpha" maskUnits="userSpaceOnUse" x="303" y="11" width="47" height="47">
<path d="M349.506 37.094C350.813 24.5888 341.501 13.3984 328.71 12.0986C315.919 10.7987 304.465 19.8826 303.159 32.3877C301.853 44.8929 311.149 56.0834 323.955 57.3832C336.746 58.6979 348.185 49.5992 349.506 37.094Z" fill="#F0A484"/>
</mask>
<g mask="url(#mask4_14355_14531)">
<path d="M348.611 28.1165C341.866 30.9403 341.121 20.706 341.121 20.706C341.121 20.706 336.291 22.8276 326.326 22.7379C316.36 22.6483 312.927 20.706 312.927 20.706C312.927 20.706 312.654 31.4333 304.041 28.1016L303.615 26.5627L306.198 21.5577L308.066 18.1662L319.809 10.4569L330.609 9.85925L336.427 12.5784L343.248 16.4779L348.216 21.229L348.611 28.1165Z" fill="#DC691C"/>
</g>
<path d="M316.041 38.2489C316.239 36.3216 314.811 34.6034 312.836 34.4092C310.861 34.215 309.114 35.6044 308.901 37.5318C308.704 39.4591 310.132 41.1772 312.107 41.3715C314.082 41.5806 315.844 40.1762 316.041 38.2489Z" fill="#F47C25"/>
<path d="M336.624 37.9017C336.427 35.9743 337.855 34.2562 339.83 34.062C341.804 33.8677 343.551 35.2572 343.764 37.1845C343.961 39.1118 342.534 40.83 340.559 41.0242C338.584 41.2334 336.822 39.829 336.624 37.9017Z" fill="#F47C25"/>
<path d="M326.326 30.43L323.5 39.0357H329.166L326.326 30.43Z" fill="#F47C25"/>
<path d="M319.808 41.0414C319.869 44.5225 322.77 47.3313 326.325 47.3313C329.894 47.3313 332.781 44.5225 332.842 41.0414H319.808Z" fill="white"/>
<path d="M345.843 12.5611C349.789 14.2803 344.198 18.3365 340.909 20.1498L331.817 18.9409L327.166 12.2925C330.079 10.7927 336.398 7.3232 339.077 10.0093C339.983 10.9182 339.414 12.1611 338.243 13.3108C340.835 12.2391 343.694 11.6251 345.843 12.5611Z" fill="#DC691C"/>
</g>
</g>
<defs>
<clipPath id="clip0_14355_14531">
<rect width="500" height="492" fill="white"/>
</clipPath>
<clipPath id="clip1_14355_14531">
<rect x="340.517" y="118.284" width="246.375" height="242.526" rx="121.263" transform="rotate(-22.5 340.517 118.284)" fill="white"/>
</clipPath>
<clipPath id="clip2_14355_14531">
<rect x="181.847" y="307.467" width="211.843" height="208.533" rx="104.266" fill="white"/>
</clipPath>
<clipPath id="clip3_14355_14531">
<rect x="431" y="347" width="114.331" height="112.721" rx="56.3603" fill="white"/>
</clipPath>
<clipPath id="clip4_14355_14531">
<rect x="214" y="147" width="136.328" height="134.602" rx="67.3011" fill="white"/>
</clipPath>
<clipPath id="clip5_14355_14531">
<rect x="38" y="19" width="175.522" height="169.886" rx="84.943" fill="white"/>
</clipPath>
<clipPath id="clip6_14355_14531">
<rect y="226.349" width="165.905" height="162.64" rx="81.3198" fill="white"/>
</clipPath>
<clipPath id="clip7_14355_14531">
<rect x="279" y="-6" width="94.2599" height="92.7062" rx="46.3531" fill="white"/>
</clipPath>
</defs>
</svg>
