<svg width="402" height="344" viewBox="0 0 402 344" fill="none" xmlns="http://www.w3.org/2000/svg">
<g clip-path="url(#clip0_14355_15824)">
<path d="M30.1186 300.435L49.2689 309.474L44.4692 319.638C42.4349 323.946 37.2927 325.789 32.9838 323.755L29.4374 322.082C25.1285 320.048 23.2846 314.907 25.3189 310.599L30.1186 300.435Z" fill="#FF8833"/>
<path d="M28.6578 298.013C28.9044 297.491 29.5277 297.267 30.05 297.514L51.5645 307.669C52.0868 307.915 52.3103 308.538 52.0637 309.06L51.8405 309.533C51.5939 310.055 50.9706 310.279 50.4483 310.032L28.9338 299.877C28.4115 299.631 28.188 299.008 28.4346 298.486L28.6578 298.013Z" fill="#FF8833"/>
<path d="M22.4878 325.161C22.7344 324.639 23.3577 324.416 23.88 324.662L34.519 329.684C35.0413 329.93 35.2648 330.553 35.0182 331.076L34.3485 332.494L21.8181 326.579L22.4878 325.161Z" fill="#FF8833"/>
<path d="M19.4813 326.632C19.7279 326.11 20.3512 325.886 20.8735 326.133L35.5317 333.051C36.054 333.298 36.2775 333.921 36.0309 334.443L34.9147 336.807C34.6681 337.329 34.0448 337.553 33.5225 337.306L18.8643 330.387C18.342 330.141 18.1185 329.518 18.3651 328.995L19.4813 326.632Z" fill="#FF5C00"/>
<path d="M33.0082 314.518L36.7909 316.303L30.6518 329.303L26.8691 327.518L33.0082 314.518Z" fill="#FF8833"/>
<path fill-rule="evenodd" clip-rule="evenodd" d="M21.862 301.097C22.5501 299.769 24.1131 299.48 25.2633 300.023L29.8323 302.18C30.4199 302.457 30.6713 303.158 30.3939 303.746C30.1165 304.333 29.4153 304.584 28.8277 304.307L24.2587 302.15C24.1676 302.107 24.082 302.107 24.0271 302.123C23.9809 302.136 23.9636 302.155 23.9512 302.179C23.2491 303.534 22.8172 305.288 23.2741 306.985C23.7162 308.627 25.0587 310.463 28.4137 311.904C29.0107 312.161 29.2866 312.853 29.0301 313.45C28.7736 314.046 28.0816 314.322 27.4847 314.066C23.641 312.414 21.6751 310.096 21.002 307.596C20.3436 305.152 20.9898 302.779 21.862 301.097Z" fill="#FF8833"/>
<path fill-rule="evenodd" clip-rule="evenodd" d="M54.0028 316.267C54.5908 314.892 53.8207 313.502 52.6705 312.959L48.1015 310.802C47.5139 310.525 46.8127 310.777 46.5353 311.364C46.2579 311.951 46.5093 312.652 47.0969 312.93L51.6659 315.086C51.757 315.129 51.8114 315.195 51.8344 315.248C51.8537 315.292 51.8499 315.317 51.8393 315.342C51.2392 316.745 50.1583 318.193 48.5577 318.918C47.0089 319.62 44.7374 319.751 41.4922 318.077C40.9147 317.779 40.2051 318.006 39.9072 318.583C39.6092 319.161 39.8358 319.87 40.4133 320.168C44.1311 322.086 47.1711 322.13 49.5292 321.061C51.8357 320.016 53.2574 318.009 54.0028 316.267Z" fill="#FF8833"/>
<path d="M211.581 172.948C89.7102 119.482 127.558 14.8867 172.203 29.0443C216.849 43.2018 132.973 119.553 41.2023 90.4516" stroke="#FFC200" stroke-width="3.3248" stroke-linecap="round" stroke-dasharray="6.65 6.65"/>
<path d="M75.8277 257.579C71.5836 255.955 69.2984 252.155 68.2827 249.935C68.2285 249.817 68.1367 249.717 68.0188 249.647C67.901 249.576 67.7624 249.538 67.6207 249.538C67.4789 249.538 67.3404 249.576 67.2225 249.647C67.1047 249.717 67.0129 249.817 66.9587 249.935C65.9385 252.155 63.6441 255.967 59.4318 257.579C59.3036 257.629 59.1943 257.711 59.1176 257.816C59.0409 257.92 59 258.043 59 258.168C59 258.293 59.0409 258.415 59.1176 258.52C59.1943 258.625 59.3036 258.707 59.4318 258.756C63.6714 260.38 65.9566 264.184 66.9678 266.401C67.0219 266.518 67.1138 266.619 67.2316 266.689C67.3494 266.76 67.488 266.797 67.6298 266.797C67.7715 266.797 67.9101 266.76 68.0279 266.689C68.1457 266.619 68.2376 266.518 68.2918 266.401C69.3165 264.184 71.6108 260.376 75.8367 258.752C75.9633 258.701 76.0706 258.618 76.1455 258.514C76.2205 258.409 76.2598 258.287 76.2589 258.163C76.2579 258.039 76.2167 257.917 76.1401 257.814C76.0636 257.71 75.955 257.629 75.8277 257.579Z" fill="#FFC200"/>
<path d="M101.508 246.078C98.7794 245.034 97.3103 242.591 96.6574 241.164C96.6225 241.088 96.5635 241.024 96.4878 240.978C96.412 240.933 96.3229 240.909 96.2318 240.909C96.1407 240.909 96.0516 240.933 95.9759 240.978C95.9001 241.024 95.8411 241.088 95.8062 241.164C95.1504 242.591 93.6755 245.042 90.9675 246.078C90.8851 246.11 90.8149 246.163 90.7655 246.23C90.7162 246.297 90.6899 246.376 90.6899 246.456C90.6899 246.537 90.7162 246.616 90.7655 246.683C90.8149 246.75 90.8851 246.803 90.9675 246.835C93.693 247.879 95.1621 250.324 95.8121 251.749C95.8469 251.825 95.9059 251.889 95.9817 251.934C96.0574 251.98 96.1465 252.004 96.2376 252.004C96.3288 252.004 96.4178 251.98 96.4936 251.934C96.5693 251.889 96.6284 251.825 96.6632 251.749C97.322 250.324 98.7969 247.876 101.514 246.832C101.595 246.799 101.664 246.746 101.712 246.679C101.76 246.612 101.786 246.533 101.785 246.453C101.784 246.374 101.758 246.296 101.709 246.229C101.659 246.162 101.59 246.11 101.508 246.078Z" fill="#FFC200"/>
<path d="M266.212 33.4461C264.393 32.7501 263.414 31.1215 262.978 30.1698C262.955 30.1196 262.916 30.0766 262.865 30.0464C262.815 30.0161 262.755 30 262.695 30C262.634 30 262.574 30.0161 262.524 30.0464C262.473 30.0766 262.434 30.1196 262.411 30.1698C261.974 31.1215 260.99 32.7553 259.185 33.4461C259.13 33.4674 259.083 33.5026 259.05 33.5474C259.018 33.5922 259 33.6447 259 33.6983C259 33.752 259.018 33.8044 259.05 33.8493C259.083 33.8941 259.13 33.9293 259.185 33.9506C261.002 34.6466 261.981 36.2769 262.415 37.2269C262.438 37.2771 262.477 37.3201 262.528 37.3503C262.578 37.3805 262.638 37.3967 262.698 37.3967C262.759 37.3967 262.819 37.3805 262.869 37.3503C262.92 37.3201 262.959 37.2771 262.982 37.2269C263.421 36.2769 264.405 34.6448 266.216 33.9489C266.27 33.927 266.316 33.8915 266.348 33.8467C266.38 33.8018 266.397 33.7496 266.397 33.6963C266.396 33.6431 266.379 33.5911 266.346 33.5466C266.313 33.5022 266.266 33.4673 266.212 33.4461Z" fill="#FFC200"/>
<path d="M197.317 110.855C195.498 110.16 194.518 108.532 194.083 107.58C194.06 107.53 194.02 107.487 193.97 107.457C193.919 107.426 193.86 107.41 193.799 107.41C193.739 107.41 193.679 107.426 193.629 107.457C193.578 107.487 193.539 107.53 193.516 107.58C193.078 108.532 192.095 110.165 190.29 110.855C190.235 110.877 190.188 110.912 190.155 110.957C190.122 111.002 190.105 111.054 190.105 111.108C190.105 111.161 190.122 111.214 190.155 111.259C190.188 111.303 190.235 111.339 190.29 111.36C192.107 112.056 193.086 113.686 193.519 114.635C193.543 114.686 193.582 114.728 193.633 114.759C193.683 114.789 193.742 114.805 193.803 114.805C193.864 114.805 193.923 114.789 193.974 114.759C194.024 114.728 194.064 114.686 194.087 114.635C194.526 113.686 195.509 112.054 197.32 111.358C197.375 111.336 197.421 111.301 197.453 111.256C197.485 111.211 197.502 111.159 197.501 111.106C197.501 111.052 197.483 111 197.45 110.956C197.418 110.912 197.371 110.877 197.317 110.855Z" fill="#FFC200"/>
<path d="M195.212 240.445C193.393 239.749 192.414 238.121 191.978 237.17C191.955 237.12 191.916 237.077 191.865 237.046C191.815 237.016 191.755 237 191.695 237C191.634 237 191.574 237.016 191.524 237.046C191.473 237.077 191.434 237.12 191.411 237.17C190.974 238.121 189.99 239.755 188.185 240.445C188.13 240.466 188.083 240.502 188.05 240.547C188.018 240.591 188 240.644 188 240.697C188 240.751 188.018 240.803 188.05 240.848C188.083 240.893 188.13 240.928 188.185 240.95C190.002 241.645 190.981 243.275 191.415 244.225C191.438 244.275 191.477 244.318 191.528 244.348C191.578 244.379 191.638 244.395 191.698 244.395C191.759 244.395 191.819 244.379 191.869 244.348C191.92 244.318 191.959 244.275 191.982 244.225C192.421 243.275 193.405 241.644 195.216 240.948C195.27 240.926 195.316 240.891 195.348 240.846C195.38 240.801 195.397 240.749 195.397 240.695C195.396 240.642 195.379 240.59 195.346 240.546C195.313 240.501 195.266 240.466 195.212 240.445Z" fill="#FFC200"/>
<path d="M262.212 210.445C260.393 209.749 259.414 208.121 258.978 207.17C258.955 207.12 258.916 207.077 258.865 207.046C258.815 207.016 258.755 207 258.695 207C258.634 207 258.574 207.016 258.524 207.046C258.473 207.077 258.434 207.12 258.411 207.17C257.974 208.121 256.99 209.755 255.185 210.445C255.13 210.466 255.083 210.502 255.05 210.547C255.018 210.591 255 210.644 255 210.697C255 210.751 255.018 210.803 255.05 210.848C255.083 210.893 255.13 210.928 255.185 210.95C257.002 211.645 257.981 213.275 258.415 214.225C258.438 214.275 258.477 214.318 258.528 214.348C258.578 214.379 258.638 214.395 258.698 214.395C258.759 214.395 258.819 214.379 258.869 214.348C258.92 214.318 258.959 214.275 258.982 214.225C259.421 213.275 260.405 211.644 262.216 210.948C262.27 210.926 262.316 210.891 262.348 210.846C262.38 210.801 262.397 210.749 262.397 210.695C262.396 210.642 262.379 210.59 262.346 210.546C262.313 210.501 262.266 210.466 262.212 210.445Z" fill="#FFC200"/>
<path d="M259.596 144.838C256.867 143.795 255.398 141.353 254.745 139.925C254.711 139.85 254.651 139.786 254.576 139.74C254.5 139.695 254.411 139.671 254.32 139.671C254.229 139.671 254.14 139.695 254.064 139.74C253.988 139.786 253.929 139.85 253.894 139.925C253.238 141.353 251.763 143.803 249.056 144.838C248.973 144.87 248.903 144.923 248.854 144.99C248.804 145.058 248.778 145.136 248.778 145.217C248.778 145.297 248.804 145.376 248.854 145.443C248.903 145.51 248.973 145.563 249.056 145.595C251.781 146.639 253.25 149.084 253.9 150.508C253.935 150.584 253.994 150.648 254.07 150.693C254.145 150.739 254.234 150.763 254.326 150.763C254.417 150.763 254.506 150.739 254.582 150.693C254.657 150.648 254.716 150.584 254.751 150.508C255.41 149.084 256.885 146.636 259.602 145.592C259.683 145.56 259.752 145.506 259.8 145.439C259.848 145.372 259.874 145.294 259.873 145.214C259.872 145.134 259.846 145.056 259.797 144.989C259.747 144.923 259.678 144.87 259.596 144.838Z" fill="#FFC200"/>
<path d="M83.0058 36.7393C80.2775 35.6956 78.8084 33.2534 78.1555 31.8262C78.1207 31.7508 78.0616 31.6864 77.9859 31.6411C77.9101 31.5957 77.821 31.5715 77.7299 31.5715C77.6388 31.5715 77.5497 31.5957 77.474 31.6411C77.3982 31.6864 77.3392 31.7508 77.3043 31.8262C76.6485 33.2534 75.1736 35.7035 72.4657 36.7393C72.3832 36.7712 72.313 36.8241 72.2637 36.8913C72.2143 36.9585 72.188 37.0372 72.188 37.1176C72.188 37.1981 72.2143 37.2767 72.2637 37.3439C72.313 37.4112 72.3832 37.464 72.4657 37.496C75.1911 38.5396 76.6602 40.9844 77.3102 42.4091C77.345 42.4844 77.404 42.5489 77.4798 42.5942C77.5556 42.6395 77.6446 42.6637 77.7358 42.6637C77.8269 42.6637 77.9159 42.6395 77.9917 42.5942C78.0675 42.5489 78.1265 42.4844 78.1613 42.4091C78.8201 40.9844 80.295 38.537 83.0117 37.4934C83.093 37.4605 83.162 37.4073 83.2102 37.34C83.2583 37.2728 83.2837 37.1945 83.283 37.1146C83.2824 37.0347 83.2559 36.9568 83.2067 36.8901C83.1575 36.8235 83.0877 36.7711 83.0058 36.7393Z" fill="#FFC200"/>
<path d="M263.193 294.643C260.464 293.599 258.995 291.157 258.342 289.73C258.307 289.654 258.248 289.59 258.173 289.545C258.097 289.499 258.008 289.475 257.917 289.475C257.826 289.475 257.737 289.499 257.661 289.545C257.585 289.59 257.526 289.654 257.491 289.73C256.835 291.157 255.36 293.607 252.652 294.643C252.57 294.675 252.5 294.728 252.45 294.795C252.401 294.862 252.375 294.941 252.375 295.021C252.375 295.102 252.401 295.18 252.45 295.248C252.5 295.315 252.57 295.368 252.652 295.4C255.378 296.443 256.847 298.888 257.497 300.313C257.532 300.388 257.591 300.452 257.667 300.498C257.742 300.543 257.831 300.567 257.923 300.567C258.014 300.567 258.103 300.543 258.179 300.498C258.254 300.452 258.313 300.388 258.348 300.313C259.007 298.888 260.482 296.441 263.198 295.397C263.28 295.364 263.349 295.311 263.397 295.244C263.445 295.176 263.47 295.098 263.47 295.018C263.469 294.938 263.443 294.86 263.394 294.794C263.344 294.727 263.275 294.675 263.193 294.643Z" fill="#FFC200"/>
<path d="M258.021 42.0754C253.777 40.4519 251.492 36.6529 250.476 34.4328C250.422 34.3155 250.33 34.2153 250.212 34.1448C250.095 34.0743 249.956 34.0366 249.814 34.0366C249.673 34.0366 249.534 34.0743 249.416 34.1448C249.298 34.2153 249.206 34.3155 249.152 34.4328C248.132 36.6529 245.838 40.464 241.625 42.0754C241.497 42.1251 241.388 42.2073 241.311 42.3118C241.234 42.4164 241.194 42.5388 241.194 42.6639C241.194 42.789 241.234 42.9114 241.311 43.0159C241.388 43.1205 241.497 43.2027 241.625 43.2524C245.865 44.8759 248.15 48.6789 249.161 50.895C249.216 51.0122 249.307 51.1125 249.425 51.183C249.543 51.2535 249.682 51.2911 249.823 51.2911C249.965 51.2911 250.104 51.2535 250.222 51.183C250.339 51.1125 250.431 51.0122 250.485 50.895C251.51 48.6789 253.804 44.8718 258.03 43.2483C258.157 43.1973 258.264 43.1144 258.339 43.0099C258.414 42.9053 258.453 42.7835 258.452 42.6592C258.452 42.535 258.41 42.4136 258.334 42.31C258.257 42.2063 258.149 42.1248 258.021 42.0754Z" fill="#FFC200"/>
<path d="M322.828 330.039C318.584 328.415 316.298 324.616 315.283 322.396C315.228 322.279 315.137 322.179 315.019 322.108C314.901 322.038 314.762 322 314.621 322C314.479 322 314.34 322.038 314.223 322.108C314.105 322.179 314.013 322.279 313.959 322.396C312.938 324.616 310.644 328.427 306.432 330.039C306.304 330.088 306.194 330.171 306.118 330.275C306.041 330.38 306 330.502 306 330.627C306 330.752 306.041 330.875 306.118 330.979C306.194 331.084 306.304 331.166 306.432 331.216C310.671 332.839 312.957 336.642 313.968 338.858C314.022 338.976 314.114 339.076 314.232 339.146C314.349 339.217 314.488 339.255 314.63 339.255C314.771 339.255 314.91 339.217 315.028 339.146C315.146 339.076 315.238 338.976 315.292 338.858C316.316 336.642 318.611 332.835 322.837 331.212C322.963 331.161 323.071 331.078 323.146 330.973C323.22 330.869 323.26 330.747 323.259 330.623C323.258 330.498 323.217 330.377 323.14 330.273C323.064 330.17 322.955 330.088 322.828 330.039Z" fill="#FFC200"/>
<path d="M391.818 31.1678C389.089 30.1241 387.62 27.6819 386.967 26.2547C386.933 26.1793 386.874 26.1149 386.798 26.0695C386.722 26.0242 386.633 26 386.542 26C386.451 26 386.362 26.0242 386.286 26.0695C386.21 26.1149 386.151 26.1793 386.116 26.2547C385.46 27.6819 383.986 30.1319 381.278 31.1678C381.195 31.1997 381.125 31.2525 381.076 31.3198C381.026 31.387 381 31.4657 381 31.5461C381 31.6265 381.026 31.7052 381.076 31.7724C381.125 31.8396 381.195 31.8925 381.278 31.9244C384.003 32.9681 385.472 35.4129 386.122 36.8375C386.157 36.9129 386.216 36.9773 386.292 37.0226C386.367 37.068 386.457 37.0922 386.548 37.0922C386.639 37.0922 386.728 37.068 386.804 37.0226C386.879 36.9773 386.938 36.9129 386.973 36.8375C387.632 35.4129 389.107 32.9655 391.824 31.9218C391.905 31.889 391.974 31.8357 392.022 31.7685C392.07 31.7013 392.096 31.623 392.095 31.5431C392.094 31.4632 392.068 31.3852 392.019 31.3186C391.969 31.2519 391.9 31.1996 391.818 31.1678Z" fill="#FFC200"/>
<path d="M367.828 220.948C363.584 219.324 361.298 215.525 360.283 213.305C360.228 213.188 360.137 213.088 360.019 213.017C359.901 212.947 359.762 212.909 359.621 212.909C359.479 212.909 359.34 212.947 359.223 213.017C359.105 213.088 359.013 213.188 358.959 213.305C357.938 215.525 355.644 219.336 351.432 220.948C351.304 220.997 351.194 221.08 351.118 221.184C351.041 221.289 351 221.411 351 221.536C351 221.661 351.041 221.784 351.118 221.888C351.194 221.993 351.304 222.075 351.432 222.125C355.671 223.748 357.957 227.551 358.968 229.767C359.022 229.885 359.114 229.985 359.232 230.055C359.349 230.126 359.488 230.163 359.63 230.163C359.771 230.163 359.91 230.126 360.028 230.055C360.146 229.985 360.238 229.885 360.292 229.767C361.316 227.551 363.611 223.744 367.837 222.121C367.963 222.07 368.071 221.987 368.146 221.882C368.22 221.778 368.26 221.656 368.259 221.532C368.258 221.407 368.217 221.286 368.14 221.182C368.064 221.079 367.955 220.997 367.828 220.948Z" fill="#FFC200"/>
<g clip-path="url(#clip1_14355_15824)">
<path d="M292.156 265.014H209.054C205.182 265.014 202.044 268.128 202.044 271.969V283.618C202.044 287.459 205.182 290.572 209.054 290.572H292.156C296.027 290.572 299.165 287.459 299.165 283.618V271.969C299.165 268.128 296.027 265.014 292.156 265.014Z" fill="#F75200"/>
<path d="M292.119 244.569H209.091C205.199 244.569 202.044 247.896 202.044 252V257.586C202.044 261.689 205.199 265.016 209.091 265.016H292.119C296.011 265.016 299.165 261.689 299.165 257.586V252C299.165 247.896 296.011 244.569 292.119 244.569Z" fill="#FF9700"/>
<path d="M293.801 289.785H206.9C204.307 289.785 202.205 292.14 202.205 295.044V306.064C202.205 308.969 204.307 311.323 206.9 311.323H293.801C296.394 311.323 298.495 308.969 298.495 306.064V295.044C298.495 292.14 296.394 289.785 293.801 289.785Z" fill="#FF9700"/>
<path d="M194.165 275.848H127.89C123.45 275.848 119.85 278.559 119.85 281.903V290.065C119.85 293.409 123.45 296.12 127.89 296.12H194.165C198.605 296.12 202.204 293.409 202.204 290.065V281.903C202.204 278.559 198.605 275.848 194.165 275.848Z" fill="#FF9700"/>
<path fill-rule="evenodd" clip-rule="evenodd" d="M202.666 260.644H265.478C266.152 260.645 266.82 260.499 267.444 260.213C268.068 259.927 268.634 259.507 269.112 258.977C269.59 258.448 269.969 257.819 270.228 257.127C270.487 256.435 270.62 255.693 270.621 254.943C270.62 254.193 270.487 253.451 270.228 252.759C269.969 252.067 269.59 251.438 269.112 250.908C268.634 250.379 268.068 249.959 267.444 249.673C266.82 249.387 266.152 249.24 265.478 249.241H202.545C202.221 250.094 202.043 251.025 202.043 251.999V257.586C202.043 258.676 202.266 259.712 202.666 260.644Z" fill="white"/>
<path fill-rule="evenodd" clip-rule="evenodd" d="M202.099 280.916L155.402 280.916C154.728 280.915 154.059 281.062 153.436 281.348C152.812 281.634 152.245 282.054 151.768 282.583C151.29 283.113 150.911 283.741 150.652 284.434C150.393 285.126 150.259 285.868 150.258 286.618C150.259 287.367 150.393 288.109 150.652 288.802C150.911 289.494 151.29 290.123 151.768 290.652C152.245 291.182 152.812 291.601 153.436 291.887C154.059 292.173 154.728 292.32 155.402 292.319L201.63 292.319C202.001 291.622 202.205 290.862 202.205 290.065V281.903C202.205 281.567 202.169 281.237 202.099 280.916Z" fill="white"/>
<path d="M341.097 283.589L315.438 248.156C313.492 245.468 309.736 244.868 307.049 246.813L301.123 251.105C298.436 253.05 297.835 256.806 299.781 259.494L325.44 294.927C327.386 297.615 331.142 298.215 333.829 296.27L339.755 291.978C342.442 290.032 343.043 286.277 341.097 283.589Z" fill="#FF6F0D"/>
<path d="M319.139 261.202C318.161 259.853 315.51 260.106 313.219 261.767C310.928 263.429 309.856 265.87 310.834 267.218L332.445 297.062C332.891 296.883 333.314 296.649 333.703 296.367L339.895 291.885C340.217 291.652 340.515 291.386 340.783 291.092L319.139 261.202Z" fill="white"/>
<path d="M364.003 297.387H305.207C301.5 297.387 298.496 300.327 298.496 303.954V309.824C298.496 313.451 301.5 316.391 305.207 316.391H364.003C367.709 316.391 370.714 313.451 370.714 309.824V303.954C370.714 300.327 367.709 297.387 364.003 297.387Z" fill="#F75200"/>
<path fill-rule="evenodd" clip-rule="evenodd" d="M298.586 269.192H238.407C237.046 269.192 235.742 269.732 234.78 270.694C233.819 271.655 233.278 272.96 233.278 274.32V280.121C233.278 281.481 233.819 282.786 234.78 283.747C235.742 284.709 237.046 285.249 238.407 285.249H298.975C299.101 284.727 299.168 284.181 299.168 283.621V271.972C299.168 270.983 298.96 270.043 298.586 269.192Z" fill="white"/>
<path d="M246.539 274.428H254.239V281.038C254.24 281.149 254.207 281.257 254.146 281.349C254.084 281.441 253.997 281.513 253.894 281.555C253.792 281.597 253.679 281.607 253.571 281.585C253.463 281.563 253.363 281.509 253.286 281.43L250.387 278.514L247.491 281.43C247.413 281.509 247.313 281.563 247.205 281.585C247.097 281.606 246.984 281.596 246.882 281.554C246.779 281.512 246.692 281.44 246.63 281.348C246.568 281.257 246.535 281.149 246.535 281.038L246.539 274.428Z" fill="#FF9700"/>
<path d="M96.9844 330.328H192.13C197.694 330.328 202.205 326.289 202.205 321.307V305.141C202.205 300.159 197.694 296.12 192.13 296.12H96.9844C91.4203 296.12 86.9097 300.159 86.9097 305.141V321.307C86.9097 326.289 91.4203 330.328 96.9844 330.328Z" fill="#FF6F0D"/>
<path d="M124.921 205.963C124.415 206.444 123.866 206.883 123.307 207.308C123.038 207.515 123.791 206.937 123.514 207.147L123.301 207.311L122.841 207.65C122.501 207.901 122.154 208.144 121.8 208.379C120.993 208.917 120.159 209.442 119.309 209.921C118.191 210.549 117.038 211.115 115.857 211.616L116.338 211.411C114.061 212.381 111.666 213.047 109.214 213.391L109.752 213.319C107.736 213.589 105.694 213.595 103.677 213.338L104.215 213.407C102.218 213.138 100.266 212.606 98.4089 211.825L98.8905 212.03C97.3939 211.394 95.9591 210.621 94.6046 209.721C94.3194 209.533 94.0369 209.339 93.7598 209.14C93.5956 209.025 93.4315 208.906 93.2701 208.785L93.1113 208.667C92.6943 208.349 93.3965 208.893 93.1275 208.68C92.5894 208.252 92.0629 207.803 91.5481 207.335C90.5814 206.45 89.682 205.494 88.8576 204.475L88.5886 204.136C88.368 203.867 88.9088 204.556 88.6935 204.271L88.5402 204.066C88.3545 203.819 88.1743 203.568 88.0021 203.313C87.6613 202.818 87.3357 202.312 87.0254 201.795C86.3789 200.708 85.8072 199.578 85.3143 198.413L85.5187 198.895C84.4974 196.454 83.8035 193.888 83.4551 191.265L83.5278 191.803C83.301 190.223 83.2217 188.626 83.291 187.032C83.291 186.936 83.291 186.841 83.3098 186.747C83.308 186.212 83.0954 185.698 82.7179 185.319C82.3381 184.943 81.8261 184.731 81.2919 184.729C80.7569 184.731 80.2438 184.942 79.8633 185.319C79.5065 185.712 79.2981 186.217 79.2741 186.747C79.0696 188.972 79.3628 191.302 79.7395 193.49C80.5937 198.417 82.6561 203.056 85.742 206.991C87.7166 209.47 90.0864 211.607 92.7562 213.316C95.7261 215.288 99.0759 216.616 102.59 217.215C105.774 217.717 109.023 217.632 112.176 216.962C114.806 216.382 117.351 215.473 119.753 214.255C122.631 212.851 125.299 211.052 127.679 208.909L127.787 208.809C128.159 208.428 128.368 207.916 128.368 207.382C128.368 206.849 128.159 206.336 127.787 205.955C127.403 205.586 126.891 205.381 126.359 205.381C125.827 205.381 125.316 205.586 124.932 205.955L124.921 205.963Z" fill="#FF5A85"/>
<path d="M267.71 177.782C268.447 177.707 269.187 177.586 269.913 177.446C271.348 177.167 272.764 176.799 274.153 176.343C276.245 175.667 278.272 174.804 280.21 173.765C282.43 172.572 284.488 171.097 286.331 169.377C288.379 167.462 290.082 165.21 291.367 162.718C292.917 159.6 293.862 156.217 294.155 152.747C294.497 149.206 294.172 145.632 293.197 142.211C292.377 139.366 291.136 136.661 289.513 134.185C288.267 132.27 286.824 130.49 285.209 128.874C284.326 127.992 283.381 127.175 282.381 126.428C282.34 126.396 282.299 126.366 282.26 126.34C282.027 126.205 281.77 126.117 281.503 126.082C281.236 126.047 280.965 126.065 280.705 126.135C280.199 126.279 279.767 126.611 279.499 127.063C278.961 128.099 279.3 129.17 280.223 129.824C280.274 129.859 280.325 129.899 280.376 129.937L280.46 129.999C280.659 130.149 279.922 129.582 280.169 129.775L280.417 129.974C280.955 130.402 281.455 130.857 281.945 131.32C282.68 132.023 283.378 132.763 284.038 133.537C284.232 133.765 284.426 133.999 284.614 134.234C284.711 134.352 284.802 134.473 284.883 134.591C285.05 134.801 284.52 134.115 284.738 134.403L284.891 134.602C285.292 135.14 285.677 135.678 286.04 136.243C286.963 137.657 287.76 139.15 288.421 140.704L288.219 140.223C289.136 142.397 289.762 144.683 290.081 147.021L290.008 146.483C290.322 148.905 290.316 151.357 289.992 153.777L290.065 153.239C289.775 155.458 289.194 157.63 288.335 159.696L288.539 159.215C287.98 160.532 287.297 161.793 286.5 162.982C286.304 163.272 286.099 163.557 285.892 163.84C285.849 163.896 285.806 163.956 285.76 164.012L285.674 164.125C285.634 164.184 286.008 163.703 285.881 163.856C285.755 164.009 285.661 164.125 285.548 164.273C285.133 164.779 284.697 165.263 284.243 165.731C283.788 166.199 283.323 166.641 282.836 167.077C282.601 167.281 282.362 167.483 282.12 167.679L281.759 167.967C281.49 168.169 282.061 167.736 281.958 167.814L281.749 167.972C280.79 168.691 279.787 169.348 278.746 169.939C277.652 170.558 276.523 171.114 275.364 171.602L275.846 171.397C273.456 172.41 270.961 173.153 268.406 173.614C268.084 173.671 267.758 173.725 267.432 173.768L267.971 173.695C267.879 173.695 267.788 173.722 267.701 173.73C267.169 173.747 266.661 173.958 266.273 174.322C265.897 174.702 265.686 175.214 265.684 175.748C265.727 176.749 266.577 177.882 267.701 177.766L267.71 177.782Z" fill="#FF5A85"/>
<path d="M192.357 204.107L191.609 205.81L189.578 210.441L186.57 217.288L182.916 225.613L178.899 234.76L174.864 243.962L171.097 252.571L167.903 259.836L165.608 265.063C165.25 265.885 164.891 266.706 164.532 267.528L164.486 267.633C164.281 268.029 164.198 268.478 164.247 268.922C164.289 269.361 164.485 269.771 164.801 270.078L171.183 275.497L172.074 276.253C172.46 276.619 172.968 276.829 173.5 276.842C174.034 276.84 174.545 276.628 174.926 276.253C175.617 275.5 175.786 274.128 174.926 273.399L168.509 267.991L167.621 267.237L167.936 269.683L168.684 267.98L170.715 263.35L173.723 256.502L177.377 248.178L181.393 239.03L185.429 229.829L189.196 221.219L192.39 213.955L194.685 208.727L195.761 206.262C195.777 206.227 195.793 206.192 195.807 206.157C196.063 205.682 196.136 205.128 196.011 204.602C195.867 204.096 195.535 203.663 195.083 203.394C194.85 203.259 194.593 203.172 194.326 203.137C194.059 203.102 193.787 203.121 193.528 203.193C193.062 203.343 192.529 203.65 192.322 204.118L192.357 204.107Z" fill="#FF5A85"/>
<path d="M203.13 204.132L206.628 205.37L214.925 208.329L224.961 211.891L233.57 214.953C234.926 215.434 236.283 215.915 237.641 216.398C237.773 216.444 237.91 216.495 238.034 216.549L237.552 216.344C237.951 216.511 238.332 216.715 238.693 216.952C238.795 217.019 238.892 217.089 238.992 217.159C239.282 217.366 238.618 216.85 238.868 217.068C239.038 217.213 239.207 217.361 239.366 217.52C239.525 217.679 239.648 217.824 239.786 217.98C240.055 218.303 239.516 217.598 239.716 217.886L239.893 218.139C240.129 218.494 240.332 218.869 240.501 219.261L240.299 218.779C240.54 219.35 240.707 219.949 240.794 220.563L240.725 220.025C240.807 220.65 240.807 221.283 240.725 221.908L240.797 221.37C240.641 222.446 240.192 223.442 239.804 224.448L237.94 229.291L235.553 235.479L233.457 240.922C233.116 241.812 232.736 242.698 232.427 243.612L232.411 243.65C232.185 244.237 232.411 244.944 232.771 245.41C232.954 245.658 233.193 245.861 233.468 246.001C233.743 246.141 234.047 246.215 234.356 246.217H240.94C241.994 246.217 243.006 245.289 242.958 244.199C242.949 243.667 242.733 243.158 242.357 242.782C241.98 242.405 241.472 242.19 240.94 242.181H234.356L236.301 244.734L237.873 240.658L241.101 232.24L243.805 225.217C243.961 224.808 244.123 224.41 244.279 223.988C244.694 222.826 244.866 221.592 244.781 220.361C244.697 219.13 244.359 217.93 243.789 216.836C242.712 214.809 240.902 213.27 238.728 212.532L237.816 212.206L232.54 210.323L224.471 207.449L215.684 204.331L208.266 201.697L204.373 200.317L204.198 200.255C203.203 199.9 201.946 200.653 201.718 201.662C201.588 202.178 201.663 202.723 201.925 203.186C202.188 203.648 202.618 203.992 203.127 204.145L203.13 204.132Z" fill="#FF5A85"/>
<path d="M144.735 224.45C144.547 224.498 144.353 224.544 144.162 224.587C139.104 225.712 133.806 224.781 129.433 222C125.061 219.219 121.972 214.815 120.846 209.757C119.733 204.799 120.594 199.603 123.248 195.27C125.901 190.937 130.138 187.808 135.06 186.546C133.834 184.682 132.957 182.611 132.472 180.433C131.405 175.684 132.269 170.705 134.873 166.592C137.477 162.48 141.608 159.57 146.358 158.503C149.419 157.813 152.606 157.926 155.61 158.831C155.055 154.311 156.2 149.745 158.823 146.022C161.446 142.299 165.359 139.683 169.803 138.685C172.787 138.017 175.89 138.107 178.83 138.947C181.77 139.787 184.453 141.35 186.635 143.493C187.695 140.624 189.457 138.068 191.76 136.056C194.063 134.044 196.833 132.642 199.818 131.977C204.264 130.988 208.919 131.686 212.878 133.938C216.837 136.19 219.818 139.833 221.24 144.16C223.574 142.062 226.409 140.603 229.473 139.922C231.826 139.399 234.259 139.345 236.633 139.762C239.007 140.179 241.275 141.06 243.309 142.353C245.343 143.647 247.102 145.329 248.485 147.303C249.869 149.277 250.85 151.503 251.373 153.856C251.865 156.032 251.956 158.278 251.643 160.486C256.631 159.534 261.794 160.562 266.037 163.352C270.28 166.142 273.271 170.475 274.375 175.432C274.937 177.935 275.001 180.524 274.563 183.053C274.125 185.581 273.193 187.998 271.821 190.166C270.448 192.333 268.662 194.21 266.565 195.687C264.467 197.165 262.099 198.215 259.596 198.777L144.738 224.453L144.735 224.45Z" fill="#FF8EA7"/>
<path d="M159.894 213.954C164.772 213.954 168.727 209.999 168.727 205.121C168.727 200.243 164.772 196.288 159.894 196.288C155.016 196.288 151.061 200.243 151.061 205.121C151.061 209.999 155.016 213.954 159.894 213.954Z" fill="#F64A70"/>
<path d="M171.887 203.337C179.094 203.337 184.936 197.495 184.936 190.288C184.936 183.081 179.094 177.239 171.887 177.239C164.68 177.239 158.838 183.081 158.838 190.288C158.838 197.495 164.68 203.337 171.887 203.337Z" fill="white"/>
<path d="M174.167 200.469C179.794 199.212 183.336 193.631 182.078 188.004C180.82 182.378 175.239 178.836 169.613 180.094C163.986 181.352 160.445 186.932 161.702 192.559C162.96 198.185 168.541 201.727 174.167 200.469Z" fill="#111111"/>
<path d="M165.848 191.535C168.251 191.535 170.199 189.587 170.199 187.185C170.199 184.782 168.251 182.834 165.848 182.834C163.446 182.834 161.498 184.782 161.498 187.185C161.498 189.587 163.446 191.535 165.848 191.535Z" fill="white"/>
<path d="M179.727 197.442C181.134 197.128 182.019 195.733 181.705 194.326C181.39 192.919 179.995 192.034 178.588 192.348C177.182 192.663 176.296 194.058 176.611 195.465C176.925 196.871 178.32 197.757 179.727 197.442Z" fill="white"/>
<path d="M170.562 170.806L162.303 172.397C161.162 172.616 160.415 173.719 160.635 174.859C160.854 176 161.957 176.746 163.098 176.526L171.357 174.936C172.498 174.716 173.245 173.613 173.026 172.473C172.806 171.333 171.703 170.587 170.562 170.806Z" fill="#F64A70"/>
<path d="M237.437 196.622C242.316 196.622 246.27 192.668 246.27 187.789C246.27 182.911 242.316 178.956 237.437 178.956C232.559 178.956 228.604 182.911 228.604 187.789C228.604 192.668 232.559 196.622 237.437 196.622Z" fill="#F64A70"/>
<path d="M220.268 192.526C227.474 192.526 233.317 186.683 233.317 179.477C233.317 172.27 227.474 166.428 220.268 166.428C213.061 166.428 207.219 172.27 207.219 179.477C207.219 186.683 213.061 192.526 220.268 192.526Z" fill="white"/>
<path d="M220.266 189.914C226.032 189.914 230.705 185.24 230.705 179.475C230.705 173.71 226.032 169.036 220.266 169.036C214.501 169.036 209.827 173.71 209.827 179.475C209.827 185.24 214.501 189.914 220.266 189.914Z" fill="#111111"/>
<path d="M224.407 178.44C226.809 178.44 228.757 176.492 228.757 174.089C228.757 171.686 226.809 169.739 224.407 169.739C222.004 169.739 220.056 171.686 220.056 174.089C220.056 176.492 222.004 178.44 224.407 178.44Z" fill="white"/>
<path d="M215.654 189.355C217.095 189.355 218.263 188.187 218.263 186.745C218.263 185.304 217.095 184.135 215.654 184.135C214.212 184.135 213.044 185.304 213.044 186.745C213.044 188.187 214.212 189.355 215.654 189.355Z" fill="white"/>
<path d="M204.102 183.202C204.27 183.155 204.446 183.145 204.617 183.175C204.789 183.204 204.952 183.272 205.094 183.372C205.236 183.472 205.355 183.603 205.44 183.754C205.525 183.906 205.576 184.075 205.588 184.249C205.604 184.87 205.54 185.492 205.397 186.097C205.133 187.192 204.647 188.22 203.968 189.118C203.249 190.068 202.361 190.878 201.35 191.508C200.303 192.162 199.152 192.633 197.947 192.901C196.741 193.173 195.498 193.237 194.271 193.09C193.088 192.951 191.941 192.595 190.887 192.04C189.89 191.519 189.012 190.796 188.309 189.917C187.921 189.431 187.598 188.895 187.349 188.325C187.286 188.162 187.259 187.988 187.272 187.815C187.285 187.641 187.336 187.472 187.422 187.321C187.508 187.17 187.627 187.04 187.77 186.94C187.912 186.84 188.076 186.774 188.247 186.745L196.174 184.975L204.102 183.202Z" fill="#161616"/>
<path d="M203.665 189.499C203.003 190.285 202.223 190.962 201.351 191.506C200.304 192.16 199.153 192.632 197.947 192.9C196.742 193.171 195.499 193.235 194.272 193.088C193.336 192.976 192.421 192.731 191.555 192.359C192.063 189.98 194.084 187.936 196.839 187.322C199.532 186.733 202.172 187.65 203.665 189.499Z" fill="#F64A70"/>
<path d="M275.316 116.899L297.562 88.1964L312.798 100.005C315.895 102.413 317.909 105.952 318.398 109.844C318.887 113.736 317.811 117.663 315.405 120.762L311.286 126.076C308.882 129.176 305.345 131.195 301.453 131.688C297.561 132.182 293.633 131.109 290.531 128.707L275.316 116.899Z" fill="#FFC200"/>
<path d="M270.713 118.44C270.527 118.296 270.371 118.116 270.254 117.912C270.138 117.707 270.062 117.482 270.033 117.248C270.003 117.014 270.02 116.777 270.082 116.55C270.145 116.323 270.251 116.11 270.395 115.924L295.385 83.6867C295.529 83.5006 295.709 83.3447 295.913 83.228C296.118 83.1113 296.343 83.036 296.577 83.0065C296.811 82.977 297.048 82.9939 297.275 83.0561C297.502 83.1184 297.715 83.2248 297.901 83.3692L298.608 83.9073C298.984 84.1987 299.229 84.6272 299.289 85.0989C299.349 85.5706 299.219 86.0468 298.928 86.4229L273.939 118.663C273.648 119.039 273.219 119.284 272.747 119.344C272.276 119.404 271.799 119.274 271.423 118.983L270.713 118.44Z" fill="#FFC200"/>
<path d="M313.878 138.844C313.691 138.7 313.535 138.52 313.419 138.316C313.302 138.111 313.227 137.886 313.197 137.652C313.168 137.418 313.185 137.181 313.247 136.954C313.309 136.727 313.416 136.514 313.56 136.329L325.918 120.382C326.062 120.196 326.241 120.04 326.446 119.923C326.65 119.806 326.876 119.731 327.109 119.702C327.343 119.672 327.58 119.689 327.807 119.751C328.035 119.814 328.247 119.92 328.433 120.064L330.559 121.711L316.003 140.491L313.878 138.844Z" fill="#FFC200"/>
<path d="M315.222 144.431C315.036 144.286 314.88 144.107 314.763 143.902C314.647 143.698 314.571 143.472 314.542 143.239C314.513 143.005 314.529 142.768 314.592 142.541C314.654 142.314 314.76 142.101 314.905 141.915L331.93 119.947C332.222 119.571 332.65 119.326 333.122 119.266C333.593 119.206 334.07 119.336 334.446 119.627L337.989 122.374C338.365 122.665 338.61 123.094 338.67 123.565C338.73 124.037 338.6 124.513 338.309 124.889L321.281 146.857C320.99 147.233 320.561 147.478 320.09 147.538C319.618 147.598 319.142 147.468 318.766 147.178L315.222 144.431Z" fill="#FF6F0D"/>
<path d="M299.964 117.292L304.358 111.623L323.845 126.728L319.446 132.388L299.964 117.292Z" fill="#FFC200"/>
<path fill-rule="evenodd" clip-rule="evenodd" d="M273.349 130.962C271.383 129.318 271.466 126.595 272.811 124.87L278.117 118.023C278.444 117.6 278.927 117.324 279.457 117.257C279.988 117.189 280.524 117.335 280.947 117.662C281.37 117.99 281.646 118.472 281.714 119.003C281.781 119.534 281.635 120.07 281.308 120.493L275.999 127.34C275.913 127.447 275.866 127.582 275.868 127.72C275.867 127.747 275.872 127.775 275.883 127.801C275.894 127.826 275.911 127.849 275.932 127.868C277.939 129.546 280.719 130.919 283.735 130.784C286.648 130.655 290.221 129.089 293.881 124.009C294.035 123.794 294.23 123.611 294.455 123.471C294.68 123.332 294.931 123.238 295.192 123.195C295.454 123.152 295.721 123.161 295.979 123.222C296.237 123.283 296.48 123.394 296.695 123.549C296.91 123.704 297.092 123.9 297.232 124.125C297.371 124.351 297.464 124.601 297.507 124.863C297.549 125.125 297.54 125.392 297.479 125.65C297.418 125.908 297.307 126.151 297.152 126.366C292.96 132.186 288.349 134.618 283.915 134.814C279.578 135.011 275.857 133.047 273.349 130.962Z" fill="#FFC200"/>
<path fill-rule="evenodd" clip-rule="evenodd" d="M310.684 82.7949C308.601 81.299 305.989 82.0739 304.652 83.7958L299.343 90.6431C299.016 91.0663 298.87 91.6022 298.938 92.133C299.005 92.6638 299.281 93.146 299.704 93.4735C300.127 93.8013 300.662 93.9477 301.193 93.8806C301.724 93.8135 302.206 93.5384 302.534 93.1157L307.84 86.2684C307.921 86.1567 308.039 86.0775 308.174 86.045C308.2 86.0369 308.229 86.0351 308.256 86.0398C308.284 86.0445 308.31 86.0555 308.332 86.072C310.458 87.5975 312.484 89.9463 313.103 92.8951C313.703 95.747 313.078 99.5998 309.067 104.41C308.898 104.615 308.771 104.85 308.693 105.103C308.615 105.357 308.588 105.623 308.613 105.887C308.638 106.151 308.715 106.407 308.839 106.641C308.963 106.875 309.132 107.083 309.336 107.252C309.54 107.421 309.775 107.548 310.029 107.626C310.282 107.704 310.548 107.732 310.812 107.707C311.076 107.682 311.333 107.605 311.567 107.481C311.801 107.356 312.008 107.187 312.177 106.983C316.767 101.472 317.97 96.4008 317.058 92.0556C316.156 87.8154 313.326 84.689 310.684 82.7949Z" fill="#FFC200"/>
<path d="M263.983 114.808C261.349 113.799 259.931 111.442 259.302 110.064C259.267 109.989 259.209 109.926 259.137 109.884C259.062 109.84 258.977 109.817 258.89 109.817C258.803 109.817 258.717 109.84 258.642 109.884C258.571 109.926 258.513 109.989 258.478 110.064C257.846 111.442 256.423 113.807 253.808 114.808C253.729 114.836 253.661 114.886 253.611 114.953C253.565 115.017 253.54 115.094 253.539 115.173C253.54 115.252 253.565 115.328 253.611 115.391C253.661 115.458 253.729 115.508 253.808 115.537C256.439 116.546 257.843 118.908 258.484 120.283C258.52 120.357 258.577 120.419 258.648 120.46C258.722 120.506 258.808 120.529 258.895 120.528C258.983 120.529 259.068 120.506 259.143 120.46C259.214 120.419 259.271 120.357 259.307 120.283C259.942 118.908 261.365 116.543 263.988 115.537C264.065 115.506 264.132 115.454 264.18 115.386C264.227 115.324 264.251 115.248 264.249 115.171C264.25 115.092 264.224 115.016 264.177 114.953C264.127 114.887 264.06 114.837 263.983 114.808Z" fill="#FFDB27"/>
<path d="M319.274 158.152C316.64 157.143 315.22 154.786 314.59 153.406C314.556 153.331 314.498 153.269 314.426 153.229C314.351 153.185 314.265 153.161 314.178 153.161C314.092 153.162 314.008 153.185 313.934 153.229C313.861 153.269 313.804 153.331 313.769 153.406C313.135 154.786 311.711 157.151 309.099 158.152C309.021 158.181 308.952 158.231 308.902 158.298C308.855 158.361 308.83 158.437 308.83 158.515C308.83 158.595 308.855 158.672 308.902 158.736C308.952 158.802 309.021 158.853 309.099 158.881C311.727 159.89 313.135 162.25 313.775 163.627C313.81 163.702 313.867 163.764 313.939 163.805C314.014 163.849 314.099 163.872 314.186 163.872C314.273 163.872 314.357 163.849 314.431 163.805C314.504 163.765 314.561 163.703 314.595 163.627C315.233 162.25 316.656 159.888 319.28 158.879C319.356 158.849 319.423 158.798 319.471 158.731C319.516 158.667 319.541 158.591 319.541 158.513C319.539 158.435 319.514 158.36 319.468 158.298C319.418 158.232 319.351 158.181 319.274 158.152Z" fill="#FFDB27"/>
<path d="M271.634 102.224C269.801 101.521 268.814 99.8803 268.375 98.9224C268.35 98.8712 268.311 98.8282 268.262 98.7987C268.211 98.7668 268.151 98.75 268.09 98.7503C268.029 98.7497 267.97 98.7665 267.918 98.7987C267.868 98.8273 267.827 98.8704 267.802 98.9224C267.364 99.8803 266.371 101.527 264.552 102.224C264.498 102.244 264.451 102.279 264.418 102.326C264.384 102.37 264.366 102.424 264.367 102.479C264.366 102.534 264.384 102.587 264.418 102.63C264.451 102.677 264.498 102.712 264.552 102.732C266.384 103.434 267.369 105.078 267.808 106.033C267.833 106.086 267.872 106.129 267.921 106.16C267.973 106.19 268.033 106.206 268.093 106.206C268.153 106.206 268.213 106.19 268.265 106.16C268.315 106.13 268.354 106.086 268.378 106.033C268.822 105.078 269.812 103.432 271.639 102.73C271.692 102.709 271.738 102.673 271.771 102.627C271.804 102.584 271.821 102.531 271.819 102.477C271.82 102.422 271.802 102.369 271.768 102.326C271.735 102.279 271.688 102.244 271.634 102.224Z" fill="#FFDB27"/>
<path d="M339.027 102.224C337.193 101.521 336.205 99.8803 335.767 98.9224C335.743 98.8702 335.703 98.8269 335.654 98.7987C335.602 98.7665 335.542 98.7497 335.481 98.7503C335.421 98.7497 335.361 98.7665 335.309 98.7987C335.259 98.8269 335.22 98.8702 335.196 98.9224C334.755 99.8803 333.765 101.527 331.943 102.224C331.89 102.244 331.843 102.28 331.809 102.326C331.776 102.371 331.759 102.424 331.758 102.479C331.759 102.534 331.777 102.586 331.809 102.63C331.843 102.676 331.89 102.712 331.943 102.732C333.776 103.434 334.763 105.078 335.199 106.033C335.225 106.086 335.265 106.13 335.315 106.16C335.367 106.19 335.426 106.206 335.487 106.206C335.546 106.206 335.605 106.19 335.656 106.16C335.706 106.13 335.746 106.086 335.772 106.033C336.213 105.078 337.206 103.432 339.03 102.73C339.084 102.709 339.13 102.673 339.165 102.627C339.196 102.583 339.212 102.531 339.213 102.477C339.212 102.422 339.194 102.37 339.162 102.326C339.128 102.28 339.081 102.244 339.027 102.224Z" fill="#FFDB27"/>
<path d="M335.164 149.12C333.329 148.417 332.345 146.776 331.906 145.816C331.881 145.764 331.841 145.72 331.79 145.692C331.738 145.662 331.679 145.646 331.618 145.646C331.558 145.646 331.499 145.662 331.446 145.692C331.396 145.72 331.357 145.763 331.333 145.816C330.892 146.776 329.902 148.423 328.083 149.12C328.028 149.139 327.98 149.175 327.946 149.222C327.914 149.266 327.896 149.318 327.895 149.372C327.896 149.428 327.913 149.481 327.946 149.526C327.981 149.572 328.029 149.607 328.083 149.628C329.913 150.328 330.9 151.971 331.336 152.929C331.361 152.981 331.401 153.024 331.451 153.053C331.504 153.083 331.563 153.099 331.624 153.099C331.684 153.099 331.743 153.083 331.796 153.053C331.846 153.025 331.885 152.982 331.909 152.929C332.353 151.971 333.343 150.328 335.167 149.625C335.221 149.605 335.267 149.569 335.302 149.523C335.333 149.478 335.35 149.425 335.35 149.37C335.349 149.316 335.331 149.263 335.299 149.219C335.265 149.174 335.218 149.139 335.164 149.12Z" fill="#FFDB27"/>
<path d="M219.64 159.221L211.609 161.72C210.499 162.065 209.879 163.243 210.224 164.352C210.569 165.461 211.748 166.08 212.858 165.735L220.889 163.237C221.998 162.892 222.618 161.713 222.273 160.604C221.928 159.495 220.749 158.876 219.64 159.221Z" fill="#F64A70"/>
<path d="M378.212 236.446C376.393 235.75 375.414 234.122 374.978 233.17C374.955 233.12 374.916 233.077 374.865 233.046C374.815 233.016 374.755 233 374.695 233C374.634 233 374.574 233.016 374.524 233.046C374.473 233.077 374.434 233.12 374.411 233.17C373.974 234.122 372.99 235.755 371.185 236.446C371.13 236.467 371.083 236.503 371.05 236.547C371.018 236.592 371 236.645 371 236.698C371 236.752 371.018 236.804 371.05 236.849C371.083 236.894 371.13 236.929 371.185 236.951C373.002 237.647 373.981 239.277 374.415 240.227C374.438 240.277 374.477 240.32 374.528 240.35C374.578 240.381 374.638 240.397 374.698 240.397C374.759 240.397 374.819 240.381 374.869 240.35C374.92 240.32 374.959 240.277 374.982 240.227C375.421 239.277 376.405 237.645 378.216 236.949C378.27 236.927 378.316 236.891 378.348 236.847C378.38 236.802 378.397 236.75 378.397 236.696C378.396 236.643 378.379 236.591 378.346 236.547C378.313 236.502 378.266 236.467 378.212 236.446Z" fill="#FFC200"/>
</g>
</g>
<defs>
<clipPath id="clip0_14355_15824">
<rect width="402" height="344" fill="white"/>
</clipPath>
<clipPath id="clip1_14355_15824">
<rect width="352" height="225" fill="white" transform="translate(50 82)"/>
</clipPath>
</defs>
</svg>
