<svg width="81" height="80" viewBox="0 0 81 80" fill="none" xmlns="http://www.w3.org/2000/svg">
<path d="M76.018 20.2711C73.8224 19.431 72.6402 17.4651 72.1147 16.3163C72.0867 16.2556 72.0392 16.2038 71.9782 16.1673C71.9173 16.1308 71.8456 16.1113 71.7723 16.1113C71.6989 16.1113 71.6272 16.1308 71.5663 16.1673C71.5053 16.2038 71.4578 16.2556 71.4298 16.3163C70.902 17.4651 69.7151 19.4373 67.5359 20.2711C67.4695 20.2968 67.413 20.3393 67.3733 20.3934C67.3337 20.4475 67.3125 20.5109 67.3125 20.5756C67.3125 20.6404 67.3337 20.7037 67.3733 20.7578C67.413 20.8119 67.4695 20.8544 67.5359 20.8801C69.7291 21.7202 70.9114 23.6882 71.4345 24.8349C71.4625 24.8956 71.51 24.9474 71.571 24.9839C71.6319 25.0204 71.7036 25.0399 71.7769 25.0399C71.8503 25.0399 71.922 25.0204 71.9829 24.9839C72.0439 24.9474 72.0914 24.8956 72.1194 24.8349C72.6495 23.6882 73.8365 21.7182 76.0227 20.8781C76.0882 20.8516 76.1436 20.8088 76.1824 20.7546C76.2212 20.7005 76.2416 20.6375 76.2411 20.5732C76.2406 20.5089 76.2192 20.4461 76.1796 20.3925C76.14 20.3389 76.0839 20.2967 76.018 20.2711V20.2711Z" fill="#8D33FF"/>
<path d="M13.7992 66.858C11.6037 66.0179 10.4214 64.0521 9.89598 62.9032C9.86794 62.8426 9.82044 62.7907 9.75948 62.7542C9.69851 62.7177 9.62683 62.6982 9.5535 62.6982C9.48017 62.6982 9.40849 62.7177 9.34753 62.7542C9.28656 62.7907 9.23906 62.8426 9.21103 62.9032C8.68324 64.0521 7.49632 66.0242 5.31715 66.858C5.2508 66.8837 5.19429 66.9262 5.15459 66.9804C5.1149 67.0345 5.09375 67.0978 5.09375 67.1625C5.09375 67.2273 5.1149 67.2906 5.15459 67.3447C5.19429 67.3988 5.2508 67.4413 5.31715 67.4671C7.51039 68.3072 8.69263 70.2751 9.21572 71.4218C9.24375 71.4825 9.29125 71.5344 9.35222 71.5708C9.41318 71.6073 9.48486 71.6268 9.55819 71.6268C9.63152 71.6268 9.70321 71.6073 9.76417 71.5708C9.82513 71.5344 9.87263 71.4825 9.90067 71.4218C10.4308 70.2751 11.6177 68.3051 13.8039 67.465C13.8694 67.4386 13.9249 67.3957 13.9637 67.3416C14.0024 67.2874 14.0228 67.2244 14.0223 67.1601C14.0218 67.0958 14.0005 67.033 13.9609 66.9794C13.9213 66.9258 13.8651 66.8836 13.7992 66.858V66.858Z" fill="#8D33FF"/>
<path d="M66.1642 10.268C63.0904 9.09185 61.4353 6.33969 60.6997 4.73132C60.6604 4.64638 60.5939 4.57377 60.5086 4.52269C60.4232 4.47161 60.3229 4.44434 60.2202 4.44434C60.1176 4.44434 60.0172 4.47161 59.9318 4.52269C59.8465 4.57377 59.78 4.64638 59.7408 4.73132C59.0019 6.33969 57.3402 9.10068 54.2893 10.268C54.1964 10.304 54.1173 10.3635 54.0617 10.4393C54.0062 10.515 53.9766 10.6037 53.9766 10.6943C53.9766 10.785 54.0062 10.8736 54.0617 10.9494C54.1173 11.0251 54.1964 11.0847 54.2893 11.1207C57.3599 12.2968 59.015 15.0519 59.7473 16.6574C59.7866 16.7423 59.8531 16.8149 59.9384 16.866C60.0238 16.9171 60.1241 16.9443 60.2268 16.9443C60.3294 16.9443 60.4298 16.9171 60.5151 16.866C60.6005 16.8149 60.667 16.7423 60.7062 16.6574C61.4484 15.0519 63.1101 12.2939 66.1708 11.1178C66.2625 11.0808 66.3402 11.0208 66.3944 10.945C66.4487 10.8692 66.4772 10.781 66.4766 10.691C66.4759 10.6009 66.446 10.5131 66.3905 10.438C66.3351 10.3629 66.2565 10.3038 66.1642 10.268Z" fill="#8D33FF"/>
<path d="M56.4354 58.8061C51.7243 63.5171 39.375 75.3966 39.375 75.3966C39.375 75.3966 27.0257 63.5171 22.3146 58.8061C12.8925 49.3839 12.8925 34.1075 22.3146 24.6854C31.7368 15.2632 47.0132 15.2632 56.4354 24.6854C65.8575 34.1075 65.8575 49.3839 56.4354 58.8061Z" fill="#FF8833"/>
<circle cx="39.3718" cy="41.7458" r="10.7937" fill="#8D33FF"/>
</svg>
