<svg width="152" height="36" viewBox="0 0 152 36" fill="none" xmlns="http://www.w3.org/2000/svg">
<path d="M39.3707 18.0033C39.3707 18.5565 39.151 19.0869 38.7599 19.478C38.3688 19.8691 37.8383 20.0889 37.2852 20.0889C36.7321 20.0889 36.2016 19.8691 35.8105 19.478C35.4194 19.0869 35.1997 18.5565 35.1997 18.0033C35.1997 17.4502 35.4194 16.9197 35.8105 16.5286C36.2016 16.1375 36.7321 15.9178 37.2852 15.9178C37.8383 15.9178 38.3688 16.1375 38.7599 16.5286C39.151 16.9197 39.3707 17.4502 39.3707 18.0033ZM32.9656 14.3573C32.799 14.3539 32.6334 14.3839 32.4785 14.4453C32.3236 14.5068 32.1825 14.5986 32.0635 14.7152C31.9444 14.8319 31.8499 14.9711 31.7853 15.1248C31.7208 15.2784 31.6876 15.4434 31.6876 15.61C31.6876 15.7767 31.7208 15.9417 31.7853 16.0953C31.8499 16.249 31.9444 16.3882 32.0635 16.5049C32.1825 16.6215 32.3236 16.7133 32.4785 16.7747C32.6334 16.8362 32.799 16.8661 32.9656 16.8628C33.2917 16.8536 33.6013 16.7176 33.8287 16.4837C34.056 16.2498 34.1832 15.9365 34.1832 15.6103C34.1832 15.2841 34.056 14.9708 33.8287 14.7369C33.6013 14.503 33.2917 14.367 32.9656 14.3578V14.3573ZM31.4861 9.98518C31.2745 9.98144 31.0642 10.0199 30.8677 10.0983C30.6711 10.1767 30.4921 10.2934 30.3411 10.4417C30.1901 10.5901 30.0702 10.767 29.9883 10.9621C29.9065 11.1573 29.8643 11.3668 29.8643 11.5785C29.8643 11.7901 29.9065 11.9996 29.9883 12.1948C30.0702 12.39 30.1901 12.5669 30.3411 12.7152C30.4921 12.8635 30.6711 12.9803 30.8677 13.0587C31.0642 13.1371 31.2745 13.1755 31.4861 13.1717C31.9038 13.1643 32.3018 12.9932 32.5946 12.6952C32.8874 12.3972 33.0514 11.9962 33.0514 11.5785C33.0514 11.1607 32.8874 10.7597 32.5946 10.4617C32.3018 10.1637 31.9038 9.99258 31.4861 9.98518ZM28.9035 6.66912C28.5131 6.66912 28.1387 6.82421 27.8627 7.10027C27.5866 7.37633 27.4315 7.75074 27.4315 8.14115C27.4315 8.53156 27.5866 8.90597 27.8627 9.18203C28.1387 9.45809 28.5131 9.61318 28.9035 9.61318C29.2939 9.61318 29.6684 9.45809 29.9444 9.18203C30.2205 8.90597 30.3756 8.53156 30.3756 8.14115C30.3756 7.75074 30.2205 7.37633 29.9444 7.10027C29.6684 6.82421 29.2939 6.66912 28.9035 6.66912ZM25.655 4.69359C25.4902 4.69359 25.327 4.72605 25.1747 4.78912C25.0224 4.85219 24.8841 4.94463 24.7675 5.06117C24.651 5.17771 24.5586 5.31607 24.4955 5.46833C24.4324 5.6206 24.4 5.7838 24.4 5.94861C24.4 6.11342 24.4324 6.27662 24.4955 6.42889C24.5586 6.58115 24.651 6.71951 24.7675 6.83605C24.8841 6.95258 25.0224 7.04503 25.1747 7.1081C25.327 7.17117 25.4902 7.20363 25.655 7.20363C25.9878 7.20363 26.307 7.07141 26.5424 6.83605C26.7778 6.60068 26.91 6.28146 26.91 5.94861C26.91 5.61576 26.7778 5.29654 26.5424 5.06117C26.307 4.82581 25.9878 4.69359 25.655 4.69359ZM22.2139 3.88057C22.0726 3.8775 21.9321 3.90269 21.8007 3.95464C21.6692 4.0066 21.5495 4.08428 21.4485 4.18313C21.3474 4.28198 21.2672 4.40001 21.2124 4.5303C21.1576 4.66059 21.1294 4.8005 21.1294 4.94184C21.1294 5.08318 21.1576 5.2231 21.2124 5.35338C21.2672 5.48367 21.3474 5.6017 21.4485 5.70055C21.5495 5.7994 21.6692 5.87708 21.8007 5.92904C21.9321 5.981 22.0726 6.00618 22.2139 6.00311C22.4914 5.99709 22.7555 5.88263 22.9496 5.68426C23.1437 5.48589 23.2524 5.21938 23.2524 4.94184C23.2524 4.6643 23.1437 4.39779 22.9496 4.19942C22.7555 4.00105 22.4914 3.8866 22.2139 3.88057ZM18.8414 4.02907C18.7322 4.02638 18.6236 4.04555 18.522 4.08545C18.4203 4.12536 18.3277 4.1852 18.2495 4.26145C18.1714 4.3377 18.1093 4.42882 18.0669 4.52944C18.0245 4.63006 18.0026 4.73815 18.0026 4.84734C18.0026 4.95653 18.0245 5.06462 18.0669 5.16524C18.1093 5.26586 18.1714 5.35698 18.2495 5.43323C18.3277 5.50948 18.4203 5.56932 18.522 5.60922C18.6236 5.64913 18.7322 5.6683 18.8414 5.66561C19.0549 5.66033 19.2579 5.5718 19.407 5.41892C19.5562 5.26604 19.6396 5.06092 19.6396 4.84734C19.6396 4.63376 19.5562 4.42864 19.407 4.27576C19.2579 4.12288 19.0549 4.03435 18.8414 4.02907ZM15.9073 4.73709C15.7206 4.73709 15.5415 4.81126 15.4095 4.94329C15.2775 5.07532 15.2033 5.25438 15.2033 5.4411C15.2033 5.62782 15.2775 5.80688 15.4095 5.93891C15.5415 6.07094 15.7206 6.14511 15.9073 6.14511C16.094 6.14511 16.2731 6.07094 16.4051 5.93891C16.5371 5.80688 16.6113 5.62782 16.6113 5.4411C16.6113 5.25438 16.5371 5.07532 16.4051 4.94329C16.2731 4.81126 16.094 4.73709 15.9073 4.73709ZM13.3997 5.85611C13.2386 5.85611 13.0841 5.92011 12.9702 6.03404C12.8562 6.14797 12.7922 6.3025 12.7922 6.46362C12.7922 6.62474 12.8562 6.77926 12.9702 6.89319C13.0841 7.00713 13.2386 7.07113 13.3997 7.07113C13.5609 7.07113 13.7154 7.00713 13.8293 6.89319C13.9433 6.77926 14.0073 6.62474 14.0073 6.46362C14.0073 6.3025 13.9433 6.14797 13.8293 6.03404C13.7154 5.92011 13.5609 5.85611 13.3997 5.85611ZM11.1867 7.30814C10.9997 7.30814 10.8204 7.38241 10.6882 7.51463C10.556 7.64684 10.4817 7.82617 10.4817 8.01315C10.4817 8.20013 10.556 8.37945 10.6882 8.51167C10.8204 8.64388 10.9997 8.71816 11.1867 8.71816C11.3737 8.71816 11.553 8.64388 11.6852 8.51167C11.8174 8.37945 11.8917 8.20013 11.8917 8.01315C11.8917 7.82617 11.8174 7.64684 11.6852 7.51463C11.553 7.38241 11.3737 7.30814 11.1867 7.30814ZM9.09567 9.34017C8.98678 9.33748 8.87844 9.3566 8.77705 9.39641C8.67566 9.43622 8.58326 9.49591 8.50529 9.57197C8.42732 9.64804 8.36536 9.73893 8.32305 9.83931C8.28075 9.93969 8.25895 10.0475 8.25895 10.1564C8.25895 10.2654 8.28075 10.3732 8.32305 10.4736C8.36536 10.5739 8.42732 10.6648 8.50529 10.7409C8.58326 10.817 8.67566 10.8767 8.77705 10.9165C8.87844 10.9563 8.98678 10.9754 9.09567 10.9727C9.30866 10.9674 9.51115 10.8791 9.65993 10.7266C9.80871 10.5741 9.89198 10.3695 9.89198 10.1564C9.89198 9.94338 9.80871 9.73877 9.65993 9.58626C9.51115 9.43376 9.30866 9.34544 9.09567 9.34017ZM7.34514 12.0662C7.08781 12.0662 6.84101 12.1684 6.65905 12.3504C6.47709 12.5324 6.37487 12.7792 6.37487 13.0365C6.37487 13.2938 6.47709 13.5406 6.65905 13.7226C6.84101 13.9045 7.08781 14.0068 7.34514 14.0068C7.6024 14.0068 7.84913 13.9046 8.03104 13.7226C8.21296 13.5407 8.31516 13.294 8.31516 13.0367C8.31516 12.7795 8.21296 12.5327 8.03104 12.3508C7.84913 12.1689 7.6024 12.0667 7.34514 12.0667V12.0662ZM6.33362 15.5703C6.0607 15.5703 5.79897 15.6787 5.60599 15.8717C5.41301 16.0647 5.3046 16.3264 5.3046 16.5993C5.3046 16.8722 5.41301 17.134 5.60599 17.3269C5.79897 17.5199 6.0607 17.6283 6.33362 17.6283C6.60653 17.6283 6.86827 17.5199 7.06124 17.3269C7.25422 17.134 7.36264 16.8722 7.36264 16.5993C7.36264 16.3264 7.25422 16.0647 7.06124 15.8717C6.86827 15.6787 6.60653 15.5703 6.33362 15.5703ZM6.40512 19.1399C6.24044 19.1399 6.07737 19.1723 5.92523 19.2353C5.77308 19.2983 5.63484 19.3907 5.51839 19.5071C5.40194 19.6236 5.30957 19.7618 5.24655 19.914C5.18353 20.0661 5.1511 20.2292 5.1511 20.3939C5.1511 20.5586 5.18353 20.7216 5.24655 20.8738C5.30957 21.0259 5.40194 21.1642 5.51839 21.2806C5.63484 21.3971 5.77308 21.4894 5.92523 21.5524C6.07737 21.6155 6.24044 21.6479 6.40512 21.6479C6.73771 21.6479 7.05667 21.5158 7.29185 21.2806C7.52702 21.0454 7.65914 20.7265 7.65914 20.3939C7.65914 20.0613 7.52702 19.7423 7.29185 19.5071C7.05667 19.272 6.73771 19.1399 6.40512 19.1399ZM7.88315 22.8334C7.46078 22.8334 7.05572 23.0012 6.75706 23.2999C6.4584 23.5985 6.29062 24.0036 6.29062 24.426C6.29062 24.8483 6.4584 25.2534 6.75706 25.552C7.05572 25.8507 7.46078 26.0185 7.88315 26.0185C8.30551 26.0185 8.71058 25.8507 9.00924 25.552C9.30789 25.2534 9.47568 24.8483 9.47568 24.426C9.47568 24.0036 9.30789 23.5985 9.00924 23.2999C8.71058 23.0012 8.30551 22.8334 7.88315 22.8334ZM10.4847 26.383C10.2893 26.3794 10.0951 26.4148 9.91348 26.4871C9.73188 26.5594 9.56651 26.6671 9.42704 26.804C9.28756 26.941 9.17676 27.1043 9.10113 27.2846C9.0255 27.4648 8.98655 27.6583 8.98655 27.8538C8.98655 28.0492 9.0255 28.2427 9.10113 28.423C9.17676 28.6032 9.28756 28.7666 9.42704 28.9035C9.56651 29.0404 9.73188 29.1482 9.91348 29.2205C10.0951 29.2928 10.2893 29.3281 10.4847 29.3245C10.8701 29.3174 11.2373 29.1594 11.5073 28.8843C11.7773 28.6093 11.9286 28.2392 11.9286 27.8538C11.9286 27.4683 11.7773 27.0983 11.5073 26.8232C11.2373 26.5482 10.8701 26.3901 10.4847 26.383ZM13.6198 28.7345C13.2876 28.7345 12.969 28.8665 12.7341 29.1014C12.4992 29.3363 12.3672 29.6549 12.3672 29.9871C12.3672 30.3192 12.4992 30.6378 12.7341 30.8727C12.969 31.1076 13.2876 31.2396 13.6198 31.2396C13.9519 31.2396 14.2705 31.1076 14.5054 30.8727C14.7403 30.6378 14.8723 30.3192 14.8723 29.9871C14.8723 29.6549 14.7403 29.3363 14.5054 29.1014C14.2705 28.8665 13.9519 28.7345 13.6198 28.7345ZM17.1598 30.0066C16.8786 30.0066 16.6089 30.1183 16.4101 30.3171C16.2113 30.5159 16.0995 30.7856 16.0995 31.0668C16.0995 31.348 16.2113 31.6177 16.4101 31.8165C16.6089 32.0154 16.8786 32.1271 17.1598 32.1271C17.441 32.1271 17.7106 32.0154 17.9094 31.8166C18.1082 31.6178 18.2198 31.3482 18.2198 31.0671C18.2198 30.7859 18.1082 30.5163 17.9094 30.3175C17.7106 30.1187 17.441 30.0071 17.1598 30.0071V30.0066ZM20.5264 30.3396C20.4194 30.3396 20.3134 30.3606 20.2145 30.4016C20.1156 30.4426 20.0258 30.5026 19.9501 30.5783C19.8744 30.654 19.8144 30.7438 19.7734 30.8427C19.7324 30.9416 19.7114 31.0475 19.7114 31.1546C19.7114 31.2616 19.7324 31.3676 19.7734 31.4665C19.8144 31.5654 19.8744 31.6552 19.9501 31.7309C20.0258 31.8066 20.1156 31.8666 20.2145 31.9076C20.3134 31.9485 20.4194 31.9696 20.5264 31.9696C20.7425 31.9696 20.9498 31.8837 21.1027 31.7309C21.2555 31.578 21.3414 31.3707 21.3414 31.1546C21.3414 30.9384 21.2555 30.7311 21.1027 30.5783C20.9498 30.4254 20.7425 30.3396 20.5264 30.3396ZM23.4689 29.8596C23.2819 29.8596 23.1025 29.9339 22.9702 30.0661C22.838 30.1984 22.7637 30.3778 22.7637 30.5648C22.7637 30.7519 22.838 30.9312 22.9702 31.0635C23.1025 31.1958 23.2819 31.2701 23.4689 31.2701C23.6559 31.2701 23.8352 31.1958 23.9675 31.0636C24.0997 30.9314 24.174 30.752 24.174 30.5651C24.174 30.3781 24.0997 30.1988 23.9675 30.0665C23.8352 29.9343 23.6559 29.8601 23.4689 29.8601V29.8596ZM25.974 28.9295C25.8132 28.9295 25.659 28.9934 25.5453 29.1071C25.4316 29.2208 25.3677 29.375 25.3677 29.5358C25.3677 29.6966 25.4316 29.8508 25.5453 29.9645C25.659 30.0782 25.8132 30.1421 25.974 30.1421C26.1347 30.1421 26.2888 30.0782 26.4025 29.9646C26.5161 29.8509 26.58 29.6968 26.58 29.536C26.58 29.3753 26.5161 29.2212 26.4025 29.1075C26.2888 28.9939 26.1347 28.93 25.974 28.93V28.9295ZM28.1865 27.2845C28.0921 27.282 27.9981 27.2984 27.91 27.3328C27.822 27.3673 27.7418 27.419 27.6741 27.4849C27.6064 27.5508 27.5526 27.6296 27.5159 27.7167C27.4791 27.8037 27.4602 27.8973 27.4602 27.9918C27.4602 28.0863 27.4791 28.1798 27.5159 28.2669C27.5526 28.3539 27.6064 28.4327 27.6741 28.4987C27.7418 28.5646 27.822 28.6163 27.91 28.6507C27.9981 28.6851 28.0921 28.7015 28.1865 28.699C28.3742 28.699 28.5541 28.6245 28.6868 28.4918C28.8195 28.3591 28.894 28.1792 28.894 27.9915C28.894 27.8039 28.8195 27.6239 28.6868 27.4912C28.5541 27.3585 28.3742 27.284 28.1865 27.284V27.2845ZM30.2811 25.0295C30.064 25.0295 29.8558 25.1157 29.7023 25.2692C29.5488 25.4227 29.4625 25.6309 29.4625 25.848C29.4625 26.0651 29.5488 26.2733 29.7023 26.4268C29.8558 26.5803 30.064 26.6665 30.2811 26.6665C30.4946 26.6612 30.6976 26.5727 30.8467 26.4198C30.9959 26.2669 31.0793 26.0618 31.0793 25.8482C31.0793 25.6346 30.9959 25.4295 30.8467 25.2766C30.6976 25.1238 30.4946 25.0352 30.2811 25.03V25.0295ZM32.0271 21.9944C31.7699 21.9944 31.5232 22.0966 31.3414 22.2784C31.1595 22.4603 31.0573 22.707 31.0573 22.9642C31.0573 23.2214 31.1595 23.468 31.3414 23.6499C31.5232 23.8318 31.7699 23.9339 32.0271 23.9339C32.2842 23.9339 32.5308 23.8318 32.7126 23.65C32.8945 23.4682 32.9966 23.2216 32.9966 22.9644C32.9966 22.7073 32.8945 22.4607 32.7126 22.2789C32.5308 22.0971 32.2842 21.9949 32.0271 21.9949V21.9944ZM33.0421 18.3788C32.9076 18.3788 32.7745 18.4053 32.6502 18.4568C32.526 18.5083 32.4131 18.5837 32.318 18.6788C32.2229 18.7739 32.1475 18.8867 32.096 19.011C32.0446 19.1352 32.0181 19.2684 32.0181 19.4029C32.0181 19.5373 32.0446 19.6705 32.096 19.7947C32.1475 19.919 32.2229 20.0319 32.318 20.1269C32.4131 20.222 32.526 20.2975 32.6502 20.3489C32.7745 20.4004 32.9076 20.4269 33.0421 20.4269C33.3137 20.4269 33.5742 20.319 33.7662 20.1269C33.9582 19.9349 34.0661 19.6744 34.0661 19.4029C34.0661 19.1313 33.9582 18.8708 33.7662 18.6788C33.5742 18.4867 33.3137 18.3788 33.0421 18.3788ZM29.033 17.2018C28.7753 17.2018 28.5281 17.3042 28.3459 17.4864C28.1637 17.6687 28.0613 17.9159 28.0613 18.1736C28.0613 18.4313 28.1637 18.6785 28.3459 18.8607C28.5281 19.043 28.7753 19.1454 29.033 19.1454C29.2907 19.1454 29.5378 19.043 29.72 18.8608C29.9022 18.6786 30.0046 18.4315 30.0046 18.1738C30.0046 17.9162 29.9022 17.6691 29.72 17.4869C29.5378 17.3047 29.2907 17.2023 29.033 17.2023V17.2018ZM25.272 16.3373C25.126 16.3373 24.9861 16.3953 24.8829 16.4985C24.7797 16.6017 24.7217 16.7416 24.7217 16.8876C24.7217 17.0335 24.7797 17.1735 24.8829 17.2767C24.9861 17.3798 25.126 17.4378 25.272 17.4378C25.4179 17.4378 25.5579 17.3798 25.6611 17.2767C25.7643 17.1735 25.8222 17.0335 25.8222 16.8876C25.8222 16.7416 25.7643 16.6017 25.6611 16.4985C25.5579 16.3953 25.4179 16.3373 25.272 16.3373ZM24.2319 13.7213C24.0313 13.7213 23.8389 13.801 23.697 13.9428C23.5551 14.0847 23.4754 14.2771 23.4754 14.4778C23.4754 14.6784 23.5551 14.8708 23.697 15.0127C23.8389 15.1546 24.0313 15.2343 24.2319 15.2343C24.4327 15.2343 24.6251 15.1546 24.7671 15.0126C24.909 14.8707 24.9887 14.6782 24.9887 14.4775C24.9887 14.2768 24.909 14.0843 24.7671 13.9424C24.6251 13.8005 24.4327 13.7208 24.2319 13.7208V13.7213ZM21.7619 11.5232C21.6236 11.5189 21.4859 11.5424 21.3568 11.5924C21.2278 11.6423 21.1101 11.7177 21.0108 11.814C20.9114 11.9103 20.8324 12.0256 20.7785 12.153C20.7245 12.2804 20.6967 12.4174 20.6967 12.5557C20.6967 12.6941 20.7245 12.831 20.7785 12.9585C20.8324 13.0859 20.9114 13.2012 21.0108 13.2975C21.1101 13.3938 21.2278 13.4691 21.3568 13.5191C21.4859 13.569 21.6236 13.5926 21.7619 13.5883C22.0302 13.5799 22.2847 13.4675 22.4715 13.2747C22.6583 13.082 22.7628 12.8241 22.7628 12.5557C22.7628 12.2873 22.6583 12.0295 22.4715 11.8367C22.2847 11.644 22.0302 11.5316 21.7619 11.5232ZM18.4098 11.1522C18.1009 11.1522 17.8045 11.2749 17.586 11.4934C17.3676 11.7119 17.2448 12.0082 17.2448 12.3172C17.2448 12.6262 17.3676 12.9225 17.586 13.141C17.8045 13.3595 18.1009 13.4822 18.4098 13.4822C18.7188 13.4822 19.0152 13.3595 19.2336 13.141C19.4521 12.9225 19.5749 12.6262 19.5749 12.3172C19.5749 12.0082 19.4521 11.7119 19.2336 11.4934C19.0152 11.2749 18.7188 11.1522 18.4098 11.1522ZM15.5708 12.7702C15.2769 12.7702 14.9951 12.887 14.7873 13.0948C14.5795 13.3026 14.4628 13.5844 14.4628 13.8783C14.4628 14.1721 14.5795 14.454 14.7873 14.6617C14.9951 14.8695 15.2769 14.9863 15.5708 14.9863C15.8647 14.9863 16.1465 14.8695 16.3543 14.6617C16.5621 14.454 16.6788 14.1721 16.6788 13.8783C16.6788 13.5844 16.5621 13.3026 16.3543 13.0948C16.1465 12.887 15.8647 12.7702 15.5708 12.7702ZM14.1158 15.8153C13.9179 15.8153 13.7282 15.8939 13.5883 16.0338C13.4483 16.1737 13.3697 16.3635 13.3697 16.5613C13.3697 16.7592 13.4483 16.9489 13.5883 17.0888C13.7282 17.2287 13.9179 17.3073 14.1158 17.3073C14.3137 17.3073 14.5035 17.2287 14.6435 17.0887C14.7834 16.9488 14.862 16.759 14.862 16.5611C14.862 16.3631 14.7834 16.1733 14.6435 16.0334C14.5035 15.8934 14.3137 15.8148 14.1158 15.8148V15.8153ZM14.1738 18.6583C14.0281 18.6583 13.8884 18.7162 13.7854 18.8192C13.6824 18.9222 13.6245 19.0619 13.6245 19.2076C13.6245 19.3533 13.6824 19.493 13.7854 19.596C13.8884 19.699 14.0281 19.7569 14.1738 19.7569C14.3194 19.7569 14.4591 19.699 14.5622 19.596C14.6652 19.493 14.723 19.3533 14.723 19.2076C14.723 19.0619 14.6652 18.9222 14.5622 18.8192C14.4591 18.7162 14.3194 18.6583 14.1738 18.6583ZM15.1593 20.8409C14.9585 20.8409 14.766 20.9206 14.624 21.0626C14.482 21.2046 14.4023 21.3971 14.4023 21.5979C14.4023 21.7987 14.482 21.9912 14.624 22.1332C14.766 22.2752 14.9585 22.3549 15.1593 22.3549C15.3601 22.3549 15.5526 22.2752 15.6946 22.1332C15.8365 21.9912 15.9163 21.7987 15.9163 21.5979C15.9163 21.3971 15.8365 21.2046 15.6946 21.0626C15.5526 20.9206 15.3601 20.8409 15.1593 20.8409ZM17.6443 22.5254C17.3706 22.5254 17.1081 22.6341 16.9146 22.8277C16.721 23.0212 16.6123 23.2837 16.6123 23.5574C16.6123 23.8311 16.721 24.0936 16.9146 24.2872C17.1081 24.4807 17.3706 24.5895 17.6443 24.5895C17.918 24.5895 18.1805 24.4807 18.3741 24.2872C18.5676 24.0936 18.6763 23.8311 18.6763 23.5574C18.6763 23.2837 18.5676 23.0212 18.3741 22.8277C18.1805 22.6341 17.918 22.5254 17.6443 22.5254ZM20.9869 22.6109C20.6784 22.6109 20.3825 22.7335 20.1643 22.9516C19.9462 23.1698 19.8236 23.4657 19.8236 23.7742C19.8236 24.0827 19.9462 24.3786 20.1643 24.5967C20.3825 24.8149 20.6784 24.9375 20.9869 24.9375C21.2954 24.9375 21.5913 24.8149 21.8094 24.5967C22.0276 24.3786 22.1502 24.0827 22.1502 23.7742C22.1502 23.4657 22.0276 23.1698 21.8094 22.9516C21.5913 22.7335 21.2954 22.6109 20.9869 22.6109ZM23.8429 21.0994C23.5483 21.0994 23.2657 21.2164 23.0573 21.4248C22.849 21.6332 22.7319 21.9157 22.7319 22.2104C22.7319 22.5051 22.849 22.7877 23.0573 22.996C23.2657 23.2044 23.5483 23.3214 23.8429 23.3214C24.1376 23.3214 24.4202 23.2044 24.6286 22.996C24.8369 22.7877 24.954 22.5051 24.954 22.2104C24.954 21.9157 24.8369 21.6332 24.6286 21.4248C24.4202 21.2164 24.1376 21.0994 23.8429 21.0994ZM25.293 18.7913C25.1949 18.7913 25.0977 18.8107 25.0071 18.8482C24.9165 18.8858 24.8341 18.9408 24.7647 19.0101C24.6954 19.0795 24.6404 19.1619 24.6028 19.2525C24.5653 19.3431 24.546 19.4403 24.546 19.5384C24.546 19.6365 24.5653 19.7336 24.6028 19.8242C24.6404 19.9149 24.6954 19.9972 24.7647 20.0666C24.8341 20.1359 24.9165 20.191 25.0071 20.2285C25.0977 20.2661 25.1949 20.2854 25.293 20.2854C25.4911 20.2854 25.6811 20.2067 25.8212 20.0666C25.9613 19.9265 26.04 19.7365 26.04 19.5384C26.04 19.3402 25.9613 19.1502 25.8212 19.0101C25.6811 18.87 25.4911 18.7913 25.293 18.7913ZM28.545 13.3052C28.2138 13.3052 27.8961 13.4368 27.6618 13.6711C27.4276 13.9053 27.296 14.223 27.296 14.5543C27.296 14.8855 27.4276 15.2032 27.6618 15.4375C27.8961 15.6717 28.2138 15.8033 28.545 15.8033C28.8763 15.8033 29.194 15.6717 29.4282 15.4375C29.6625 15.2032 29.7941 14.8855 29.7941 14.5543C29.7941 14.223 29.6625 13.9053 29.4282 13.6711C29.194 13.4368 28.8763 13.3052 28.545 13.3052ZM26.429 9.79868C26.033 9.79868 25.6533 9.95598 25.3733 10.236C25.0933 10.516 24.936 10.8957 24.936 11.2917C24.936 11.6877 25.0933 12.0674 25.3733 12.3474C25.6533 12.6274 26.033 12.7847 26.429 12.7847C26.825 12.7847 27.2047 12.6274 27.4847 12.3474C27.7647 12.0674 27.922 11.6877 27.922 11.2917C27.922 10.8957 27.7647 10.516 27.4847 10.236C27.2047 9.95598 26.825 9.79868 26.429 9.79868ZM23.2364 7.83665C22.8815 7.83665 22.5411 7.97764 22.2901 8.22862C22.0392 8.47959 21.8982 8.81999 21.8982 9.17492C21.8982 9.52985 22.0392 9.87025 22.2901 10.1212C22.5411 10.3722 22.8815 10.5132 23.2364 10.5132C23.5914 10.5132 23.9318 10.3722 24.1827 10.1212C24.4337 9.87025 24.5747 9.52985 24.5747 9.17492C24.5747 8.81999 24.4337 8.47959 24.1827 8.22862C23.9318 7.97764 23.5914 7.83665 23.2364 7.83665ZM19.6924 7.44664C19.3807 7.44664 19.0819 7.57043 18.8615 7.79079C18.6411 8.01115 18.5173 8.31002 18.5173 8.62166C18.5173 8.93329 18.6411 9.23217 18.8615 9.45253C19.0819 9.67288 19.3807 9.79668 19.6924 9.79668C20.004 9.79668 20.3029 9.67288 20.5232 9.45253C20.7436 9.23217 20.8674 8.93329 20.8674 8.62166C20.8674 8.31002 20.7436 8.01115 20.5232 7.79079C20.3029 7.57043 20.004 7.44664 19.6924 7.44664ZM16.1498 8.58166C15.9167 8.58166 15.6931 8.67427 15.5282 8.83912C15.3634 9.00396 15.2708 9.22754 15.2708 9.46067C15.2708 9.6938 15.3634 9.91739 15.5282 10.0822C15.6931 10.2471 15.9167 10.3397 16.1498 10.3397C16.383 10.3397 16.6066 10.2471 16.7715 10.0822C16.9364 9.91727 17.0291 9.69362 17.0291 9.46042C17.0291 9.22723 16.9364 9.00358 16.7715 8.83869C16.6066 8.6738 16.383 8.58116 16.1498 8.58116V8.58166ZM13.1577 10.6617C13.0492 10.6579 12.941 10.676 12.8395 10.7149C12.7381 10.7538 12.6455 10.8127 12.5674 10.8882C12.4892 10.9636 12.4271 11.0541 12.3846 11.1541C12.3422 11.2541 12.3203 11.3616 12.3203 11.4702C12.3203 11.5788 12.3422 11.6864 12.3846 11.7864C12.4271 11.8864 12.4892 11.9768 12.5674 12.0522C12.6455 12.1277 12.7381 12.1866 12.8395 12.2255C12.941 12.2645 13.0492 12.2825 13.1577 12.2787C13.3688 12.2735 13.5694 12.186 13.7168 12.0349C13.8642 11.8838 13.9466 11.681 13.9466 11.47C13.9466 11.2589 13.8642 11.0562 13.7168 10.9051C13.5694 10.754 13.3688 10.6664 13.1577 10.6612V10.6617ZM11.1352 13.6318C10.9198 13.6318 10.7133 13.7173 10.561 13.8696C10.4087 14.0219 10.3232 14.2284 10.3232 14.4438C10.3232 14.6591 10.4087 14.8657 10.561 15.0179C10.7133 15.1702 10.9198 15.2558 11.1352 15.2558C11.3506 15.2558 11.5572 15.1702 11.7096 15.0179C11.8619 14.8655 11.9475 14.6589 11.9475 14.4435C11.9475 14.2281 11.8619 14.0215 11.7096 13.8692C11.5572 13.7168 11.3506 13.6313 11.1352 13.6313V13.6318ZM10.2832 16.8833C10.0264 16.8833 9.78011 16.9853 9.59852 17.1669C9.41694 17.3485 9.31492 17.5948 9.31492 17.8516C9.31492 18.1084 9.41694 18.3547 9.59852 18.5362C9.78011 18.7178 10.0264 18.8198 10.2832 18.8198C10.54 18.8198 10.7863 18.7178 10.9679 18.5362C11.1494 18.3547 11.2515 18.1084 11.2515 17.8516C11.2515 17.5948 11.1494 17.3485 10.9679 17.1669C10.7863 16.9853 10.54 16.8833 10.2832 16.8833ZM10.7787 20.2109C10.447 20.2109 10.129 20.3426 9.89445 20.5771C9.65993 20.8117 9.52818 21.1297 9.52818 21.4614C9.52818 21.7931 9.65993 22.1111 9.89445 22.3456C10.129 22.5802 10.447 22.7119 10.7787 22.7119C11.1104 22.7119 11.4284 22.5802 11.663 22.3456C11.8975 22.1111 12.0292 21.7931 12.0292 21.4614C12.0292 21.1297 11.8975 20.8117 11.663 20.5771C11.4284 20.3426 11.1104 20.2109 10.7787 20.2109ZM12.8932 23.2384C12.6976 23.2384 12.5038 23.277 12.323 23.3519C12.1423 23.4267 11.978 23.5365 11.8396 23.6748C11.7013 23.8132 11.5915 23.9775 11.5166 24.1582C11.4418 24.339 11.4032 24.5328 11.4032 24.7285C11.4032 24.9241 11.4418 25.1179 11.5166 25.2987C11.5915 25.4794 11.7013 25.6437 11.8396 25.7821C11.978 25.9204 12.1423 26.0302 12.323 26.1051C12.5038 26.1799 12.6976 26.2185 12.8932 26.2185C13.2884 26.2185 13.6674 26.0615 13.9468 25.7821C14.2263 25.5026 14.3833 25.1236 14.3833 24.7285C14.3833 24.3333 14.2263 23.9543 13.9468 23.6748C13.6674 23.3954 13.2884 23.2384 12.8932 23.2384ZM16.1013 25.4995C15.7451 25.4995 15.4035 25.641 15.1516 25.8928C14.8998 26.1447 14.7583 26.4863 14.7583 26.8425C14.7583 27.1987 14.8998 27.5403 15.1516 27.7922C15.4035 28.044 15.7451 28.1855 16.1013 28.1855C16.4575 28.1855 16.7991 28.044 17.051 27.7922C17.3028 27.5403 17.4443 27.1987 17.4443 26.8425C17.4443 26.4863 17.3028 26.1447 17.051 25.8928C16.7991 25.641 16.4575 25.4995 16.1013 25.4995ZM19.6344 26.207C19.3205 26.207 19.0196 26.3316 18.7977 26.5536C18.5758 26.7755 18.4511 27.0764 18.4511 27.3903C18.4511 27.7041 18.5758 28.0051 18.7977 28.227C19.0196 28.4489 19.3205 28.5735 19.6344 28.5735C19.9482 28.5735 20.2492 28.4489 20.4711 28.227C20.693 28.0051 20.8176 27.7041 20.8176 27.3903C20.8176 27.0764 20.693 26.7755 20.4711 26.5536C20.2492 26.3316 19.9482 26.207 19.6344 26.207ZM23.1794 25.682C23.064 25.682 22.9497 25.7047 22.843 25.7489C22.7364 25.7931 22.6395 25.8578 22.5579 25.9394C22.4762 26.0211 22.4115 26.118 22.3673 26.2246C22.3232 26.3313 22.3004 26.4456 22.3004 26.561C22.3004 26.6764 22.3232 26.7907 22.3673 26.8974C22.4115 27.004 22.4762 27.1009 22.5579 27.1825C22.6395 27.2642 22.7364 27.3289 22.843 27.3731C22.9497 27.4173 23.064 27.44 23.1794 27.44C23.4126 27.44 23.6361 27.3474 23.801 27.1825C23.9658 27.0177 24.0584 26.7941 24.0584 26.561C24.0584 26.3279 23.9658 26.1043 23.801 25.9394C23.6361 25.7746 23.4126 25.682 23.1794 25.682ZM26.1755 23.7559C26.0668 23.7521 25.9584 23.7702 25.8569 23.8092C25.7553 23.8482 25.6627 23.9072 25.5844 23.9827C25.5062 24.0583 25.4439 24.1488 25.4014 24.2489C25.3589 24.349 25.337 24.4567 25.337 24.5655C25.337 24.6742 25.3589 24.7819 25.4014 24.882C25.4439 24.9821 25.5062 25.0726 25.5844 25.1482C25.6627 25.2237 25.7553 25.2828 25.8569 25.3217C25.9584 25.3607 26.0668 25.3788 26.1755 25.375C26.3853 25.3676 26.584 25.2791 26.7298 25.1281C26.8756 24.9771 26.957 24.7754 26.957 24.5655C26.957 24.3556 26.8756 24.1538 26.7298 24.0028C26.584 23.8518 26.3853 23.7633 26.1755 23.7559ZM28.1965 20.7559C28.0885 20.7532 27.981 20.7722 27.8804 20.8116C27.7798 20.8511 27.6882 20.9104 27.6108 20.9858C27.5334 21.0613 27.472 21.1514 27.43 21.251C27.388 21.3506 27.3664 21.4576 27.3664 21.5656C27.3664 21.6737 27.388 21.7807 27.43 21.8803C27.472 21.9799 27.5334 22.07 27.6108 22.1455C27.6882 22.2209 27.7798 22.2802 27.8804 22.3197C27.981 22.3591 28.0885 22.3781 28.1965 22.3754C28.4063 22.368 28.605 22.2795 28.7508 22.1285C28.8966 21.9775 28.9781 21.7758 28.9781 21.5659C28.9781 21.356 28.8966 21.1543 28.7508 21.0033C28.605 20.8523 28.4063 20.7638 28.1965 20.7564V20.7559ZM36.4617 10.6292C36.2226 10.6252 35.9851 10.6689 35.7631 10.7576C35.5411 10.8463 35.3389 10.9784 35.1684 11.146C34.998 11.3137 34.8626 11.5136 34.7702 11.7341C34.6777 11.9547 34.6301 12.1914 34.6301 12.4305C34.6301 12.6696 34.6777 12.9063 34.7702 13.1268C34.8626 13.3473 34.998 13.5473 35.1684 13.7149C35.3389 13.8826 35.5411 14.0146 35.7631 14.1034C35.9851 14.1921 36.2226 14.2357 36.4617 14.2318C36.9342 14.2239 37.3847 14.0307 37.7161 13.6937C38.0475 13.3568 38.2332 12.9031 38.2332 12.4305C38.2332 11.9579 38.0475 11.5042 37.7161 11.1673C37.3847 10.8303 36.9342 10.6371 36.4617 10.6292ZM34.1711 6.48862C33.9698 6.48862 33.7704 6.52828 33.5844 6.60533C33.3983 6.68239 33.2293 6.79533 33.0869 6.93771C32.9446 7.08008 32.8316 7.24911 32.7546 7.43514C32.6775 7.62116 32.6379 7.82055 32.6379 8.0219C32.6379 8.22325 32.6775 8.42263 32.7546 8.60866C32.8316 8.79468 32.9446 8.96371 33.0869 9.10609C33.2293 9.24847 33.3983 9.36141 33.5844 9.43846C33.7704 9.51552 33.9698 9.55518 34.1711 9.55518C34.5778 9.55518 34.9678 9.39364 35.2553 9.10609C35.5429 8.81854 35.7044 8.42855 35.7044 8.0219C35.7044 7.61525 35.5429 7.22525 35.2553 6.93771C34.9678 6.65016 34.5778 6.48862 34.1711 6.48862ZM30.7711 3.24006C30.4207 3.24006 30.0847 3.37924 29.837 3.62698C29.5892 3.87472 29.45 4.21073 29.45 4.56108C29.45 4.91144 29.5892 5.24745 29.837 5.49519C30.0847 5.74293 30.4207 5.88211 30.7711 5.88211C31.1214 5.88211 31.4574 5.74293 31.7052 5.49519C31.9529 5.24745 32.0921 4.91144 32.0921 4.56108C32.0921 4.21073 31.9529 3.87472 31.7052 3.62698C31.4574 3.37924 31.1214 3.24006 30.7711 3.24006ZM26.958 1.27402C26.8156 1.27094 26.674 1.29634 26.5415 1.34872C26.409 1.40109 26.2883 1.4794 26.1865 1.57904C26.0847 1.67868 26.0038 1.79766 25.9485 1.92898C25.8933 2.0603 25.8649 2.20133 25.8649 2.34379C25.8649 2.48626 25.8933 2.62729 25.9485 2.75861C26.0038 2.88993 26.0847 3.0089 26.1865 3.10855C26.2883 3.20819 26.409 3.28649 26.5415 3.33887C26.674 3.39125 26.8156 3.41664 26.958 3.41356C27.2418 3.41356 27.514 3.30083 27.7146 3.10016C27.9153 2.89949 28.028 2.62733 28.028 2.34354C28.028 2.05976 27.9153 1.78759 27.7146 1.58693C27.514 1.38626 27.2418 1.27352 26.958 1.27352V1.27402ZM23.2084 0.267005C22.9641 0.267005 22.7298 0.364067 22.557 0.536838C22.3842 0.709609 22.2872 0.943937 22.2872 1.18827C22.2872 1.43261 22.3842 1.66693 22.557 1.83971C22.7298 2.01248 22.9641 2.10954 23.2084 2.10954C23.4528 2.10954 23.6871 2.01248 23.8599 1.83971C24.0326 1.66693 24.1297 1.43261 24.1297 1.18827C24.1297 0.943937 24.0326 0.709609 23.8599 0.536838C23.6871 0.364067 23.4528 0.267005 23.2084 0.267005ZM19.6824 0C19.5783 -1.55083e-09 19.4752 0.020499 19.3791 0.0603266C19.2829 0.100154 19.1956 0.15853 19.122 0.232122C19.0484 0.305714 18.99 0.39308 18.9502 0.489232C18.9104 0.585385 18.8899 0.68844 18.8899 0.792515C18.8899 0.896589 18.9104 0.999645 18.9502 1.0958C18.99 1.19195 19.0484 1.27932 19.122 1.35291C19.1956 1.4265 19.2829 1.48488 19.3791 1.5247C19.4752 1.56453 19.5783 1.58503 19.6824 1.58503C19.8926 1.58503 20.0941 1.50153 20.2428 1.35291C20.3914 1.20428 20.4749 1.0027 20.4749 0.792515C20.4749 0.582327 20.3914 0.380747 20.2428 0.232122C20.0941 0.0834968 19.8926 3.13204e-09 19.6824 0V0ZM16.1673 0.263005C15.9224 0.263005 15.6875 0.360304 15.5143 0.533497C15.3411 0.70669 15.2438 0.94159 15.2438 1.18652C15.2438 1.43145 15.3411 1.66635 15.5143 1.83955C15.6875 2.01274 15.9224 2.11004 16.1673 2.11004C16.4084 2.10443 16.6378 2.00469 16.8064 1.83216C16.975 1.65962 17.0693 1.42798 17.0693 1.18677C17.0693 0.945561 16.975 0.713923 16.8064 0.541388C16.6378 0.368854 16.4084 0.269117 16.1673 0.263505V0.263005ZM12.4172 1.27402C12.2766 1.27402 12.1374 1.30171 12.0076 1.35551C11.8777 1.40931 11.7597 1.48816 11.6603 1.58757C11.5609 1.68698 11.482 1.80499 11.4282 1.93487C11.3744 2.06475 11.3467 2.20396 11.3467 2.34454C11.3467 2.48513 11.3744 2.62433 11.4282 2.75421C11.482 2.88409 11.5609 3.00211 11.6603 3.10152C11.7597 3.20092 11.8777 3.27978 12.0076 3.33357C12.1374 3.38737 12.2766 3.41506 12.4172 3.41506C12.7012 3.41506 12.9734 3.30228 13.1742 3.10152C13.375 2.90075 13.4878 2.62846 13.4878 2.34454C13.4878 2.06062 13.375 1.78833 13.1742 1.58757C12.9734 1.38681 12.7012 1.27402 12.4172 1.27402ZM8.60066 3.23606C8.25004 3.23606 7.91377 3.37534 7.66585 3.62327C7.41792 3.8712 7.27864 4.20746 7.27864 4.55808C7.27864 4.90871 7.41792 5.24497 7.66585 5.4929C7.91377 5.74082 8.25004 5.88011 8.60066 5.88011C8.95128 5.88011 9.28755 5.74082 9.53547 5.4929C9.7834 5.24497 9.92268 4.90871 9.92268 4.55808C9.92268 4.20746 9.7834 3.8712 9.53547 3.62327C9.28755 3.37534 8.95128 3.23606 8.60066 3.23606ZM5.2001 6.48862C4.99661 6.48494 4.79443 6.52185 4.60537 6.59718C4.41631 6.6725 4.24415 6.78475 4.09894 6.92735C3.95374 7.06995 3.8384 7.24006 3.75967 7.42773C3.68094 7.6154 3.64039 7.81688 3.64039 8.0204C3.64039 8.22392 3.68094 8.42539 3.75967 8.61307C3.8384 8.80074 3.95374 8.97084 4.09894 9.11345C4.24415 9.25605 4.41631 9.36829 4.60537 9.44362C4.79443 9.51895 4.99661 9.55585 5.2001 9.55218C5.60156 9.54492 5.98412 9.38035 6.26547 9.09388C6.54681 8.8074 6.70445 8.42192 6.70445 8.0204C6.70445 7.61887 6.54681 7.23339 6.26547 6.94692C5.98412 6.66045 5.60156 6.49587 5.2001 6.48862ZM2.91205 10.6352C2.67298 10.6312 2.43551 10.6749 2.21347 10.7636C1.99144 10.8523 1.7893 10.9844 1.61882 11.152C1.44834 11.3197 1.31295 11.5196 1.22053 11.7401C1.12811 11.9607 1.08051 12.1974 1.08051 12.4365C1.08051 12.6756 1.12811 12.9123 1.22053 13.1328C1.31295 13.3533 1.44834 13.5533 1.61882 13.7209C1.7893 13.8886 1.99144 14.0206 2.21347 14.1094C2.43551 14.1981 2.67298 14.2417 2.91205 14.2378C3.38459 14.2299 3.8351 14.0367 4.16649 13.6997C4.49787 13.3628 4.68358 12.9091 4.68358 12.4365C4.68358 11.9639 4.49787 11.5102 4.16649 11.1733C3.8351 10.8363 3.38459 10.6431 2.91205 10.6352ZM2.08554 15.9178C1.53242 15.9178 1.00195 16.1375 0.61084 16.5286C0.219726 16.9197 0 17.4502 0 18.0033C0 18.5565 0.219726 19.0869 0.61084 19.478C1.00195 19.8691 1.53242 20.0889 2.08554 20.0889C2.63866 20.0889 3.16912 19.8691 3.56024 19.478C3.95135 19.0869 4.17108 18.5565 4.17108 18.0033C4.17108 17.4502 3.95135 16.9197 3.56024 16.5286C3.16912 16.1375 2.63866 15.9178 2.08554 15.9178ZM2.91305 21.7659C2.67277 21.7602 2.43378 21.8027 2.21013 21.8907C1.98649 21.9788 1.7827 22.1106 1.61076 22.2786C1.43882 22.4465 1.30218 22.6471 1.2089 22.8687C1.11562 23.0902 1.06756 23.3281 1.06756 23.5684C1.06756 23.8088 1.11562 24.0467 1.2089 24.2682C1.30218 24.4897 1.43882 24.6904 1.61076 24.8583C1.7827 25.0262 1.98649 25.1581 2.21013 25.2461C2.43378 25.3342 2.67277 25.3766 2.91305 25.371C3.38376 25.3599 3.83146 25.1651 4.16046 24.8283C4.48945 24.4914 4.67363 24.0393 4.67363 23.5684C4.67363 23.0976 4.48945 22.6454 4.16046 22.3086C3.83146 21.9718 3.38376 21.777 2.91305 21.7659ZM5.2021 26.453C4.79598 26.453 4.40649 26.6143 4.11932 26.9015C3.83215 27.1887 3.67082 27.5781 3.67082 27.9843C3.67082 28.3904 3.83215 28.7799 4.11932 29.067C4.40649 29.3542 4.79598 29.5155 5.2021 29.5155C5.60822 29.5155 5.9977 29.3542 6.28487 29.067C6.57204 28.7799 6.73338 28.3904 6.73338 27.9843C6.73338 27.5781 6.57204 27.1887 6.28487 26.9015C5.9977 26.6143 5.60822 26.453 5.2021 26.453ZM8.59816 30.1231C8.24754 30.1231 7.91127 30.2623 7.66335 30.5103C7.41542 30.7582 7.27614 31.0945 7.27614 31.4451C7.27614 31.7957 7.41542 32.132 7.66335 32.3799C7.91127 32.6278 8.24754 32.7671 8.59816 32.7671C8.94878 32.7671 9.28505 32.6278 9.53297 32.3799C9.7809 32.132 9.92018 31.7957 9.92018 31.4451C9.92018 31.0945 9.7809 30.7582 9.53297 30.5103C9.28505 30.2623 8.94878 30.1231 8.59816 30.1231ZM12.4172 32.5866C12.1332 32.5866 11.8608 32.6994 11.6599 32.9003C11.4591 33.1012 11.3462 33.3736 11.3462 33.6576C11.3462 33.9417 11.4591 34.2141 11.6599 34.4149C11.8608 34.6158 12.1332 34.7286 12.4172 34.7286C12.7013 34.7286 12.9737 34.6158 13.1746 34.4149C13.3754 34.2141 13.4883 33.9417 13.4883 33.6576C13.4883 33.3736 13.3754 33.1012 13.1746 32.9003C12.9737 32.6994 12.7013 32.5866 12.4172 32.5866ZM16.1698 33.8946C15.9251 33.8946 15.6905 33.9918 15.5175 34.1648C15.3445 34.3378 15.2473 34.5725 15.2473 34.8171C15.2473 35.0618 15.3445 35.2965 15.5175 35.4695C15.6905 35.6425 15.9251 35.7397 16.1698 35.7397C16.4145 35.7397 16.6491 35.6425 16.8221 35.4695C16.9951 35.2965 17.0923 35.0618 17.0923 34.8171C17.0923 34.5725 16.9951 34.3378 16.8221 34.1648C16.6491 33.9918 16.4145 33.8946 16.1698 33.8946ZM19.6904 34.4126C19.4798 34.4126 19.2778 34.4963 19.1289 34.6452C18.98 34.7941 18.8964 34.9961 18.8964 35.2067C18.8964 35.4172 18.98 35.6192 19.1289 35.7681C19.2778 35.917 19.4798 36.0007 19.6904 36.0007C19.901 36.0007 20.1029 35.917 20.2518 35.7681C20.4007 35.6192 20.4844 35.4172 20.4844 35.2067C20.4844 34.9961 20.4007 34.7941 20.2518 34.6452C20.1029 34.4963 19.901 34.4126 19.6904 34.4126ZM23.2054 33.8936C22.9608 33.8936 22.7261 33.9908 22.5531 34.1638C22.3801 34.3368 22.2829 34.5715 22.2829 34.8161C22.2829 35.0608 22.3801 35.2955 22.5531 35.4685C22.7261 35.6415 22.9608 35.7387 23.2054 35.7387C23.4501 35.7387 23.6847 35.6415 23.8577 35.4685C24.0308 35.2955 24.1279 35.0608 24.1279 34.8161C24.1279 34.5715 24.0308 34.3368 23.8577 34.1638C23.6847 33.9908 23.4501 33.8936 23.2054 33.8936ZM26.958 32.5886C26.6731 32.5886 26.3998 32.7018 26.1984 32.9032C25.9969 33.1047 25.8837 33.378 25.8837 33.6629C25.8837 33.9478 25.9969 34.221 26.1984 34.4225C26.3998 34.624 26.6731 34.7371 26.958 34.7371C27.2429 34.7371 27.5162 34.624 27.7176 34.4225C27.9191 34.221 28.0323 33.9478 28.0323 33.6629C28.0323 33.378 27.9191 33.1047 27.7176 32.9032C27.5162 32.7018 27.2429 32.5886 26.958 32.5886ZM30.7741 30.1196C30.4232 30.1196 30.0867 30.2589 29.8386 30.5071C29.5904 30.7552 29.451 31.0917 29.451 31.4426C29.451 31.7935 29.5904 32.13 29.8386 32.3781C30.0867 32.6262 30.4232 32.7656 30.7741 32.7656C31.125 32.7656 31.4615 32.6262 31.7096 32.3781C31.9577 32.13 32.0971 31.7935 32.0971 31.4426C32.0971 31.0917 31.9577 30.7552 31.7096 30.5071C31.4615 30.2589 31.125 30.1196 30.7741 30.1196ZM34.1741 26.452C33.7685 26.452 33.3794 26.6131 33.0926 26.9C32.8058 27.1868 32.6446 27.5759 32.6446 27.9815C32.6446 28.3872 32.8058 28.7762 33.0926 29.0631C33.3794 29.3499 33.7685 29.511 34.1741 29.511C34.5798 29.511 34.9688 29.3499 35.2557 29.0631C35.5425 28.7762 35.7037 28.3872 35.7037 27.9815C35.7037 27.5759 35.5425 27.1868 35.2557 26.9C34.9688 26.6131 34.5798 26.452 34.1741 26.452ZM36.4632 21.7689C36.2237 21.7649 35.9858 21.8086 35.7634 21.8975C35.541 21.9864 35.3386 22.1187 35.1678 22.2866C34.9971 22.4545 34.8614 22.6548 34.7689 22.8757C34.6763 23.0966 34.6286 23.3337 34.6286 23.5732C34.6286 23.8127 34.6763 24.0498 34.7689 24.2707C34.8614 24.4916 34.9971 24.6918 35.1678 24.8598C35.3386 25.0277 35.541 25.16 35.7634 25.2488C35.9858 25.3377 36.2237 25.3815 36.4632 25.3775C36.9365 25.3696 37.3878 25.176 37.7197 24.8385C38.0517 24.501 38.2377 24.0466 38.2377 23.5732C38.2377 23.0998 38.0517 22.6454 37.7197 22.3079C37.3878 21.9703 36.9365 21.7768 36.4632 21.7689Z" fill="#958B86"/>
<path d="M60.6949 25.145C60.6949 25.2885 60.6114 25.3935 60.4459 25.3935H57.9034C57.6759 25.3935 57.5914 25.1825 57.4884 24.977L54.4898 19.9289H54.0288C53.4853 19.9289 51.8033 19.8694 51.3237 19.8449V24.977C51.3237 25.205 51.1557 25.3935 50.9272 25.3935H48.8447C48.7347 25.3926 48.6294 25.3483 48.5517 25.2704C48.4741 25.1924 48.4302 25.087 48.4297 24.977V11.3332C48.4297 10.9167 48.6767 10.7707 49.0962 10.7092C50.1792 10.5437 52.5063 10.4407 54.0283 10.4407C57.2333 10.4407 60.1939 11.5862 60.1939 15.1443V15.3333C60.1939 17.5368 59.0919 18.7434 57.3859 19.4064L60.6519 24.977C60.6842 25.0268 60.6993 25.0858 60.6949 25.145ZM57.3219 15.1448C57.3219 13.5833 56.1108 12.9168 54.0288 12.9168C53.5898 12.9168 51.6957 12.9588 51.3237 13.0008V17.5138C51.6542 17.5353 53.6713 17.5773 54.0288 17.5773C56.1708 17.5773 57.3219 17.1643 57.3219 15.3333V15.1443V15.1448ZM129.796 25.145C129.796 25.2885 129.713 25.3935 129.547 25.3935H127.005C126.777 25.3935 126.693 25.1825 126.59 24.977L123.591 19.9289H123.13C122.587 19.9289 120.905 19.8694 120.425 19.8449V24.977C120.425 25.205 120.258 25.3935 120.029 25.3935H117.946C117.836 25.3926 117.731 25.3483 117.653 25.2704C117.575 25.1924 117.531 25.087 117.531 24.977V11.3332C117.531 10.9167 117.778 10.7707 118.197 10.7092C119.281 10.5437 121.608 10.4407 123.13 10.4407C126.335 10.4407 129.295 11.5862 129.295 15.1443V15.3333C129.295 17.5368 128.193 18.7434 126.488 19.4064L129.754 24.977C129.786 25.0268 129.801 25.0858 129.796 25.145ZM126.424 15.1448C126.424 13.5833 125.212 12.9168 123.13 12.9168C122.691 12.9168 120.797 12.9588 120.425 13.0008V17.5138C120.756 17.5353 122.773 17.5773 123.13 17.5773C125.272 17.5773 126.424 17.1643 126.424 15.3333V15.1443V15.1448ZM65.796 18.9464H72.4596C72.5695 18.9461 72.6748 18.9026 72.7528 18.8251C72.8308 18.7477 72.8751 18.6427 72.8761 18.5329V17.0298C72.8751 16.9199 72.8308 16.8148 72.7529 16.7372C72.6749 16.6596 72.5696 16.6158 72.4596 16.6153H65.796V14.7063C65.796 12.9653 65.863 12.9173 67.438 12.9173H72.7081C72.8187 12.9163 72.9244 12.872 73.0025 12.7938C73.0806 12.7156 73.1249 12.6098 73.1256 12.4992V11.1692C73.1256 10.8767 73.0206 10.7712 72.7081 10.7312C72.0421 10.6292 70.6856 10.4412 68.2106 10.4412C64.7545 10.4412 62.9215 10.4172 62.9215 14.7063V21.2934C62.9215 25.583 64.7545 25.559 68.2106 25.559C70.6856 25.559 72.0421 25.373 72.7081 25.2675C73.0206 25.2275 73.1256 25.1235 73.1256 24.83V23.5C73.1247 23.3897 73.0804 23.2843 73.0022 23.2066C72.924 23.1289 72.8184 23.0852 72.7081 23.0849H67.438C65.863 23.0849 65.796 23.0379 65.796 21.2934V18.9469V18.9464ZM106.93 18.9464H113.593C113.703 18.9462 113.808 18.9027 113.886 18.8253C113.964 18.7479 114.009 18.6428 114.01 18.5329V17.0298C114.009 16.9198 113.964 16.8146 113.886 16.737C113.808 16.6594 113.703 16.6157 113.593 16.6153H106.93V14.7063C106.93 12.9653 106.996 12.9173 108.571 12.9173H113.841C113.952 12.9165 114.058 12.8722 114.136 12.794C114.214 12.7157 114.259 12.6099 114.259 12.4992V11.1692C114.259 10.8767 114.154 10.7712 113.842 10.7312C113.175 10.6292 111.819 10.4412 109.344 10.4412C105.888 10.4412 104.055 10.4172 104.055 14.7063V21.2934C104.055 25.583 105.888 25.559 109.344 25.559C111.819 25.559 113.175 25.373 113.842 25.2675C114.154 25.2275 114.259 25.1235 114.259 24.83V23.5C114.258 23.3897 114.214 23.2843 114.136 23.2066C114.058 23.1289 113.952 23.0852 113.842 23.0849H108.571C106.996 23.0849 106.929 23.0379 106.929 21.2934V18.9469L106.93 18.9464ZM88.2629 19.6654V11.0017C88.2629 10.7707 88.0759 10.6062 87.8444 10.6062H85.7839C85.5549 10.6062 85.3689 10.7707 85.3689 11.0012V19.6654C85.3689 22.0399 84.2729 23.1654 82.0238 23.1654C79.7793 23.1654 78.6812 22.0399 78.6812 19.6654V11.0017C78.6812 10.7707 78.4952 10.6062 78.2642 10.6062H76.2072C75.9787 10.6062 75.7892 10.7707 75.7892 11.0012V19.6654C75.7892 24.102 78.6742 25.5585 82.0243 25.5585C85.3769 25.5585 88.2629 24.102 88.2629 19.6654ZM101.725 13.0193H97.5726V24.977C97.5717 25.0877 97.5271 25.1935 97.4485 25.2715C97.37 25.3495 97.2638 25.3934 97.1531 25.3935H95.0945C94.9844 25.393 94.8789 25.3489 94.8011 25.2708C94.7234 25.1928 94.6797 25.0871 94.6795 24.977V13.0198H90.522C90.2945 13.0198 90.105 12.8758 90.105 12.6473V11.0022C90.105 10.7712 90.2945 10.6067 90.522 10.6067H101.724C101.953 10.6067 102.142 10.7717 102.142 11.0022V12.6473C102.142 12.8758 101.953 13.0198 101.725 13.0198V13.0193ZM142.518 21.2094C142.518 19.2124 141.383 18.1794 139.624 17.4693C138.241 16.9133 137.026 16.4408 136.101 16.0768C135.18 15.7118 134.396 15.0803 134.396 14.3948C134.396 13.4598 135.556 12.9173 137.092 12.9173C138.905 12.9173 140.331 13.1703 141.706 13.2958H141.748C141.955 13.2958 142.099 13.1268 142.099 12.9208V11.3797C142.099 11.1732 141.936 11.0267 141.726 10.9862C141.021 10.8167 139.204 10.4392 137.219 10.4392C133.349 10.4392 131.503 12.1042 131.503 14.3953C131.503 15.8508 132.144 17.2858 133.959 18.0349C135.777 18.7849 139.499 19.6489 139.499 21.2099C139.499 22.4169 138.937 23.0804 137.082 23.0804C135.158 23.0804 133.21 22.8079 132.376 22.7034H132.335C132.23 22.704 132.13 22.746 132.056 22.8203C131.982 22.8946 131.94 22.9951 131.94 23.0999V24.6C131.94 24.829 132.128 24.9725 132.335 25.014C133.336 25.244 135.203 25.561 137.04 25.561C141.208 25.561 142.518 23.3109 142.518 21.2094ZM144.038 13.4588C144.038 15.0938 145.244 16.4778 147.084 16.4778C148.924 16.4778 150.144 15.0933 150.144 13.4588C150.144 11.8107 148.924 10.4557 147.084 10.4557C145.244 10.4557 144.038 11.8107 144.038 13.4588ZM144.481 13.4588C144.481 12.0047 145.506 10.8437 147.084 10.8437C148.676 10.8437 149.699 12.0047 149.699 13.4588C149.699 14.9133 148.676 16.0903 147.084 16.0903C145.506 16.0903 144.482 14.9133 144.482 13.4588H144.481ZM148.467 14.8038L147.806 13.6788C148.151 13.5453 148.374 13.3018 148.374 12.8568V12.8193C148.374 12.1002 147.776 11.8692 147.129 11.8692C146.823 11.8692 146.352 11.8902 146.134 11.9242C146.049 11.9357 145.999 11.9652 145.999 12.0492V14.8043C145.999 14.8265 146.008 14.8476 146.024 14.8633C146.04 14.8789 146.061 14.8877 146.084 14.8878H146.504C146.549 14.8878 146.583 14.8498 146.583 14.8043V13.7678C146.68 13.7728 147.02 13.7853 147.129 13.7853H147.222L147.829 14.8043C147.849 14.8453 147.866 14.8878 147.912 14.8878H148.425C148.458 14.8878 148.475 14.8663 148.475 14.8378C148.475 14.8283 148.475 14.8163 148.467 14.8043V14.8038ZM147.794 12.8573C147.794 13.2263 147.562 13.3098 147.129 13.3098C147.059 13.3098 146.651 13.3013 146.583 13.2968V12.3862C146.764 12.3759 146.946 12.3702 147.129 12.3692C147.55 12.3692 147.794 12.5037 147.794 12.8193V12.8573Z" fill="#958B86"/>
</svg>
