<svg width="80" height="80" viewBox="0 0 80 80" fill="none" xmlns="http://www.w3.org/2000/svg">
<g clip-path="url(#clip0_4431_227584)">
<path d="M31.3361 17.8784C28.0574 16.6239 26.2919 13.6882 25.5073 11.9726C25.4654 11.882 25.3945 11.8046 25.3034 11.7501C25.2124 11.6956 25.1053 11.6665 24.9958 11.6665C24.8863 11.6665 24.7793 11.6956 24.6882 11.7501C24.5972 11.8046 24.5263 11.882 24.4844 11.9726C23.6962 13.6882 21.9238 16.6333 18.6696 17.8784C18.5705 17.9168 18.4861 17.9803 18.4268 18.0611C18.3675 18.1419 18.3359 18.2365 18.3359 18.3332C18.3359 18.4299 18.3675 18.5244 18.4268 18.6052C18.4861 18.686 18.5705 18.7495 18.6696 18.7879C21.9448 20.0425 23.7103 22.9813 24.4914 24.6937C24.5333 24.7843 24.6042 24.8618 24.6952 24.9163C24.7863 24.9708 24.8933 24.9998 25.0028 24.9998C25.1123 24.9998 25.2194 24.9708 25.3104 24.9163C25.4015 24.8618 25.4724 24.7843 25.5143 24.6937C26.3059 22.9813 28.0784 20.0394 31.3431 18.7848C31.4409 18.7454 31.5238 18.6813 31.5817 18.6005C31.6396 18.5197 31.67 18.4256 31.6693 18.3296C31.6685 18.2335 31.6366 18.1398 31.5775 18.0597C31.5184 17.9796 31.4345 17.9166 31.3361 17.8784Z" fill="#8D33FF"/>
<path d="M66.4142 51.3254C63.9552 50.3845 62.631 48.1828 62.0426 46.8961C62.0112 46.8281 61.958 46.7701 61.8897 46.7292C61.8214 46.6883 61.7411 46.6665 61.659 46.6665C61.5769 46.6665 61.4966 46.6883 61.4283 46.7292C61.36 46.7701 61.3068 46.8281 61.2754 46.8961C60.6843 48.1828 59.3549 50.3916 56.9143 51.3254C56.84 51.3542 56.7767 51.4019 56.7322 51.4625C56.6878 51.5231 56.6641 51.594 56.6641 51.6665C56.6641 51.739 56.6878 51.8099 56.7322 51.8705C56.7767 51.9311 56.84 51.9788 56.9143 52.0076C59.3707 52.9485 60.6948 55.1526 61.2807 56.4369C61.3121 56.5049 61.3653 56.563 61.4335 56.6038C61.5018 56.6447 61.5821 56.6665 61.6642 56.6665C61.7464 56.6665 61.8267 56.6447 61.8949 56.6038C61.9632 56.563 62.0164 56.5049 62.0478 56.4369C62.6416 55.1526 63.9709 52.9461 66.4195 52.0052C66.4928 51.9757 66.5549 51.9276 66.5984 51.867C66.6418 51.8064 66.6646 51.7358 66.6641 51.6638C66.6635 51.5918 66.6396 51.5215 66.5952 51.4614C66.5509 51.4013 66.488 51.3541 66.4142 51.3254Z" fill="#8D33FF"/>
<path d="M41.5001 11.4394C39.8607 10.8122 38.978 9.34435 38.5857 8.48655C38.5647 8.44125 38.5293 8.40253 38.4837 8.37528C38.4382 8.34804 38.3847 8.3335 38.3299 8.3335C38.2752 8.3335 38.2217 8.34804 38.1762 8.37528C38.1306 8.40253 38.0952 8.44125 38.0742 8.48655C37.6802 9.34435 36.7939 10.8169 35.1668 11.4394C35.1173 11.4586 35.0751 11.4904 35.0454 11.5308C35.0158 11.5712 35 11.6185 35 11.6668C35 11.7152 35.0158 11.7625 35.0454 11.8029C35.0751 11.8433 35.1173 11.875 35.1668 11.8942C36.8044 12.5215 37.6872 13.9909 38.0777 14.8471C38.0987 14.8924 38.1341 14.9311 38.1797 14.9584C38.2252 14.9856 38.2787 15.0002 38.3335 15.0002C38.3882 15.0002 38.4417 14.9856 38.4872 14.9584C38.5328 14.9311 38.5682 14.8924 38.5892 14.8471C38.985 13.9909 39.8712 12.5199 41.5036 11.8927C41.5525 11.8729 41.5939 11.8409 41.6229 11.8005C41.6518 11.7601 41.667 11.713 41.6667 11.665C41.6663 11.617 41.6504 11.5701 41.6208 11.5301C41.5912 11.49 41.5493 11.4586 41.5001 11.4394Z" fill="#8D33FF"/>
<path d="M30.7114 57.2368L46.1328 41.981L49.6305 65.7169C49.7926 66.5759 49.6745 67.4642 49.2937 68.251C48.9129 69.0378 48.2894 69.6816 47.5153 70.0874C46.7411 70.4933 45.8571 70.6399 44.9933 70.5056C44.1296 70.3712 43.3318 69.9631 42.7175 69.3412L30.7114 57.2368Z" fill="#8D33FF"/>
<path d="M24.4171 50.8661L39.8386 35.6103L16.1417 31.8565C15.2846 31.6852 14.3951 31.7937 13.6042 32.1659C12.8133 32.5382 12.1628 33.1546 11.7486 33.9243C11.3343 34.6941 11.1782 35.5765 11.3032 36.4416C11.4283 37.3068 11.8278 38.109 12.443 38.73L24.4171 50.8661Z" fill="#8D33FF"/>
<path d="M64.8156 22.2004C64.8821 21.3386 64.7624 20.4727 64.4648 19.6613C64.1672 18.8499 63.6985 18.1119 63.0907 17.4975C62.4829 16.8831 61.7501 16.4066 60.9419 16.1002C60.1338 15.7939 59.2692 15.6649 58.4068 15.722C52.4823 16.1358 41.3321 20.2148 33.9896 27.4786C21.9093 39.4291 22.9975 49.4368 22.9975 49.4368L30.7125 57.2355C30.7125 57.2355 40.7079 58.4318 52.7882 46.4813C60.1307 39.2175 64.3459 28.1201 64.8156 22.2004Z" fill="#FF8833"/>
<path d="M41.8819 38.4791C44.3613 40.9855 48.403 41.0073 50.9093 38.5279C53.4157 36.0485 53.4375 32.0068 50.9581 29.5005C48.4787 26.9942 44.437 26.9723 41.9307 29.4517C39.4244 31.9311 39.4025 35.9728 41.8819 38.4791Z" fill="#8D33FF"/>
<path d="M20.5844 50.4425L29.3835 59.337C29.6312 59.5758 29.811 59.8761 29.9048 60.2071C29.9986 60.5382 30.0028 60.8882 29.9172 61.2214C29.8315 61.5547 29.6589 61.8592 29.4171 62.104C29.1753 62.3487 28.8729 62.525 28.5407 62.6147L15.8361 66.4287C15.4926 66.5417 15.1244 66.5566 14.7729 66.4718C14.4214 66.3871 14.1004 66.206 13.8461 65.9489C13.5918 65.6919 13.4142 65.369 13.3333 65.0166C13.2523 64.6641 13.2712 64.2961 13.3878 63.9538L17.3161 51.2682C17.4089 50.9393 17.5867 50.6406 17.8317 50.4022C18.0767 50.1638 18.3801 49.9942 18.7115 49.9105C19.0429 49.8268 19.3905 49.8318 19.7193 49.9252C20.0481 50.0186 20.3465 50.1971 20.5844 50.4425Z" fill="#FF8833"/>
</g>
<defs>
<clipPath id="clip0_4431_227584">
<rect width="80" height="80" fill="white"/>
</clipPath>
</defs>
</svg>
