<svg width="81" height="80" viewBox="0 0 81 80" fill="none" xmlns="http://www.w3.org/2000/svg">
<path d="M61.9974 43.3337C61.9974 58.0612 50.0583 70.0003 35.3307 70.0003C20.6031 70.0003 8.66406 58.0612 8.66406 43.3337C8.66406 28.6061 20.6031 16.667 35.3307 16.667C50.0583 16.667 61.9974 28.6061 61.9974 43.3337Z" fill="#FF8833"/>
<path d="M18.6445 45.0315C18.372 45.1777 18.1649 45.2901 17.9579 45.4025C17.62 45.5823 17.3257 45.5036 17.1186 45.1777C16.9116 44.8629 16.977 44.5032 17.3039 44.2672C18.263 43.5477 19.342 43.4241 20.4755 43.5477C20.639 43.5702 20.8133 43.5927 20.9768 43.6377C21.391 43.7276 21.6417 44.0648 21.5763 44.4358C21.5109 44.818 21.173 45.054 20.748 44.9866C20.5736 44.9641 20.3883 44.9191 20.094 44.8629C20.1921 45.5936 20.2248 46.2793 20.3774 46.9425C21.7071 52.9563 25.4345 56.6995 31.0474 58.4193C36.1153 59.9706 40.9217 59.15 45.2703 56.0138C48.5618 53.6307 50.5672 50.3484 51.1884 46.2118C51.2647 45.7285 51.2647 45.2339 51.3083 44.6831C51.014 44.7393 50.7634 44.7955 50.5236 44.8292C50.1748 44.8742 49.8587 44.6381 49.7825 44.2672C49.7171 43.9075 49.837 43.6039 50.1966 43.5253C51.4718 43.2105 52.7142 43.233 53.8586 43.9749C54.3382 44.2784 54.4472 44.6269 54.2183 45.0203C54.0221 45.3688 53.6406 45.4137 53.1829 45.1439C53.063 45.0765 52.9431 45.009 52.8232 44.9528C52.6925 45.8521 52.5944 46.7177 52.42 47.5832C51.6462 51.3826 49.6735 54.4176 46.7417 56.7782C43.156 59.6671 39.0362 60.9597 34.5241 60.6113C28.9221 60.1841 24.3664 57.6999 21.173 52.8326C19.7017 50.5957 18.906 48.089 18.699 45.3912C18.6663 45.2788 18.6554 45.1889 18.6445 45.0315Z" fill="#8D33FF"/>
<path fill-rule="evenodd" clip-rule="evenodd" d="M50.4436 44.1521C50.446 44.1583 50.4483 44.1626 50.4501 44.1655C50.4534 44.1709 50.4557 44.1724 50.4552 44.172C50.4547 44.1716 50.4523 44.1701 50.4481 44.1689C50.4443 44.1679 50.4416 44.168 50.4411 44.168C50.441 44.168 50.441 44.168 50.4411 44.168L50.5263 44.8292L50.4334 44.169C50.5816 44.1482 50.7261 44.1193 50.9046 44.0836C50.9893 44.0666 51.0818 44.0481 51.1859 44.0282L51.2271 44.0204C50.9727 44.0444 50.7117 44.0893 50.4436 44.1521ZM52.0323 44.0191L51.9756 44.7356C51.9635 44.8883 51.9545 45.0525 51.9453 45.2221C51.9257 45.5815 51.9048 45.9651 51.85 46.3133C51.2021 50.6238 49.1015 54.065 45.664 56.5538C41.1495 59.8096 36.1261 60.6702 30.8549 59.0568C25.0252 57.2705 21.1145 53.3479 19.7297 47.0891C19.6193 46.6078 19.5631 46.0844 19.5103 45.5928C19.4864 45.3703 19.4632 45.1543 19.436 44.9516L19.3338 44.1908C19.3084 44.1932 19.283 44.1958 19.2578 44.1987L19.3122 44.9854C19.3221 45.1278 19.3291 45.1615 19.3418 45.205L19.3611 45.2713L19.3664 45.3402C19.5657 47.9364 20.3291 50.3324 21.7327 52.4663C24.8058 57.1503 29.1689 59.5341 34.5775 59.9465C38.9169 60.2817 42.8701 59.0434 46.3261 56.259C49.1458 53.9887 51.0286 51.0867 51.7693 47.4509C51.8922 46.8404 51.9748 46.2383 52.0622 45.6C52.0954 45.3583 52.1292 45.1114 52.1662 44.8569L52.283 44.0537C52.2002 44.0392 52.1166 44.0277 52.0323 44.0191ZM52.6871 44.1515L53.1089 44.3492C53.2514 44.416 53.3895 44.4937 53.5035 44.5579L53.5242 44.5695C53.5577 44.5892 53.5873 44.6046 53.6132 44.6162C53.5869 44.5941 53.5516 44.5678 53.5048 44.5382L53.4986 44.5343C53.236 44.3641 52.9658 44.2381 52.6871 44.1515ZM18.3885 44.4137C18.19 44.4941 17.9983 44.5966 17.8129 44.7241C17.9677 44.6401 18.1325 44.5511 18.3321 44.444L18.3885 44.4137ZM20.0924 44.1834L20.2218 44.2081C20.3556 44.2336 20.4562 44.2543 20.5382 44.2711C20.6638 44.2969 20.7457 44.3137 20.8359 44.3254L20.8552 44.3278C20.8883 44.3331 20.9089 44.3311 20.9186 44.3291C20.9194 44.329 20.9201 44.3288 20.9208 44.3287C20.9209 44.328 20.9211 44.3272 20.9213 44.3264C20.9124 44.3181 20.8886 44.3001 20.8381 44.2891L20.8203 44.2853L20.8027 44.2804C20.6926 44.2502 20.5691 44.2332 20.3968 44.2095C20.2938 44.1984 20.1924 44.1896 20.0924 44.1834ZM54.2211 43.4136C52.8727 42.5408 51.4259 42.5371 50.047 42.8762C49.6946 42.956 49.4032 43.1665 49.2392 43.4875C49.0857 43.7878 49.0796 44.1133 49.1292 44.3864L49.1322 44.4014C49.271 45.0765 49.8753 45.5761 50.5944 45.4925C50.5816 45.7041 50.5654 45.9002 50.5326 46.1079L50.5318 46.1128C49.9369 50.0741 48.0271 53.1965 44.8827 55.4733C40.7001 58.4896 36.1099 59.2708 31.2454 57.7819C25.8501 56.1287 22.3062 52.5657 21.031 46.7985L21.0298 46.793C20.944 46.42 20.9024 46.0628 20.8598 45.664C21.5262 45.6768 22.1159 45.2504 22.2361 44.5482L21.579 44.4357L22.2355 44.5515C22.3725 43.7742 21.8312 43.1495 21.1398 42.9904C20.9463 42.9387 20.7482 42.9117 20.6041 42.8921C20.592 42.8904 20.5803 42.8888 20.569 42.8873L20.5505 42.885C19.3246 42.7513 18.054 42.8753 16.911 43.7305C16.6352 43.9314 16.4281 44.217 16.3597 44.5638C16.2909 44.9124 16.3758 45.2551 16.5614 45.5395C16.7276 45.7994 16.9756 46.0316 17.3195 46.1237C17.5944 46.1973 17.8607 46.1626 18.0961 46.0722C18.3807 48.6347 19.1956 51.0354 20.6187 53.199C23.9322 58.2489 28.6806 60.8339 34.4755 61.2759C39.1602 61.6377 43.4472 60.2907 47.1626 57.2973C50.2063 54.8466 52.2689 51.6788 53.0759 47.7162C53.1949 47.1259 53.2808 46.5271 53.362 45.9371C53.5283 45.98 53.7025 45.9971 53.8802 45.9759C54.2855 45.9277 54.6064 45.6919 54.7996 45.3514C54.9812 45.0373 55.0736 44.6525 54.9387 44.2514C54.8123 43.8754 54.5256 43.6069 54.2211 43.4136Z" fill="#8D33FF"/>
<path d="M31.3255 36.823C31.2919 39.2589 31.1239 41.137 30.3734 42.9127C30.183 43.368 29.9142 43.8006 29.6006 44.1648C29.0181 44.8478 28.2901 44.825 27.6964 44.1534C26.9795 43.3453 26.6435 42.3322 26.4307 41.2964C25.8258 38.4507 25.8146 35.605 26.5987 32.7935C26.7891 32.0878 27.114 31.3821 27.5172 30.7674C28.178 29.743 29.1189 29.7543 29.8358 30.7446C30.5639 31.7577 30.8775 32.9415 31.0567 34.1481C31.2023 35.2066 31.2695 36.288 31.3255 36.823Z" fill="#8D33FF"/>
<path fill-rule="evenodd" clip-rule="evenodd" d="M40.92 37.4055C40.295 37.8981 39.955 38.3975 39.8493 38.712C39.6294 39.3664 38.9207 39.7186 38.2663 39.4988C37.6119 39.2789 37.2596 38.5701 37.4795 37.9157C37.7905 36.9902 38.513 36.1195 39.3724 35.4421C40.2519 34.7488 41.3796 34.1733 42.6377 33.9102C43.9054 33.6452 45.317 33.6963 46.7162 34.2803C48.1167 34.8649 49.4237 35.9494 50.5378 37.6205C50.9207 38.1949 50.7655 38.971 50.1911 39.3539C49.6167 39.7369 48.8406 39.5816 48.4577 39.0072C47.5717 37.6783 46.6287 36.9528 45.7532 36.5874C44.8764 36.2214 43.9859 36.1824 43.1494 36.3573C42.3034 36.5342 41.5248 36.9287 40.92 37.4055Z" fill="#8D33FF"/>
<path d="M60.8596 9.15715C57.7857 7.98101 56.1306 5.22885 55.395 3.62048C55.3557 3.53554 55.2892 3.46294 55.2039 3.41185C55.1185 3.36077 55.0182 3.3335 54.9155 3.3335C54.8129 3.3335 54.7125 3.36077 54.6272 3.41185C54.5418 3.46294 54.4753 3.53554 54.4361 3.62048C53.6972 5.22885 52.0355 7.98983 48.9846 9.15715C48.8917 9.19315 48.8126 9.25269 48.7571 9.32845C48.7015 9.40421 48.6719 9.49287 48.6719 9.5835C48.6719 9.67414 48.7015 9.76279 48.7571 9.83854C48.8126 9.9143 48.8917 9.97384 48.9846 10.0098C52.0552 11.186 53.7103 13.9411 54.4426 15.5465C54.4819 15.6315 54.5484 15.7041 54.6337 15.7551C54.7191 15.8062 54.8194 15.8335 54.9221 15.8335C55.0248 15.8335 55.1251 15.8062 55.2105 15.7551C55.2958 15.7041 55.3623 15.6315 55.4016 15.5465C56.1437 13.9411 57.8054 11.1831 60.8661 10.0069C60.9578 9.96994 61.0355 9.90991 61.0898 9.83414C61.144 9.75838 61.1726 9.67013 61.1719 9.58011C61.1712 9.4901 61.1413 9.40221 61.0858 9.32712C61.0304 9.25203 60.9518 9.19298 60.8596 9.15715Z" fill="#8D33FF"/>
<path d="M70.7055 19.1598C68.5099 18.3197 67.3277 16.3538 66.8022 15.205C66.7742 15.1443 66.7267 15.0925 66.6657 15.056C66.6048 15.0195 66.5331 15 66.4598 15C66.3864 15 66.3147 15.0195 66.2538 15.056C66.1928 15.0925 66.1453 15.1443 66.1173 15.205C65.5895 16.3538 64.4026 18.326 62.2234 19.1598C62.157 19.1855 62.1005 19.228 62.0608 19.2821C62.0212 19.3362 62 19.3996 62 19.4643C62 19.529 62.0212 19.5923 62.0608 19.6465C62.1005 19.7006 62.157 19.7431 62.2234 19.7688C64.4166 20.6089 65.5989 22.5768 66.122 23.7236C66.15 23.7843 66.1975 23.8361 66.2585 23.8726C66.3194 23.9091 66.3911 23.9286 66.4644 23.9286C66.5378 23.9286 66.6095 23.9091 66.6704 23.8726C66.7314 23.8361 66.7789 23.7843 66.8069 23.7236C67.337 22.5768 68.524 20.6068 70.7102 19.7667C70.7756 19.7403 70.8311 19.6974 70.8699 19.6433C70.9087 19.5892 70.9291 19.5262 70.9286 19.4619C70.9281 19.3976 70.9067 19.3348 70.8671 19.2812C70.8275 19.2275 70.7714 19.1853 70.7055 19.1598Z" fill="#8D33FF"/>
</svg>
