<svg width="1416" height="544" viewBox="0 0 1416 544" fill="none" xmlns="http://www.w3.org/2000/svg">
<g clip-path="url(#clip0_5647_236615)">
<path d="M965.585 184.447C980.445 184.447 992.491 172.4 992.491 157.541C992.491 142.681 980.445 130.635 965.585 130.635C950.726 130.635 938.68 142.681 938.68 157.541C938.68 172.4 950.726 184.447 965.585 184.447Z" fill="#FFC2A8"/>
<path d="M879.242 194.639C894.101 194.639 906.148 182.593 906.148 167.734C906.148 152.874 894.101 140.828 879.242 140.828C864.382 140.828 852.336 152.874 852.336 167.734C852.336 182.593 864.382 194.639 879.242 194.639Z" fill="#FFC2A8"/>
<path d="M270.718 275.484H230.641V303.613C230.641 304.78 231.585 305.725 232.752 305.725H268.614C269.781 305.725 270.726 304.78 270.726 303.613V275.484H270.718Z" fill="#AA4429"/>
<path d="M230.641 275.484C239.58 291.41 260.341 290.227 270.718 290.227V275.484H230.641Z" fill="#872D1A"/>
<path d="M384.534 544.059H120.922L170.002 338.236C174.734 313.188 194.502 294.221 218.891 289.918C222.321 289.315 225.83 289.005 229.419 289.005H270.885C274.831 289.005 278.713 289.386 282.468 290.116C306.23 294.745 325.419 313.338 330.222 337.839L384.534 544.059Z" fill="#3D83E9"/>
<path d="M182.901 310.973L94.4585 395.549C88.3929 401.344 91.2828 411.562 99.484 413.325L178.614 439.278" stroke="#78AAF9" stroke-width="64.3073" stroke-miterlimit="10" stroke-linecap="round" stroke-linejoin="round"/>
<path d="M310.726 205.723C313.116 182.374 295.634 161.716 272.213 160.216L246.03 158.532C223.745 157.103 204.341 173.609 202.19 195.839L200.832 209.843C199.895 219.489 207.088 228.008 216.758 228.699L291.021 234.05C300.318 234.717 308.464 227.881 309.408 218.608L310.726 205.723Z" fill="#B97D63"/>
<path d="M302.015 217.267L300.65 238.417C299.165 261.52 281.151 279.621 258.866 281.923C256.293 282.185 253.666 282.241 250.998 282.074C225.235 280.423 205.681 258.193 207.34 232.423L208.698 211.273C208.92 207.843 209.508 204.524 210.421 201.357C216.336 180.675 236.017 166.178 258.358 167.623C280.921 169.076 298.704 186.28 301.666 207.835C302.095 210.9 302.214 214.059 302.015 217.267Z" fill="#AA4429"/>
<path d="M301.708 241.727C310.263 241.727 317.197 234.792 317.197 226.238C317.197 217.683 310.263 210.749 301.708 210.749C293.154 210.749 286.219 217.683 286.219 226.238C286.219 234.792 293.154 241.727 301.708 241.727Z" fill="#AA4429"/>
<path d="M207.825 236.233C216.38 236.233 223.315 229.298 223.315 220.743C223.315 212.189 216.38 205.254 207.825 205.254C199.271 205.254 192.336 212.189 192.336 220.743C192.336 229.298 199.271 236.233 207.825 236.233Z" fill="#AA4429"/>
<path d="M263.381 219.585C263.096 216.814 259.237 216.394 258.356 219.037L251.83 238.607C251.306 240.179 252.37 241.823 254.013 241.997L262.675 242.91C264.31 243.085 265.692 241.704 265.517 240.068L263.381 219.585Z" fill="#71240F"/>
<path d="M278.794 224.468C276.404 224.214 274.253 225.953 273.999 228.342L273.657 231.589C273.403 233.979 275.142 236.131 277.532 236.385C279.921 236.639 282.073 234.9 282.327 232.51L282.668 229.263C282.922 226.866 281.184 224.722 278.794 224.468Z" fill="#111111"/>
<path d="M240.177 220.45C237.787 220.196 235.636 221.935 235.389 224.324L235.048 227.571C234.794 229.961 236.533 232.113 238.922 232.367C241.312 232.621 243.464 230.882 243.718 228.492L244.059 225.245C244.305 222.848 242.574 220.704 240.177 220.45Z" fill="#111111"/>
<path d="M290.377 225.896C289.718 222.745 286.511 216.187 278.992 215.155" stroke="#321201" stroke-width="4.01421" stroke-linecap="round"/>
<path d="M227.047 219.934C228.349 216.989 232.85 211.249 240.424 211.805" stroke="#321201" stroke-width="4.01421" stroke-linecap="round"/>
<path d="M264.657 260.948C259.592 262.314 247.691 262.504 240.625 252.334" stroke="#6D2205" stroke-width="4.01421" stroke-linecap="round"/>
<path d="M223.884 253.517C229.597 253.517 234.229 248.885 234.229 243.172C234.229 237.459 229.597 232.827 223.884 232.827C218.171 232.827 213.539 237.459 213.539 243.172C213.539 248.885 218.171 253.517 223.884 253.517Z" fill="#853823"/>
<path d="M286.688 260.655C292.402 260.655 297.033 256.023 297.033 250.31C297.033 244.597 292.402 239.965 286.688 239.965C280.975 239.965 276.344 244.597 276.344 250.31C276.344 256.023 280.975 260.655 286.688 260.655Z" fill="#853823"/>
<path d="M323.804 457.229L422.154 405.132L319.461 308.56" stroke="#3D83E9" stroke-width="64.3073" stroke-miterlimit="10"/>
<path d="M294.05 338.903L335.556 377.932L388.026 323.747L345.718 283.964C330.546 269.697 306.681 270.427 292.414 285.599C278.14 300.771 278.878 324.636 294.05 338.903Z" fill="#3D83E9"/>
<path d="M301.892 207.906L210.227 201.404C216.173 180.627 235.942 166.067 258.378 167.512C281.044 168.973 298.915 186.256 301.892 207.906Z" fill="#B97D63"/>
<path d="M229.367 204.667L244.333 191.075L241.435 206.477L229.367 204.667Z" fill="#AA4429"/>
<path d="M262.07 206.724L262.761 198.681L269.859 207.565L262.07 206.724Z" fill="#AA4429"/>
<path d="M282.254 207.271L281.508 200.015L290.281 209.002L282.254 207.271Z" fill="#AA4429"/>
<path d="M282.468 290.116V294.665C282.468 300.064 278.053 304.478 272.655 304.478H228.703C223.305 304.478 218.891 300.064 218.891 294.665V289.925C222.32 289.322 225.829 289.012 229.418 289.012H270.884C274.83 289.004 278.704 289.385 282.468 290.116Z" fill="#1A75E1"/>
<path d="M159.957 386.451L207.251 338.871C222.303 324.477 222.835 300.604 208.441 285.552C194.048 270.499 170.175 269.967 155.122 284.361L106.352 330.995L159.957 386.451Z" fill="#3D83E9"/>
<path d="M305.2 446.074H217.456C211.955 446.074 207.453 450.575 207.453 456.077C207.453 461.579 211.955 466.08 217.456 466.08H305.192C310.694 466.08 315.196 461.579 315.196 456.077C315.204 450.575 310.702 446.074 305.2 446.074Z" fill="#AA4429"/>
<path d="M337.879 446.074H176.825C174.459 446.074 172.458 444.327 172.133 441.985L158.287 340.983C157.898 338.141 160.105 335.608 162.979 335.608H351.725C354.591 335.608 356.806 338.141 356.417 340.983L342.571 441.985C342.253 444.327 340.245 446.074 337.879 446.074Z" fill="#20457A"/>
<path d="M268.677 377.526H246.328V399.835H268.677V377.526Z" fill="white"/>
<path d="M240.305 388.681C240.305 395.564 240.305 399.01 241.956 401.487C242.671 402.559 243.592 403.48 244.663 404.194C247.14 405.846 250.578 405.846 257.469 405.846C264.352 405.846 267.798 405.846 270.275 404.194C271.347 403.48 272.268 402.559 272.982 401.487C274.634 399.01 274.634 395.572 274.634 388.681H264.424V397.93C264.424 398.502 264.281 398.827 263.344 398.827H262.987C262.05 398.827 261.907 398.51 261.907 397.93V395.422H252.944V397.93C252.944 398.502 252.801 398.827 251.864 398.827H251.507C250.57 398.827 250.427 398.51 250.427 397.93V388.681H240.305Z" fill="#F5C242"/>
<path d="M261.909 389.681H252.945V394.698L253.842 393.261H261.909V389.681Z" fill="#F5C242"/>
<path d="M241.956 375.875C240.305 378.352 240.305 381.789 240.305 388.681H250.427V379.281C250.427 378.709 250.57 378.383 251.507 378.383H251.864C252.801 378.383 252.944 378.701 252.944 379.281V383.226L253.841 381.789H261.907V379.281C261.907 378.709 262.05 378.383 262.987 378.383H263.344C264.281 378.383 264.424 378.701 264.424 379.281V388.681H274.634C274.634 381.797 274.634 378.352 272.982 375.875C272.268 374.803 271.347 373.882 270.275 373.167C267.798 371.516 264.36 371.516 257.469 371.516C250.586 371.516 247.14 371.516 244.663 373.167C243.592 373.882 242.679 374.803 241.956 375.875Z" fill="#0066FF"/>
<path d="M253.12 388.681L253.842 387.53H261.909V383.941H252.945V388.681V388.967L253.12 388.681Z" fill="#0066FF"/>
<path d="M250.425 388.68H249.734V397.929C249.734 398.231 249.758 398.715 250.123 399.08C250.481 399.438 250.997 399.517 251.497 399.517H251.854C252.354 399.517 252.87 399.438 253.228 399.08C253.593 398.715 253.617 398.231 253.617 397.929V396.103H261.206V397.929C261.206 398.231 261.23 398.715 261.596 399.08C261.953 399.438 262.469 399.517 262.969 399.517H263.326C263.826 399.517 264.342 399.438 264.7 399.08C265.065 398.715 265.089 398.231 265.089 397.929V388.68H264.398V397.929C264.398 398.501 264.255 398.826 263.318 398.826H262.961C262.024 398.826 261.881 398.509 261.881 397.929V395.421H252.918V397.929C252.918 398.501 252.775 398.826 251.838 398.826H251.481C250.544 398.826 250.401 398.509 250.401 397.929L250.425 388.68Z" fill="#0066FF" fill-opacity="0.2"/>
<path d="M239.687 425.893L210.161 450.488C206.843 453.251 206.39 458.221 209.153 461.54L209.455 461.905C212.217 465.223 217.187 465.676 220.506 462.913L250.024 438.318C253.342 435.555 253.795 430.585 251.032 427.266L250.73 426.901C247.976 423.582 242.998 423.13 239.687 425.893Z" fill="#AA4429"/>
<path d="M499.629 284.948H460.719V312.259C460.719 313.386 461.632 314.307 462.767 314.307H497.588C498.716 314.307 499.637 313.394 499.637 312.259V284.948H499.629Z" fill="#FFB48F"/>
<path d="M460.719 284.948C469.396 300.414 489.554 299.263 499.629 299.263V284.948H460.719Z" fill="#E38A65"/>
<path d="M401.827 344.286C407.067 316.563 431.297 296.484 459.513 296.484H499.772C527.837 296.484 551.98 316.348 557.387 343.897L586.317 544.123H374L401.827 344.286Z" fill="#F7527E"/>
<path d="M414.358 317.824L322.914 426.154L424.162 465.945" stroke="#F7527E" stroke-width="69.0708" stroke-miterlimit="10" stroke-linecap="round" stroke-linejoin="round"/>
<path d="M541.348 223.634C545.985 201.324 531.17 179.627 508.702 175.84L483.583 171.6C462.203 167.988 441.815 182.001 437.52 203.254L434.813 216.647C432.947 225.864 439.044 234.812 448.309 236.447L519.492 249.031C528.4 250.603 536.95 244.815 538.792 235.955L541.348 223.634Z" fill="#5B1E00"/>
<path d="M494.567 181.596C469.845 177.428 446.424 194.084 442.256 218.799L438.834 239.099C434.666 263.822 451.323 287.242 476.037 291.41C500.76 295.578 524.181 278.922 528.349 254.207L531.77 233.907C535.946 209.192 519.29 185.772 494.567 181.596Z" fill="#FFB48F"/>
<path d="M530.584 257.582C538.893 257.582 545.629 250.846 545.629 242.537C545.629 234.228 538.893 227.492 530.584 227.492C522.275 227.492 515.539 234.228 515.539 242.537C515.539 250.846 522.275 257.582 530.584 257.582Z" fill="#FFB48F"/>
<path d="M440.467 242.909C448.776 242.909 455.511 236.174 455.511 227.865C455.511 219.556 448.776 212.82 440.467 212.82C432.158 212.82 425.422 219.556 425.422 227.865C425.422 236.174 432.158 242.909 440.467 242.909Z" fill="#FFB48F"/>
<path fill-rule="evenodd" clip-rule="evenodd" d="M443.227 212.9C459.669 215.187 494.704 214.647 509.431 194.759C513.195 204.675 521.689 225.77 532.804 227.588C533.312 205.199 517.331 185.24 494.601 181.405C471.72 177.547 449.951 191.353 443.227 212.9Z" fill="#5B1E00"/>
<path d="M494.237 230.581C494.237 227.882 490.553 227.088 489.434 229.549L481.177 247.793C480.518 249.254 481.375 250.953 482.947 251.287L491.22 253.033C492.784 253.367 494.253 252.168 494.253 250.572L494.237 230.581Z" fill="#DF522C"/>
<path d="M508.629 238.552C506.342 238.067 504.095 239.528 503.611 241.815L502.952 244.919C502.468 247.205 503.929 249.452 506.215 249.937C508.502 250.421 510.748 248.96 511.233 246.674L511.892 243.569C512.384 241.275 510.915 239.036 508.629 238.552Z" fill="#111111"/>
<path d="M471.738 230.81C469.451 230.326 467.205 231.787 466.72 234.074L466.061 237.178C465.577 239.464 467.038 241.711 469.324 242.195C471.611 242.68 473.858 241.219 474.342 238.932L475.001 235.828C475.485 233.542 474.024 231.295 471.738 230.81Z" fill="#111111"/>
<path d="M519.674 241.084C519.348 237.98 516.911 231.319 509.75 229.572" stroke="#DF522C" stroke-width="4.0046" stroke-linecap="round"/>
<path d="M459.102 229.009C460.658 226.301 465.58 221.196 472.836 222.498" stroke="#DF522C" stroke-width="4.0046" stroke-linecap="round"/>
<path d="M453.731 261.178C459.277 261.178 463.774 256.682 463.774 251.135C463.774 245.589 459.277 241.092 453.731 241.092C448.184 241.092 443.688 245.589 443.688 251.135C443.688 256.682 448.184 261.178 453.731 261.178Z" fill="#FF977E"/>
<path d="M511.988 274.778C517.535 274.778 522.031 270.281 522.031 264.734C522.031 259.188 517.535 254.691 511.988 254.691C506.442 254.691 501.945 259.188 501.945 264.734C501.945 270.281 506.442 274.778 511.988 274.778Z" fill="#FF977E"/>
<path d="M495.293 267.815L494.737 270.459C494.333 272.396 493.372 274.079 492.062 275.373C489.807 277.612 486.505 278.708 483.162 278.001L477.621 276.834C474.278 276.127 471.698 273.793 470.531 270.832C469.856 269.117 469.666 267.196 470.07 265.259L470.626 262.615C470.991 260.884 472.69 259.773 474.429 260.138L492.824 264.02C494.555 264.385 495.658 266.084 495.293 267.815Z" fill="#111111"/>
<path d="M492.062 275.373C489.808 277.612 486.505 278.707 483.162 278.001L477.621 276.834C474.279 276.127 471.698 273.793 470.531 270.832C473.715 269.204 477.819 268.632 482.051 269.53C486.283 270.419 489.816 272.594 492.062 275.373Z" fill="#FF608B"/>
<path d="M613.298 439.032L545.633 313.037" stroke="#F7527E" stroke-width="64.3073" stroke-miterlimit="10" stroke-linecap="round" stroke-linejoin="round"/>
<path d="M615.806 449.106L548.625 367.563" stroke="#F7527E" stroke-width="64.3073" stroke-miterlimit="10" stroke-linecap="round" stroke-linejoin="round"/>
<path d="M514.797 292.704C511.947 289.695 506.969 289.64 503.96 292.498C500.951 295.348 500.816 300.096 503.666 303.105L535.304 335.743L519.457 319.007C516.607 315.998 511.859 315.879 508.85 318.729C505.841 321.579 505.706 326.327 508.557 329.336L524.411 346.071L508.557 329.336C505.706 326.327 500.959 326.208 497.95 329.058C494.941 331.908 494.806 336.656 497.656 339.665L513.495 356.4L499.665 341.8C496.815 338.791 492.067 338.672 489.058 341.522C486.049 344.373 485.914 349.12 488.764 352.129L513.9 378.662C513.963 378.733 514.035 378.797 514.098 378.868L530.643 396.723L574.468 357.591L514.797 292.704Z" fill="#FFB48F"/>
<path d="M480.168 296.484L479.422 544.123" stroke="#FF71A3" stroke-width="3.17567" stroke-miterlimit="10"/>
<path d="M1139.07 294.182C1139.07 295.404 1140.05 296.389 1141.28 296.389H1178.81C1180.03 296.389 1181.01 295.404 1181.01 294.182V264.743H1139.06V294.182H1139.07Z" fill="#FFB48F"/>
<path d="M465.774 441.477C464.845 444.169 466.266 447.098 468.957 448.027L496.856 457.681C500.817 459.055 502.945 463.62 501.571 467.581C500.198 471.551 495.879 473.655 491.917 472.281L473.387 465.866L495.427 473.496C499.388 474.869 501.484 479.188 500.111 483.158C498.737 487.127 494.418 489.231 490.457 487.858L468.417 480.228L490.457 487.858C494.418 489.231 496.514 493.55 495.141 497.52C493.767 501.481 489.448 503.585 485.487 502.22L463.448 494.59L482.676 501.243C486.638 502.609 488.734 506.936 487.36 510.905C485.987 514.875 481.668 516.979 477.706 515.605L442.766 503.514C442.679 503.482 442.583 503.45 442.496 503.419L440.392 502.688L405.039 488.612L426.872 436.571L434.803 439.318L434.819 439.357C439.717 437.952 445.211 436.221 447.649 431.744L454.524 419.105C456.636 415.214 461.248 413.428 465.416 414.873C470.132 416.508 472.625 421.653 470.99 426.377L465.774 441.477Z" fill="#FFB48F"/>
<path d="M1139.06 264.743V280.177C1149.93 280.177 1171.66 281.415 1181.01 264.743H1139.06Z" fill="#E38A65"/>
<path d="M1278.62 544.131H1041.45L1073.77 328.297C1079.1 302.034 1100.83 282.257 1127.47 278.041C1127.49 278.041 1127.51 278.034 1127.52 278.034C1128.51 277.875 1129.51 277.748 1130.51 277.629C1130.72 277.605 1130.93 277.581 1131.14 277.557C1131.55 277.518 1131.96 277.478 1132.37 277.438C1133.1 277.375 1133.83 277.319 1134.56 277.279C1135.03 277.256 1135.51 277.24 1135.98 277.224C1136.31 277.208 1136.63 277.2 1136.95 277.2C1137.38 277.192 1137.82 277.184 1138.26 277.184H1183.1C1188.47 277.184 1193.71 277.811 1198.74 279.002C1223.23 284.798 1242.68 303.915 1247.54 328.709L1278.62 544.131Z" fill="#FF811A"/>
<path d="M1230.99 300.184L1329.56 416.961L1220.42 459.849" stroke="#FF811A" stroke-width="64.3073" stroke-miterlimit="10" stroke-linecap="round" stroke-linejoin="round"/>
<path d="M1100.25 218.188C1102.82 227.707 1111.81 233.59 1120.55 231.478L1190.38 214.584C1199.47 212.385 1204.79 202.413 1202.17 192.505L1198.37 178.119C1192.34 155.286 1170.89 141.035 1149.9 145.926L1125.24 151.674C1103.18 156.81 1090.22 181.001 1096.68 204.961L1100.25 218.188Z" fill="#DB7157"/>
<path d="M1203.88 220.696C1205.17 244.117 1189.43 265.727 1165.79 271.054C1139.43 277.017 1113.24 260.472 1107.28 234.113L1102.38 212.471C1101.77 209.748 1101.39 207.025 1101.24 204.326C1101.18 203.103 1101.15 201.888 1101.19 200.69C1101.61 178.706 1116.94 159.025 1139.33 153.96C1160.81 149.109 1182.16 159.192 1192.57 177.333C1194.94 181.461 1196.74 186.018 1197.85 190.909L1202.74 212.543C1203.36 215.266 1203.73 217.989 1203.88 220.696Z" fill="#FFC2A8"/>
<path d="M1104.19 237.901C1113.14 237.901 1120.4 230.643 1120.4 221.689C1120.4 212.736 1113.14 205.478 1104.19 205.478C1095.23 205.478 1087.98 212.736 1087.98 221.689C1087.98 230.643 1095.23 237.901 1104.19 237.901Z" fill="#FFC2A8"/>
<path d="M1200.32 216.767C1209.27 216.767 1216.53 209.509 1216.53 200.556C1216.53 191.602 1209.27 184.344 1200.32 184.344C1191.37 184.344 1184.11 191.602 1184.11 200.556C1184.11 209.509 1191.37 216.767 1200.32 216.767Z" fill="#FFC2A8"/>
<path d="M1143.77 228.183C1143.86 229.906 1145.51 231.097 1147.17 230.653L1155.97 228.279C1157.64 227.826 1158.46 225.953 1157.67 224.412L1147.7 205.263C1146.35 202.675 1142.43 203.755 1142.59 206.66L1143.77 228.183Z" fill="#DF522C"/>
<path d="M1124.34 221.681L1125.23 224.984C1125.88 227.413 1128.39 228.858 1130.81 228.199C1133.24 227.54 1134.69 225.039 1134.03 222.61L1133.14 219.307C1132.48 216.878 1129.98 215.433 1127.55 216.092C1125.12 216.743 1123.69 219.252 1124.34 221.681Z" fill="#111111"/>
<path d="M1163.6 211.17L1164.49 214.473C1165.15 216.902 1167.65 218.347 1170.08 217.688C1172.51 217.029 1173.95 214.528 1173.3 212.099L1172.41 208.796C1171.75 206.367 1169.25 204.922 1166.82 205.581C1164.39 206.232 1162.95 208.741 1163.6 211.17Z" fill="#111111"/>
<path d="M1125.83 206.501C1118.23 208.804 1115.99 216.116 1115.83 219.482" stroke="#DF522C" stroke-width="4.0046" stroke-linecap="round"/>
<path d="M1165.13 196.689C1172.87 194.863 1178.46 200.063 1180.3 202.889" stroke="#DF522C" stroke-width="4.0046" stroke-linecap="round"/>
<path d="M1187.39 237.21C1193.37 237.21 1198.22 232.362 1198.22 226.381C1198.22 220.401 1193.37 215.552 1187.39 215.552C1181.41 215.552 1176.56 220.401 1176.56 226.381C1176.56 232.362 1181.41 237.21 1187.39 237.21Z" fill="#FF977E"/>
<path d="M1125.5 255.304C1131.48 255.304 1136.33 250.456 1136.33 244.475C1136.33 238.494 1131.48 233.646 1125.5 233.646C1119.52 233.646 1114.67 238.494 1114.67 244.475C1114.67 250.456 1119.52 255.304 1125.5 255.304Z" fill="#FF977E"/>
<path d="M1143.66 246.801L1144.41 249.611C1144.97 251.676 1146.1 253.422 1147.58 254.74C1150.14 257.019 1153.77 258.003 1157.32 257.043L1163.22 255.455C1166.78 254.494 1169.42 251.827 1170.5 248.571C1171.11 246.69 1171.22 244.602 1170.66 242.546L1169.91 239.735C1169.42 237.893 1167.52 236.798 1165.67 237.298L1146.1 242.562C1144.25 243.062 1143.16 244.959 1143.66 246.801Z" fill="#111111"/>
<path d="M1147.59 254.748C1150.14 257.027 1153.77 258.011 1157.33 257.051L1163.23 255.463C1166.78 254.502 1169.42 251.835 1170.5 248.58C1166.98 247.016 1162.52 246.65 1158.02 247.857C1153.52 249.072 1149.84 251.62 1147.59 254.748Z" fill="#FF608B"/>
<path d="M964.375 428.972L1089.47 295.022" stroke="#FF811A" stroke-width="60.3378" stroke-miterlimit="10" stroke-linecap="round" stroke-linejoin="round"/>
<path d="M977.383 405.21L1134.65 499.337" stroke="#FF811A" stroke-width="60.3378" stroke-miterlimit="10" stroke-linecap="round" stroke-linejoin="round"/>
<path d="M917.312 303.343C917.312 304.47 918.225 305.391 919.361 305.391H954.182C955.309 305.391 956.23 304.478 956.23 303.343V276.032H917.32V303.343H917.312Z" fill="#DB7157"/>
<path d="M917.312 276.032C925.99 291.498 946.148 290.347 956.222 290.347V276.032H917.312Z" fill="#B8503C"/>
<path d="M1044.99 544.115L1016.23 337.561C1011.77 313.974 994.025 295.746 971.62 290.03C966.801 288.799 961.768 288.148 956.599 288.148H914.982C911.751 288.148 908.567 288.402 905.455 288.902C880.645 292.824 860.392 311.862 855.422 337.156L825.523 544.115H1044.99Z" fill="#FFC34A"/>
<path d="M1117.4 412.46L1029.18 291.268C1018.72 276.914 998.61 273.746 984.256 284.194C969.902 294.65 966.734 314.76 977.182 329.114L1050.17 429.362L960.248 530.436C956.643 534.485 954.261 539.193 953.055 544.115H1034.16L1115.43 452.759C1125.49 441.461 1126.3 424.686 1117.4 412.46Z" fill="#FFC24A"/>
<path d="M882.733 229.056C884.265 237.448 892.189 243.109 900.628 241.831L968.032 231.621C976.804 230.295 982.759 221.999 981.211 213.265L978.964 200.579C975.407 180.445 956.504 166.758 936.267 169.671L912.489 173.085C891.22 176.142 876.747 196.252 880.598 217.394L882.733 229.056Z" fill="#FFC2A8"/>
<path d="M977.32 241.529C976.82 262.036 961.592 279.78 940.601 282.797C923.127 285.313 906.598 276.882 897.944 262.703C896.134 259.733 894.665 256.494 893.609 253.064C892.958 250.961 892.466 248.769 892.141 246.515L889.386 227.302C889.044 224.88 888.901 222.475 888.957 220.109C889.457 199.602 904.684 181.858 925.676 178.841C949.08 175.475 970.778 191.718 974.136 215.123L976.891 234.336C977.241 236.757 977.383 239.163 977.32 241.529Z" fill="#DB7157"/>
<path d="M890.312 249.65C898.148 249.65 904.5 243.298 904.5 235.462C904.5 227.627 898.148 221.275 890.312 221.275C882.477 221.275 876.125 227.627 876.125 235.462C876.125 243.298 882.477 249.65 890.312 249.65Z" fill="#DB7157"/>
<path d="M975.625 237.901C983.46 237.901 989.812 231.549 989.812 223.714C989.812 215.878 983.46 209.526 975.625 209.526C967.789 209.526 961.438 215.878 961.438 223.714C961.438 231.549 967.789 237.901 975.625 237.901Z" fill="#DB7157"/>
<path fill-rule="evenodd" clip-rule="evenodd" d="M925.68 178.841C904.371 181.906 888.993 200.166 888.953 221.078C899.377 219.633 907.793 200.134 911.524 190.964C924.814 209.868 957.508 211.178 972.918 209.415C967.138 189.146 947.123 175.761 925.68 178.841Z" fill="#FFC2A8"/>
<path d="M926.134 252.135C926.094 253.644 927.452 254.803 928.936 254.525L936.772 253.072C938.257 252.794 939.114 251.214 938.519 249.817L931.151 232.422C930.159 230.072 926.666 230.739 926.602 233.288L926.134 252.135Z" fill="#AD523F"/>
<path d="M909.178 241.648L909.726 244.593C910.131 246.761 912.211 248.19 914.378 247.785C916.545 247.38 917.975 245.3 917.57 243.132L917.022 240.187C916.617 238.02 914.537 236.59 912.37 236.995C910.202 237.4 908.773 239.48 909.178 241.648Z" fill="#111111"/>
<path d="M943.365 235.177L943.913 238.122C944.318 240.29 946.398 241.719 948.566 241.314C950.733 240.909 952.162 238.829 951.757 236.662L951.209 233.716C950.804 231.549 948.724 230.12 946.557 230.525C944.39 230.93 942.961 233.01 943.365 235.177Z" fill="#111111"/>
<path d="M910.771 227.159C903.975 228.643 901.522 234.86 901.148 237.781" stroke="#FFB691" stroke-width="4.0046" stroke-linecap="round"/>
<path d="M945.125 221.061C952 220.005 956.518 224.928 957.923 227.516" stroke="#FFB691" stroke-width="4.0046" stroke-linecap="round"/>
<path d="M950.741 255.827C943.429 267.466 928.805 267.101 922.414 265.465" stroke="#803817" stroke-width="4.0046" stroke-linecap="round"/>
<path d="M961.667 256.089C966.898 256.089 971.138 251.848 971.138 246.617C971.138 241.387 966.898 237.146 961.667 237.146C956.436 237.146 952.195 241.387 952.195 246.617C952.195 251.848 956.436 256.089 961.667 256.089Z" fill="#BF4D36"/>
<path d="M904.661 263.972C902.247 264.425 899.866 263.909 897.936 262.71C896.126 259.741 894.657 256.502 893.602 253.072C894.253 249.269 897.198 246.101 901.207 245.347C906.344 244.394 911.29 247.792 912.251 252.937C913.203 258.066 909.813 263.012 904.661 263.972Z" fill="#BF4D36"/>
<path d="M748.469 411.681L871.534 306.344" stroke="#FFC34A" stroke-width="60.3378" stroke-miterlimit="10" stroke-linecap="round" stroke-linejoin="round"/>
<path fill-rule="evenodd" clip-rule="evenodd" d="M538.969 418.12L594.122 370.445L577.997 353.423L524.297 401.725L538.969 418.12Z" fill="#FF71A3"/>
<path d="M731.808 304.756H686.555V338.895H731.808V304.756Z" fill="#F2B594"/>
<path d="M685.773 306.344C696.039 324.326 719.896 322.993 731.821 322.993V306.344H685.773Z" fill="#FF977E"/>
<path d="M620.469 373.051C626.567 340.81 654.743 317.46 687.556 317.46H734.373C767.011 317.46 795.092 340.563 801.372 372.598L835.018 544.124H588.109L620.469 373.051Z" fill="#AAA63E"/>
<path d="M699.26 204.723H721.49C744.291 204.723 762.774 223.206 762.774 246.007V267.443C762.774 290.244 744.291 308.726 721.49 308.726H699.26C676.459 308.726 657.977 290.244 657.977 267.443V246.007C657.977 223.206 676.459 204.723 699.26 204.723Z" fill="#EB672D"/>
<path d="M710.07 208.383C686.292 208.383 667.023 227.659 667.023 251.429V270.951C667.023 294.729 686.3 313.998 710.07 313.998C733.848 313.998 753.116 294.721 753.116 270.951V251.429C753.116 227.659 733.848 208.383 710.07 208.383Z" fill="#FFAF99"/>
<path d="M753.368 282.694C761.248 282.694 767.635 276.306 767.635 268.427C767.635 260.548 761.248 254.16 753.368 254.16C745.489 254.16 739.102 260.548 739.102 268.427C739.102 276.306 745.489 282.694 753.368 282.694Z" fill="#FFAF99"/>
<path d="M666.759 283.194C674.638 283.194 681.026 276.807 681.026 268.927C681.026 261.048 674.638 254.661 666.759 254.661C658.88 254.661 652.492 261.048 652.492 268.927C652.492 276.807 658.88 283.194 666.759 283.194Z" fill="#FFAF99"/>
<path d="M712.665 265.307C712.18 263.005 708.901 262.997 708.393 265.291L704.646 282.297C704.344 283.662 705.384 284.948 706.782 284.948H714.133C715.523 284.948 716.555 283.67 716.269 282.313L712.665 265.307Z" fill="#DF522C"/>
<path d="M728.226 265.632C725.812 265.632 723.859 267.585 723.859 269.999V273.278C723.859 275.691 725.812 277.644 728.226 277.644C730.639 277.644 732.592 275.691 732.592 273.278V269.999C732.592 267.593 730.639 265.632 728.226 265.632Z" fill="#111111"/>
<path d="M692.195 265.632C689.781 265.632 687.828 267.585 687.828 269.998V273.277C687.828 275.691 689.781 277.644 692.195 277.644C694.608 277.644 696.561 275.691 696.561 273.277V269.998C696.561 267.593 694.6 265.632 692.195 265.632Z" fill="#111111"/>
<path d="M738.894 266.053C738.061 263.464 734.79 258.24 728.383 258.042" stroke="#DF522C" stroke-width="4.0046" stroke-linecap="round"/>
<path d="M683.039 266.053C683.873 263.464 687.144 258.24 693.551 258.042" stroke="#DF522C" stroke-width="4.0046" stroke-linecap="round"/>
<path d="M680.217 291.26C685.041 291.26 688.951 287.35 688.951 282.527C688.951 277.704 685.041 273.794 680.217 273.794C675.394 273.794 671.484 277.704 671.484 282.527C671.484 287.35 675.394 291.26 680.217 291.26Z" fill="#FF977E"/>
<path d="M739.741 291.26C744.564 291.26 748.474 287.35 748.474 282.527C748.474 277.704 744.564 273.794 739.741 273.794C734.918 273.794 731.008 277.704 731.008 282.527C731.008 287.35 734.918 291.26 739.741 291.26Z" fill="#FF977E"/>
<path fill-rule="evenodd" clip-rule="evenodd" d="M751.397 238.671H668.75C674.244 221.077 690.67 208.303 710.073 208.303C729.477 208.303 745.903 221.069 751.397 238.671Z" fill="#EB672D"/>
<path d="M690.663 226.278L683.875 241.561H693.847L690.663 226.278Z" fill="#F2B594"/>
<path d="M726.738 226.278L733.526 241.561H723.555L726.738 226.278Z" fill="#F2B594"/>
<path d="M718.881 231.16L721.43 241.56H715.062L718.881 231.16Z" fill="#F2B594"/>
<path d="M718.848 264.592C717.744 262.997 715.204 260.647 710.512 260.599C705.82 260.551 703.652 262.703 702.43 264.275" stroke="#7B5AFF" stroke-width="2.58547" stroke-linecap="round"/>
<path d="M735.011 283.925C744.052 283.925 751.382 276.595 751.382 267.554C751.382 258.513 744.052 251.184 735.011 251.184C725.97 251.184 718.641 258.513 718.641 267.554C718.641 276.595 725.97 283.925 735.011 283.925Z" stroke="#7B5AFF" stroke-width="2.58547"/>
<path d="M685.98 282.916C695.021 282.916 702.351 275.587 702.351 266.545C702.351 257.504 695.021 250.175 685.98 250.175C676.939 250.175 669.609 257.504 669.609 266.545C669.609 275.587 676.939 282.916 685.98 282.916Z" stroke="#7B5AFF" stroke-width="2.58547"/>
<path fill-rule="evenodd" clip-rule="evenodd" d="M681.585 252.112L675.25 277.144C677.044 278.962 679.299 280.328 681.832 281.042L688.747 251.715C687.897 251.556 687.024 251.469 686.135 251.461C684.547 251.453 683.022 251.675 681.585 252.112Z" fill="white" fill-opacity="0.19"/>
<path fill-rule="evenodd" clip-rule="evenodd" d="M691.929 252.683L684.617 281.566C685.014 281.598 685.419 281.621 685.832 281.629C686.578 281.637 687.309 281.59 688.031 281.494L694.493 254.088C693.684 253.541 692.826 253.064 691.929 252.683Z" fill="white" fill-opacity="0.19"/>
<path fill-rule="evenodd" clip-rule="evenodd" d="M737.57 252.684C736.792 252.549 735.998 252.477 735.188 252.469C733.394 252.453 731.679 252.747 730.075 253.303L723.891 277.724C725.701 279.701 728.027 281.193 730.663 281.995L737.57 252.684Z" fill="white" fill-opacity="0.19"/>
<path fill-rule="evenodd" clip-rule="evenodd" d="M740.851 253.644L733.531 282.559C733.968 282.598 734.412 282.622 734.857 282.63C735.603 282.638 736.334 282.59 737.056 282.495L743.519 255.097C742.685 254.525 741.796 254.041 740.851 253.644Z" fill="white" fill-opacity="0.19"/>
<path d="M711.964 210.28C723.145 210.28 732.209 201.216 732.209 190.035C732.209 178.854 723.145 169.791 711.964 169.791C700.783 169.791 691.719 178.854 691.719 190.035C691.719 201.216 700.783 210.28 711.964 210.28Z" fill="#EB672D"/>
<path fill-rule="evenodd" clip-rule="evenodd" d="M589.742 536.048L599.738 483.181L707.29 520.702C703.455 524.028 698.549 525.862 693.475 525.862H669.237C664.283 525.862 659.44 527.291 655.28 529.975C651.398 532.483 646.912 533.897 642.292 534.071L589.742 536.048Z" fill="#9E9A30"/>
<path fill-rule="evenodd" clip-rule="evenodd" d="M817.71 455.839L830.722 522.155L732.745 469.113C730.363 467.827 728.569 465.683 727.712 463.119C726.791 460.348 724.766 458.078 722.114 456.839L691.779 442.684C687.388 440.635 684.586 436.229 684.586 431.386L817.71 455.839Z" fill="#9E9A30"/>
<path fill-rule="evenodd" clip-rule="evenodd" d="M669.945 319.763C670.549 327.988 674.598 340.087 687.737 340.087C702.17 340.087 707.871 325.479 709.07 317.46H687.546C681.489 317.46 675.582 318.262 669.945 319.763Z" fill="#C7C251"/>
<path fill-rule="evenodd" clip-rule="evenodd" d="M748.07 318.842C747.713 327.051 743.863 340.087 730.223 340.087C715.79 340.087 710.089 325.479 708.891 317.46H734.367C739.052 317.46 743.632 317.937 748.07 318.842Z" fill="#C7C251"/>
<path d="M721.187 519.83C731.978 519.83 740.725 511.082 740.725 500.291C740.725 489.501 731.978 480.753 721.187 480.753C710.396 480.753 701.648 489.501 701.648 500.291C701.648 511.082 710.396 519.83 721.187 519.83Z" stroke="#2300AE" stroke-width="8.44149"/>
<path d="M718.821 472.79C718.821 471.504 718.821 470.861 719.13 470.401C719.257 470.21 719.424 470.051 719.607 469.924C720.067 469.615 720.71 469.615 721.996 469.615H765.487C766.773 469.615 767.416 469.615 767.877 469.924C768.067 470.051 768.226 470.218 768.353 470.401C768.663 470.861 768.663 471.504 768.663 472.79V513.51C768.663 519.949 768.663 523.172 767.099 525.475C766.456 526.42 765.646 527.229 764.701 527.872C762.399 529.436 759.183 529.436 752.737 529.436H734.731C728.292 529.436 725.069 529.436 722.766 527.872C721.822 527.229 721.012 526.42 720.369 525.475C718.805 523.172 718.805 519.949 718.805 513.51V472.79H718.821Z" fill="#7B5AFF"/>
<path d="M681.945 467.018C681.635 469.312 683.239 471.424 685.533 471.734L709.343 474.957C712.725 475.417 715.154 478.72 714.694 482.102C714.233 485.484 711.129 487.858 707.747 487.397L691.932 485.254L710.74 487.802C714.122 488.263 716.488 491.375 716.028 494.757C715.567 498.139 712.455 500.513 709.081 500.053L690.273 497.504L709.081 500.053C712.463 500.513 714.829 503.625 714.368 507.007C713.908 510.389 710.796 512.763 707.422 512.303L688.614 509.754L705.024 511.977C708.406 512.438 710.772 515.55 710.312 518.932C709.851 522.314 706.747 524.688 703.365 524.227L673.545 520.186C673.466 520.178 673.386 520.162 673.315 520.155L671.521 519.908L628.125 511.993L599.227 462.437L656.889 470.249L656.913 470.281C660.596 468.375 664.701 466.113 665.924 462.151L669.377 450.965C670.441 447.527 673.831 445.36 677.388 445.836C681.413 446.384 684.231 450.091 683.684 454.124L681.945 467.018Z" fill="#F2B594"/>
<path d="M658.368 314.523C644.466 303.122 623.959 305.154 612.559 319.056L662.901 360.332C674.302 346.43 672.269 325.923 658.368 314.523ZM632.883 451.219L618.759 514.772L650.54 521.83L664.655 458.285L632.883 451.219ZM612.559 319.056L535.295 413.294L531.317 418.82L570.886 451.267L581.326 459.825L595.243 442.859L662.901 360.332L612.559 319.056ZM595.243 442.859L573.815 438.096L570.886 451.267L559.692 501.649L618.759 514.772L632.883 451.219L595.243 442.859ZM531.317 418.82L524.966 427.656L524.942 427.688C509.857 456.761 525.831 494.123 559.692 501.649L570.886 451.267L531.317 418.82ZM573.815 438.096L570.886 451.267L581.326 459.825C587.701 452.045 583.636 440.279 573.815 438.096Z" fill="#AAA63E"/>
<path d="M694.504 199.959H729.436C731.191 199.959 732.612 201.38 732.612 203.135C732.612 204.889 731.191 206.31 729.436 206.31H694.504C692.749 206.31 691.328 204.889 691.328 203.135C691.328 201.38 692.749 199.959 694.504 199.959Z" fill="#AAA63E"/>
<path d="M697.672 291.888C699.998 293.293 711.565 299.438 722.68 291.896" stroke="#111111" stroke-width="4.0046" stroke-linecap="round"/>
<path d="M742.718 368.635L729.039 361.918L732.612 403.202L787.789 423.447L810.416 412.332L755.238 389.309L753.174 381.425C751.713 375.844 747.895 371.176 742.718 368.635Z" fill="#A39F36"/>
<path d="M688.985 346.588L721.797 343.595C726.203 343.19 730.102 346.437 730.506 350.852L736.008 411.158C736.413 415.564 733.166 419.462 728.752 419.867L695.939 422.86C691.533 423.265 687.635 420.018 687.23 415.603L681.728 355.297C681.331 350.883 684.578 346.985 688.985 346.588Z" fill="#2300AE"/>
<path d="M720.997 349.034L710.715 349.971C708.286 350.193 706.492 352.344 706.714 354.774C706.936 357.203 709.088 358.997 711.517 358.775L721.798 357.838C724.228 357.616 726.022 355.465 725.8 353.035C725.585 350.598 723.434 348.812 720.997 349.034Z" fill="#7A59FF"/>
<path d="M719.953 356.512C721.58 356.512 722.899 355.193 722.899 353.566C722.899 351.94 721.58 350.621 719.953 350.621C718.327 350.621 717.008 351.94 717.008 353.566C717.008 355.193 718.327 356.512 719.953 356.512Z" fill="#221652"/>
<path d="M712.586 357.179C714.213 357.179 715.531 355.861 715.531 354.234C715.531 352.607 714.213 351.289 712.586 351.289C710.959 351.289 709.641 352.607 709.641 354.234C709.641 355.861 710.959 357.179 712.586 357.179Z" fill="#221652"/>
<path d="M723.448 388.642C722.75 390.849 720.4 392.08 718.192 391.381L695.28 384.156C692.025 383.132 688.421 385.085 687.396 388.34C686.372 391.595 688.174 395.065 691.422 396.097L706.641 400.892L688.54 395.184C685.285 394.16 681.823 395.97 680.791 399.225C679.767 402.48 681.569 405.95 684.816 406.982L702.917 412.69L684.816 406.982C681.569 405.957 678.1 407.768 677.068 411.023C676.043 414.278 677.846 417.747 681.101 418.779L699.202 424.487L683.403 419.51C680.156 418.485 676.686 420.296 675.654 423.551C674.63 426.806 676.432 430.275 679.68 431.307L708.38 440.35C708.451 440.374 708.53 440.398 708.602 440.413L710.325 440.953L752.958 452.275L800.212 419.74L744.717 402.25L744.685 402.266C742.169 398.971 739.414 395.176 739.993 391.071L741.637 379.48C742.137 375.916 739.993 372.51 736.572 371.43C732.697 370.207 728.569 372.367 727.346 376.241L723.448 388.642Z" fill="#F2B594"/>
<path d="M706.934 426.567L683.767 419.224C680.409 418.16 676.813 420.017 675.749 423.376C674.677 426.734 676.535 430.323 679.901 431.386L703.067 438.73C706.426 439.794 710.022 437.936 711.086 434.578C712.15 431.22 710.292 427.631 706.934 426.567Z" fill="#F2B594"/>
<path d="M759.712 355.679C749.565 340.84 753.376 320.579 768.214 310.441C783.053 300.295 803.313 304.106 813.452 318.944L759.712 355.679ZM763.483 464.596L732.258 455.395L750.669 392.953L781.894 402.155L763.483 464.596ZM813.46 318.936L884.11 422.296L830.362 459.031L759.712 355.671L813.46 318.936ZM837.476 486.405L763.491 464.588L781.901 402.147L855.887 423.956L837.476 486.405ZM884.11 422.304C906.443 454.974 875.425 497.599 837.476 486.405L855.887 423.963C835.118 417.842 818.152 441.168 830.37 459.039L884.11 422.304Z" fill="#AAA63E"/>
<path d="M832.255 419.359L749.68 392.485L751.664 377.4C754.467 383.26 759.413 387.825 765.487 390.143L833.414 416.088C834.303 416.429 834.756 417.43 834.422 418.319C834.089 419.192 833.136 419.653 832.255 419.359Z" fill="#A39F36"/>
<path d="M737.338 451.941C728.009 461.119 726.072 467.732 726.262 469.892H763.561C761.615 468.066 757.852 461.318 758.313 448.94C758.654 439.874 752.12 434.896 746.166 432.562C744.237 431.808 742.538 434.38 743.022 436.396C744.014 440.517 743.26 446.114 737.338 451.941Z" fill="#EAE2E2" fill-opacity="0.8"/>
<path d="M508.241 167.964C506.939 166.559 504.748 166.48 503.35 167.782L499.968 170.926C498.563 172.228 498.484 174.419 499.786 175.816C501.088 177.221 503.279 177.301 504.676 175.999L508.058 172.855C509.456 171.561 509.543 169.37 508.241 167.964Z" fill="#5B1E00"/>
<path d="M493.912 165.551C495.603 164.653 497.699 165.296 498.596 166.988L500.764 171.068C501.661 172.759 501.018 174.855 499.327 175.752C497.636 176.649 495.54 176.006 494.643 174.315L492.475 170.235C491.578 168.544 492.221 166.448 493.912 165.551Z" fill="#5B1E00"/>
<path d="M884.479 261.615C879.104 262.424 874.039 258.685 873.229 253.31L868.712 223.292C867.902 217.917 871.641 212.852 877.016 212.042C882.391 211.233 887.456 214.972 888.266 220.347L892.783 250.365C893.593 255.74 889.854 260.805 884.479 261.615Z" fill="#BF40FF"/>
<path d="M988.674 246.634C983.3 247.443 978.234 243.704 977.424 238.329L972.907 208.311C972.097 202.936 975.837 197.871 981.211 197.061C986.586 196.252 991.652 199.991 992.461 205.366L996.979 235.384C997.788 240.759 994.049 245.824 988.674 246.634Z" fill="#BF40FF"/>
<path d="M1159.59 277.192L1165.14 544.115" stroke="#FFB178" stroke-width="3.17567" stroke-miterlimit="10"/>
<path d="M982.003 201.381C978.216 179.961 958.178 163.042 936.647 166.139L911.353 169.775C888.726 173.022 873.332 194.418 877.437 216.902" stroke="#BF40FF" stroke-width="8.7331" stroke-miterlimit="10"/>
<path d="M971.509 290.029C970.397 294.332 968.143 298.191 965.086 301.247C960.64 305.685 954.511 308.448 947.771 308.448H929.344C917.57 308.448 907.654 300.024 905.344 288.902C908.456 288.401 911.64 288.147 914.871 288.147H956.488C961.656 288.147 966.69 288.798 971.509 290.029Z" fill="#EEAB35"/>
<path d="M1277.75 405.942L1158.73 449.806L1155.77 450.901L1135.77 396.637L1257.75 351.686L1246.1 355.981L1269.48 383.49L1272.09 390.588L1277.75 405.942Z" fill="white"/>
<path d="M1246.1 355.981L1135.77 396.637L1127.96 375.456C1126.71 372.042 1128.45 368.255 1131.86 367L1140.47 363.833L1150.85 360.006L1155.88 358.148L1161.23 356.171L1226.02 332.298L1246.1 355.981Z" fill="#3F51D6"/>
<path d="M1191.72 363.92C1193.62 363.92 1195.16 362.381 1195.16 360.482C1195.16 358.584 1193.62 357.044 1191.72 357.044C1189.82 357.044 1188.28 358.584 1188.28 360.482C1188.28 362.381 1189.82 363.92 1191.72 363.92Z" fill="white"/>
<path d="M1140.51 363.888C1138.4 358.18 1141.36 351.789 1147.06 349.685C1152.77 347.581 1159.16 350.535 1161.27 356.243L1165.43 367.54C1166.83 373.328 1163.17 377.591 1158.54 380.267C1157.15 381.069 1155.41 380.703 1154.86 379.203L1147.56 359.395C1147.06 358.005 1147.76 356.473 1149.15 355.965C1149.15 355.965 1151.49 355.004 1152.58 357.553L1156.07 367.008" stroke="white" stroke-width="3.17567" stroke-miterlimit="10"/>
<path d="M1257.76 351.685L1246.12 355.972L1226.02 332.29L1241.56 326.566C1244.93 325.319 1248.67 327.05 1249.92 330.424L1257.76 351.685Z" fill="#3F51D6"/>
<path d="M1269.47 383.49L1246.1 355.981L1257.75 351.686L1269.47 383.49Z" fill="white"/>
<path d="M166.646 469.319L166.289 401.312L230.906 421.351L207.438 482.618L166.646 469.319Z" fill="#78AAF9"/>
<path d="M1169.94 417.207C1168.17 412.118 1170.86 406.56 1175.95 404.806C1180.45 403.249 1185.41 405.179 1187.69 409.371L1195.09 422.994C1197.72 427.821 1203.64 429.679 1208.92 431.195L1208.94 431.156L1217.48 428.194L1241.46 485.348L1202.91 499.472L1200.65 500.258C1200.56 500.298 1200.46 500.33 1200.36 500.361L1162.69 513.398C1158.42 514.874 1153.77 512.604 1152.29 508.332C1150.81 504.061 1153.06 499.393 1157.34 497.916L1178.06 490.739L1154.31 498.956C1150.05 500.433 1145.39 498.162 1143.9 493.891C1142.43 489.62 1144.68 484.952 1148.95 483.475L1172.71 475.25L1148.95 483.475C1144.69 484.952 1140.03 482.681 1138.54 478.41C1137.07 474.138 1139.32 469.47 1143.59 467.993L1167.35 459.768L1147.37 466.684C1143.11 468.16 1138.45 465.89 1136.96 461.618C1135.49 457.347 1137.78 452.425 1142.04 450.94L1172.12 440.532C1175.02 439.532 1176.55 436.364 1175.55 433.466L1169.94 417.207Z" fill="#FFC2A8"/>
<path d="M1185.97 180.396L1105.79 197.323C1101.06 198.323 1096.39 195.275 1095.39 190.551L1093.35 180.873C1088.63 158.548 1103.04 136.437 1125.37 131.721L1141.56 128.3C1163.89 123.584 1186 137.993 1190.71 160.318L1192.75 169.996C1193.74 174.72 1190.7 179.396 1185.97 180.396Z" fill="#AAA63E"/>
<path d="M1198.84 177.888L1095.8 201.896C1091.12 202.984 1086.39 200.046 1085.3 195.362C1084.22 190.678 1087.15 185.954 1091.84 184.866L1194.88 160.858C1199.57 159.771 1204.29 162.708 1205.38 167.392C1206.46 172.076 1203.53 176.8 1198.84 177.888Z" fill="#8FA128"/>
<path fill-rule="evenodd" clip-rule="evenodd" d="M379 508.118L381.795 486.404L402.77 493.954L405.183 488.738L477.398 515.628C473.564 518.955 468.657 520.789 463.584 520.789L379 508.118Z" fill="#E13369"/>
<path fill-rule="evenodd" clip-rule="evenodd" d="M535.288 413.292L531.31 418.818L530.977 418.548L535.288 413.292Z" fill="#AAA63E"/>
<path fill-rule="evenodd" clip-rule="evenodd" d="M531.304 418.819L524.953 427.656C526.589 424.504 528.589 421.455 530.971 418.549L531.304 418.819Z" fill="#AAA63E"/>
<path fill-rule="evenodd" clip-rule="evenodd" d="M535.339 413.214L535.283 413.293L530.972 418.549C528.591 421.455 526.59 424.504 524.954 427.655L524.931 427.687L490.586 367.619C488.712 362.903 489.824 359.815 491.499 355.028L530.488 396.859L524.939 401.401L535.339 413.214Z" fill="#E13369"/>
<path fill-rule="evenodd" clip-rule="evenodd" d="M289.047 466.088L215.125 496.908C211.148 498.567 206.75 498.98 202.534 498.083L135.289 483.832L140.759 460.896L207.448 482.626L213.784 466.096H289.047V466.088Z" fill="#1A75E1"/>
<path d="M953.353 544.115L1011.82 472.471C1012.62 471.574 1012.57 470.209 1011.71 469.367C1010.82 468.502 1009.4 468.518 1008.54 469.399L942.54 536.287C939.047 539.819 934.831 542.479 930.234 544.123H953.353V544.115Z" fill="#EEAB35"/>
<path d="M1252.48 337.378L1286.05 397.676C1287.27 399.884 1286.27 402.662 1283.92 403.567L1277.76 405.949L1252.48 337.378Z" fill="#D66A44"/>
<path d="M1194.38 507.936L1271.75 497.13L1268.72 475.433L1193.13 502.894C1190.19 503.966 1191.28 508.372 1194.38 507.936Z" fill="#D66A44"/>
<path fill-rule="evenodd" clip-rule="evenodd" d="M1120.66 279.486C1121.27 287.711 1125.32 299.811 1138.46 299.811C1152.9 299.811 1158.6 285.203 1159.8 277.184H1138.27C1132.2 277.184 1126.3 277.978 1120.66 279.486Z" fill="#FFDC7B"/>
<path fill-rule="evenodd" clip-rule="evenodd" d="M1198.74 279.01C1198.27 287.235 1194.31 299.819 1180.92 299.819C1166.83 299.819 1161.05 285.893 1159.68 277.771C1159.64 277.573 1159.62 277.382 1159.59 277.192H1183.09C1188.47 277.192 1193.71 277.819 1198.74 279.01Z" fill="#FFDC7B"/>
<path d="M1145.43 327.701C1147.3 327.701 1148.81 326.187 1148.81 324.319C1148.81 322.451 1147.3 320.937 1145.43 320.937C1143.56 320.937 1142.05 322.451 1142.05 324.319C1142.05 326.187 1143.56 327.701 1145.43 327.701Z" fill="#FFB178"/>
<path d="M1145.43 442.668C1147.3 442.668 1148.81 441.154 1148.81 439.286C1148.81 437.418 1147.3 435.904 1145.43 435.904C1143.56 435.904 1142.05 437.418 1142.05 439.286C1142.05 441.154 1143.56 442.668 1145.43 442.668Z" fill="#FFB178"/>
<path fill-rule="evenodd" clip-rule="evenodd" d="M402.923 494.685L428.249 433.228L405.789 423.828L381.797 486.397L402.923 494.685Z" fill="#FF71A3"/>
<path d="M478.324 296.103L465.534 310.576C464.598 311.64 464.693 313.275 465.757 314.212C466.821 315.149 468.456 315.054 469.393 313.99L482.183 299.517C483.12 298.453 483.024 296.817 481.961 295.881C480.905 294.944 479.261 295.039 478.324 296.103Z" fill="#FF71A3"/>
<path fill-rule="evenodd" clip-rule="evenodd" d="M413.828 348.112V385.497C413.828 389.007 416.702 391.873 420.203 391.873H458.589C462.098 391.873 464.964 388.999 464.964 385.497V348.112H413.828Z" fill="#FF71A3"/>
<path d="M439.388 358.965C440.918 358.965 442.159 357.724 442.159 356.194C442.159 354.664 440.918 353.423 439.388 353.423C437.858 353.423 436.617 354.664 436.617 356.194C436.617 357.724 437.858 358.965 439.388 358.965Z" fill="#F7527E"/>
<path d="M828.013 354.98L853.95 323.85C856.761 320.476 856.3 315.419 852.926 312.609C849.552 309.798 844.495 310.259 841.684 313.633L815.747 344.762C812.936 348.136 813.397 353.194 816.771 356.004C820.145 358.815 825.202 358.354 828.013 354.98Z" fill="#DB7157"/>
<path d="M840.997 362.967L863.854 335.537C866.665 332.163 866.204 327.106 862.83 324.295C859.456 321.485 854.398 321.945 851.588 325.319L828.731 352.749C825.921 356.123 826.381 361.18 829.755 363.991C833.121 366.801 838.187 366.341 840.997 362.967Z" fill="#DB7157"/>
<path d="M855.9 372.835L859.354 368.683C861.529 366.071 861.172 362.149 858.56 359.966L854.408 356.512C851.796 354.337 847.874 354.694 845.69 357.306L842.237 361.458C840.061 364.07 840.419 367.992 843.031 370.175L847.183 373.629C849.803 375.804 853.725 375.447 855.9 372.835Z" fill="#DB7157"/>
<path d="M842.775 312.561C842.481 313.196 842.1 313.815 841.632 314.379L815.694 345.508C815.361 345.905 815.004 346.262 814.615 346.58C813.162 347.763 811.36 348.374 809.549 348.374C807.747 348.374 805.937 347.771 804.452 346.532C801.308 343.912 800.697 339.332 802.92 335.989C803.071 335.751 803.238 335.513 803.428 335.29L823.014 311.783L829.366 304.161C829.667 303.804 829.993 303.478 830.334 303.177C831.803 301.938 833.653 301.295 835.51 301.295C837.313 301.295 839.123 301.898 840.607 303.137C841.028 303.486 841.401 303.867 841.727 304.28C843.601 306.622 843.99 309.845 842.775 312.561Z" fill="#DB7157"/>
<path d="M830.329 303.177C830.028 304.002 829.583 304.788 828.988 305.495L823.78 311.743L805.091 334.179C804.464 334.933 803.725 335.537 802.915 335.989C801.701 336.688 800.327 337.037 798.954 337.037C797.152 337.037 795.341 336.434 793.857 335.203C790.483 332.393 790.022 327.328 792.833 323.961L803.503 311.156L816.73 295.277C816.857 295.118 816.992 294.975 817.127 294.833C818.675 293.237 820.771 292.411 822.867 292.411C824.335 292.411 825.804 292.808 827.098 293.634C827.4 293.816 827.686 294.023 827.964 294.253C830.631 296.468 831.473 300.088 830.329 303.177Z" fill="#DB7157"/>
<path d="M623.578 250.754C618.719 253.287 616.401 255.605 613.868 260.464C613.622 260.932 612.948 260.932 612.709 260.464C610.177 255.605 607.859 253.287 603 250.754C602.531 250.508 602.531 249.833 603 249.595C607.859 247.063 610.177 244.744 612.709 239.885C612.955 239.417 613.63 239.417 613.868 239.885C616.401 244.744 618.719 247.063 623.578 249.595C624.046 249.833 624.046 250.508 623.578 250.754Z" fill="#FFC34A"/>
<path d="M813.147 267.744C808.852 269.983 806.803 272.031 804.564 276.326C804.35 276.739 803.755 276.739 803.54 276.326C801.301 272.031 799.253 269.983 794.958 267.744C794.545 267.529 794.545 266.934 794.958 266.72C799.253 264.481 801.301 262.432 803.54 258.137C803.755 257.724 804.35 257.724 804.564 258.137C806.803 262.432 808.852 264.481 813.147 266.72C813.568 266.934 813.568 267.529 813.147 267.744Z" fill="#FFC34A"/>
<path d="M791.974 227.889C788.91 229.484 787.449 230.945 785.853 234.01C785.702 234.304 785.273 234.304 785.123 234.01C783.527 230.945 782.066 229.484 779.002 227.889C778.708 227.738 778.708 227.309 779.002 227.158C782.066 225.563 783.527 224.102 785.123 221.037C785.273 220.743 785.702 220.743 785.853 221.037C787.449 224.102 788.91 225.563 791.974 227.158C792.268 227.309 792.268 227.738 791.974 227.889Z" fill="#FFC34A"/>
</g>
<defs>
<clipPath id="clip0_5647_236615">
<rect x="0.617188" y="-160.035" width="1414.76" height="704.205" rx="23.8175" fill="white"/>
</clipPath>
</defs>
</svg>
