<svg width="110" height="36" viewBox="0 0 110 36" fill="none" xmlns="http://www.w3.org/2000/svg">
<path d="M102.301 3L96.0686 17.9863H103.001L109.272 3H102.301ZM93.9825 23.3609C93.9537 25.4325 95.608 27.1345 97.6797 27.1634C97.71 27.1634 97.7417 27.1634 97.772 27.1634C99.9591 27.1634 101.733 25.3892 101.733 23.2021C101.762 21.1392 100.114 19.4415 98.0507 19.4126C98.0102 19.4126 97.9713 19.4126 97.9308 19.4126C95.7438 19.4126 93.9695 21.1854 93.9695 23.3739L93.9825 23.3609ZM87.7114 18.607C87.7114 16.7837 86.2331 15.3055 84.4098 15.3055C82.5865 15.3055 81.1083 16.7837 81.1083 18.607C81.1083 20.4303 82.5865 21.9086 84.4098 21.9086C86.2331 21.9086 87.7114 20.4303 87.7114 18.607ZM69.028 18.607C69.028 16.7837 67.5497 15.3055 65.7264 15.3055C63.9031 15.3055 62.4249 16.7837 62.4249 18.607C62.4249 20.4303 63.9031 21.9086 65.7264 21.9086C67.5497 21.9086 69.028 20.4303 69.028 18.607ZM28.9544 22.014C27.0733 22.014 25.5474 20.4881 25.5474 18.607C25.5474 16.726 27.0733 15.2001 28.9544 15.2001C30.8354 15.2001 32.3613 16.726 32.3613 18.607C32.383 20.4664 30.8932 21.9909 29.0338 22.014C29.0078 22.014 28.9804 22.014 28.9544 22.014ZM1 10.3278L8.06366 26.9916L5.51566 33H11.7218L21.1357 10.3278H14.957L11.1285 20.0333L7.33752 10.3278H1ZM74.5715 18.607C74.5715 23.4923 70.6102 27.4536 65.725 27.4536C60.8398 27.4536 56.8784 23.4923 56.8784 18.607C56.8784 13.7218 60.8398 9.7605 65.725 9.7605C70.6102 9.7605 74.5715 13.7218 74.5715 18.607ZM93.2549 18.607C93.2549 23.4923 89.2936 27.4536 84.4084 27.4536C79.5232 27.4536 75.5619 23.4923 75.5619 18.607C75.5619 13.7218 79.5232 9.7605 84.4084 9.7605C89.2936 9.7605 93.2549 13.7218 93.2549 18.607ZM39.8191 3V26.8588H45.6557V18.0512C45.6557 16.3348 46.4872 15.304 47.8081 15.304C49.1291 15.304 49.8552 16.202 49.8552 17.852V26.8574H55.6918V16.4676C55.6918 12.5063 53.5263 9.93229 50.027 9.93229C48.3365 9.86444 46.7168 10.6108 45.6701 11.9389V3H39.8206H39.8191ZM32.2271 10.3278V11.8725C31.1068 10.5863 29.4683 9.87455 27.7634 9.93229C23.2477 9.93229 19.8408 13.8936 19.8408 18.607C19.8408 23.3205 23.1683 27.2948 27.7634 27.2948C29.4799 27.3699 31.1314 26.6379 32.2271 25.3141V26.8588H37.8644V10.3278H32.2271Z" fill="#958B86"/>
</svg>
